<svg xmlns="http://www.w3.org/2000/svg" viewBox="0 0 511.998 511.998">
  <path d="M502.48 321.038a12.467 12.467 0 00-.202-.458c-16.595-36.079-43.651-50.682-54.591-55.307-11.332-4.893-19.835-6.697-23.483-7.469-.075-.028-.154-.049-.229-.077a14.214 14.214 0 00-.688-.229c-.121-.038-.236-.085-.359-.12-.085-.024-.17-.036-.255-.059-.301-.081-.607-.15-.916-.212-.198-.04-.396-.078-.593-.109-.136-.022-.268-.057-.405-.075-.184-.024-.365-.029-.548-.046-.158-.015-.314-.03-.472-.04a15.612 15.612 0 00-1.079-.029c-.109.001-.218-.001-.326.003-.139.004-.28-.004-.418.004l-.129-.013c-3.973-.385-12.218-1.182-23.626-.014-16.759 1.376-41.036 10.066-59.15 30.373-.109.122-.217.247-.322.373-8.346 9.999-14.646 22.162-18.249 35.219-.959 2.75-1.061 5.168-1.091 6.556l-.003.017c-1.092 3.141-1.178 5.979-.909 8.214-.021.193-.049.384-.072.576-.22 1.789-.554 4.512-.081 7.801-.103 6.001 1.333 11.339 2.513 15.729.335 1.246.651 2.423.892 3.467a15.5 15.5 0 001.352 3.642c.053.259.112.517.179.773.719 2.771 1.942 4.814 2.748 6.059a14.997 14.997 0 002.741 5.318l.797.992c.457.951 1.205 2.406 2.389 3.954 3.7 4.976 7.855 8.822 11.526 12.22l1.466 1.361c.438.41.9.792 1.384 1.146 4.768 3.489 9.563 5.754 13.794 7.753.707.335 1.407.665 2.094.996.591.285 1.2.531 1.822.736 4.44 1.464 8.699 2.088 12.121 2.591 1.402.205 2.727.4 3.828.616a15.07 15.07 0 002.594.28c.406.008.81.012 1.213.012 26.439 0 45.404-17.706 49.917-34.652 2.131-8.005-2.63-16.223-10.636-18.354-8.003-2.129-16.223 2.63-18.355 10.636-1.148 4.313-8.284 12.159-20.438 12.366a143.614 143.614 0 00-3.77-.587c-2.295-.336-4.48-.657-6.31-1.166l-1.265-.599c-3.033-1.433-5.913-2.794-8.265-4.395l-.817-.757c-2.816-2.607-5.487-5.079-7.497-7.666-.473-.991-1.256-2.545-2.554-4.215l-.001-.003a20.896 20.896 0 00-1.893-3.802 29.48 29.48 0 00-1.335-3.663c-.246-.975-.501-1.923-.75-2.85-.76-2.828-1.622-6.032-1.474-7.737a14.972 14.972 0 00-.194-4.033l.04-.315c.157-1.283.374-3.042.314-5.158.134-.548.254-1.108.364-1.684.367-1.615.466-3.034.501-4.049 2.442-8.932 6.669-17.194 12.245-23.933 12.268-13.641 28.738-19.444 39.15-20.267.123-.01.246-.021.369-.034 8.504-.882 14.559-.297 17.812.017.559.054 1.049.1 1.517.139.558.135 1.086.249 1.562.349 3.23.684 9.242 1.956 17.864 5.684l.124.053c7.646 3.224 26.713 13.565 38.954 39.999 5.225 12.54 7.637 26.887 6.977 41.512-.011.239-.016.478-.015.717-.037.175-.079.349-.118.524-.246 1.108-.605 2.727-.768 4.646a65.804 65.804 0 00-.377 4.031l-.004.072c-.854 2.535-1.338 4.894-1.769 6.997-.3 1.466-.711 3.473-1.046 4.103a14.953 14.953 0 00-1.265 3.241c-1.769 6.756-6.062 13.718-10.606 21.09l-.644 1.045a73.71 73.71 0 00-4.792 6.603c-.229.251-.7.711-1.057 1.06-1.026 1.003-2.287 2.236-3.576 3.836a76.9 76.9 0 00-1.867 2.253l-1.751 1.447c-1.682 1.334-3.044 2.695-4.146 3.796-.622.622-1.328 1.327-1.676 1.594l-.201.156c-6.697 5.307-14.996 10.205-26.091 15.399-8.323 3.283-18.052 5.648-30.541 7.424-10.972.87-22.545-.387-32.557-1.795-10.502-2.881-21.549-6.314-31.662-11.677-11.737-7.116-20.586-13.8-27.791-20.996-9.397-10.452-16.098-19.64-21.072-28.892a11.91 11.91 0 00-.15-.273c-.415-.736-.896-1.901-1.405-3.134-.666-1.614-1.418-3.438-2.441-5.395l-1.608-3.225-1.032-3.413c-.595-2.091-1.307-3.889-1.936-5.48-.407-1.028-.864-2.185-1.024-2.818a125.293 125.293 0 00-2.289-9.865c-2.025-12.59-3.548-23.88-2.215-34.224a15 15 0 00.11-2.542c-.1-2.396.437-5.244 1.059-8.543.494-2.621 1.054-5.591 1.358-8.783.015-.153.027-.307.037-.461.098-.364.35-1.087.54-1.632.457-1.315 1.011-2.906 1.449-4.787.087-.286.163-.563.241-.841.051-.012.113-.029.158-.039a15.092 15.092 0 001.775-.479c.29-.094 1.169-.262 1.811-.385 2.399-.458 5.648-1.079 9.188-2.838 1.616-.719 3.504-1.381 5.498-2.081 3.955-1.387 8.396-2.944 12.928-5.631 13.042-5.653 23.797-14.003 35.465-23.512.449-.366.877-.758 1.281-1.173a93.85 93.85 0 016.256-5.874c.111-.095.22-.191.329-.29 2.283-2.071 3.997-4.233 5.375-5.971.7-.882 1.361-1.716 1.842-2.209.065-.066.129-.134.192-.201l3.408-3.624a14.924 14.924 0 001.588-2.008l2.776-4.202c.064-.096.126-.194.188-.292.458-.731 1.173-1.659 1.93-2.643 1.238-1.609 2.637-3.428 3.975-5.666 6.837-11.072 12.418-23.618 17.558-39.469.076-.233.146-.468.21-.705 3.371-12.444 5.094-25.969 5.422-42.561.005-.259.003-.519-.005-.778-.479-14.955-3.778-29.233-6.941-41.227-.158-.6-.353-1.189-.584-1.765-4.52-11.255-10.254-24.362-18.51-36.237a15.269 15.269 0 00-.492-.667c-9.532-12.21-18.231-21.247-27.376-28.441a15.49 15.49 0 00-.67-.498c-12.14-8.5-22.564-14.354-32.792-18.414-2.183-.897-4.199-1.439-5.826-1.877-.772-.208-1.733-.466-2.116-.621a14.127 14.127 0 00-.388-.151l-3.822-1.425a15.016 15.016 0 00-3.315-.821 52.104 52.104 0 01-3.155-.507 15.26 15.26 0 00-.736-.123c-.275-.043-1.065-.264-1.641-.426-1.762-.494-4.174-1.17-7.07-1.406a14.125 14.125 0 00-.585-.036 44.307 44.307 0 01-5.916-.638 15.117 15.117 0 00-2.207-.224l-2.249-.063c-9.988-.287-20.302-.584-30.825 2.016-4.185.405-7.697 1.575-10.593 2.539-1.199.4-2.435.812-3.254.993-2.669.381-5.272 1.284-7.913 2.745-.69.333-1.311.612-1.888.849-.281.116-.558.24-.831.372-.248.089-.501.162-.751.24-1.602.505-3.941 1.242-6.481 2.773-16.766 8.792-31.33 20.954-42.145 35.199a14.32 14.32 0 00-.295.403c-22.948 32.413-22.064 63.139-20.598 74.928 1.426 12.253 4.114 20.519 5.27 24.066.014.085.036.171.051.256.033.19.072.378.113.568.026.121.043.242.072.363.025.106.064.206.091.311a15.39 15.39 0 00.47 1.474c.055.145.095.293.155.438.057.138.127.266.188.4a14.892 14.892 0 00.895 1.706c.086.142.163.292.254.431l.054.119c1.654 3.632 5.085 11.17 11.802 20.466 9.566 13.824 29.228 30.503 55.879 36.04.161.033.322.064.484.092 5.035.874 10.2 1.31 15.41 1.31a96.399 96.399 0 0024.21-3.116c2.859-.544 5.003-1.663 6.219-2.329l.017-.006a18.292 18.292 0 007.576-3.325c.179-.078.359-.15.537-.225 1.659-.704 4.183-1.774 6.793-3.826 5.268-2.924 9.186-6.854 12.409-10.085.901-.904 1.751-1.757 2.528-2.482a15.001 15.001 0 002.449-2.96c.203-.18.402-.365.595-.555 2.037-2.005 3.194-4.082 3.87-5.404a15.008 15.008 0 003.237-5.031l.464-1.192c.595-.873 1.482-2.248 2.23-4.051 2.464-5.7 3.718-11.231 4.825-16.117l.44-1.927c.134-.581.234-1.17.298-1.763.637-5.863.204-11.137-.179-15.791-.064-.787-.128-1.565-.185-2.332a14.84 14.84 0 00-.275-1.957c-.953-4.578-2.542-8.576-3.817-11.79-.523-1.318-1.017-2.563-1.38-3.626a14.945 14.945 0 00-1.055-2.387c-13.054-23.717-38.367-31.594-55.561-26.964-7.999 2.155-12.737 10.386-10.583 18.385 2.155 8 10.386 12.734 18.385 10.583 4.313-1.16 14.678 1.097 20.932 11.518.452 1.23.92 2.411 1.378 3.564.855 2.155 1.67 4.205 2.145 6.046.037.469.076.942.115 1.418.274 3.338.534 6.507.322 9.339l-.241 1.056c-.851 3.757-1.658 7.317-2.899 10.358-.618.901-1.567 2.349-2.362 4.297a29.643 29.643 0 00-4.858 6.537c-.712.692-1.396 1.379-2.066 2.05-2.078 2.085-4.434 4.447-5.998 5.178a14.999 14.999 0 00-3.381 2.175c-.097.04-.194.08-.291.122-1.193.505-2.829 1.199-4.636 2.313-.549.16-1.102.338-1.664.536a21.572 21.572 0 00-3.727 1.579c-8.956 2.354-18.226 2.826-26.853 1.366-17.954-3.807-31.212-15.167-37.126-23.77-.07-.103-.143-.205-.215-.305-5.02-6.926-7.541-12.463-8.895-15.438a80.086 80.086 0 00-.642-1.388 49.124 49.124 0 00-.474-1.519c-1.023-3.14-2.926-8.984-4.007-18.308a5.955 5.955 0 00-.017-.14c-1.033-8.231-1.613-29.909 15.162-53.733 8.246-10.795 19.465-20.057 32.459-26.795.214-.111.425-.227.633-.348.167-.054.335-.104.503-.157 1.084-.341 2.665-.839 4.41-1.66a67.103 67.103 0 003.659-1.677l.095-.047c2.622-.528 4.905-1.289 6.942-1.967 1.42-.473 3.365-1.121 4.083-1.147a15.027 15.027 0 003.425-.523c6.738-1.845 14.909-1.609 23.563-1.36l1.241.035c2.671.429 5.339.708 8.107.847.331.073.964.25 1.444.385 1.383.388 3.082.864 5.117 1.181.95.179 1.912.342 2.877.489l2.129.793c1.995.79 3.853 1.289 5.357 1.694.851.229 1.815.488 2.221.657l.249.101c7.934 3.14 16.324 7.875 26.378 14.89 7.006 5.564 13.916 12.807 21.696 22.736 6.238 9.065 10.937 19.719 14.725 29.095 2.753 10.519 5.3 21.789 5.715 33.259-.293 13.727-1.657 24.732-4.283 34.564-4.359 13.378-8.965 23.773-14.483 32.689a8.016 8.016 0 00-.152.252c-.436.736-1.207 1.738-2.022 2.798-1.066 1.386-2.271 2.951-3.455 4.817l-1.984 3.002-2.445 2.6c-1.51 1.56-2.711 3.075-3.773 4.415-.686.866-1.46 1.841-1.931 2.302a123.746 123.746 0 00-7.401 6.915c-9.893 8.047-18.912 15.01-28.53 19.026-.786.328-1.542.722-2.261 1.178-2.023 1.285-4.76 2.245-7.928 3.355-2.516.882-5.367 1.882-8.281 3.213-.139.064-.277.129-.414.198-.365.097-1.121.241-1.691.35-1.365.261-3.018.577-4.863 1.136-.293.068-.572.141-.854.214-.031-.033-.073-.074-.1-.104a14.915 14.915 0 00-1.308-1.305c-.227-.204-.812-.881-1.239-1.376-1.598-1.851-3.761-4.356-7.058-6.546-1.433-1.04-2.952-2.345-4.555-3.723-3.177-2.729-6.745-5.794-11.334-8.374-11.426-8.479-24.033-13.616-38.097-18.962-.544-.207-1.1-.382-1.665-.524a94.412 94.412 0 01-8.226-2.48 12.293 12.293 0 00-.383-.129c-2.939-.946-5.669-1.35-7.864-1.675-1.114-.164-2.165-.321-2.833-.491a30.207 30.207 0 00-.288-.071l-4.839-1.135a15.063 15.063 0 00-2.509-.368l-5.027-.308c-.12-.007-.241-.013-.361-.018-.859-.032-2.018-.186-3.245-.349-2.019-.268-4.301-.572-6.918-.608-13.02-.39-26.668 1.055-42.95 4.528-.241.051-.48.108-.717.171-12.477 3.309-25.05 8.579-39.567 16.585-.225.124-.446.253-.664.389-12.69 7.872-23.418 17.879-32.239 26.629-.44.437-.854.9-1.236 1.389-7.49 9.544-15.977 21.065-22.127 34.147-.117.25-.227.502-.331.758C6.108 327.036 2.631 339.089.97 350.622c-.039.275-.072.552-.096.829-1.292 14.748-1.151 26.699.447 37.593.314 2.355.856 4.383 1.294 6.02.205.768.461 1.725.518 2.13.018.13.038.259.06.388l.675 4.023a15.04 15.04 0 00.963 3.327c.389.926.766 1.915 1.119 2.939.084.245.173.481.27.722.1.258.301 1.046.449 1.621.454 1.777 1.076 4.212 2.328 6.847.08.169.164.337.251.503a44.175 44.175 0 012.399 5.433c.254.701.559 1.382.915 2.037l1.077 1.993c4.744 8.788 9.642 17.861 17.149 25.666 2.443 3.424 5.214 5.882 7.499 7.909.945.838 1.919 1.702 2.486 2.322 1.665 2.12 3.75 3.922 6.338 5.482.603.409 1.168.816 1.719 1.238.224.172.453.337.686.496.203.171.393.355.587.533 1.239 1.136 3.048 2.794 5.644 4.228 16.01 10.13 33.825 16.662 51.56 18.9.163.021.326.038.49.053 3.951.367 7.768.536 11.449.536 33.152 0 55.216-13.715 63.746-20.161 9.896-7.361 15.71-13.823 18.204-16.598.297-.24.587-.494.869-.76.056-.053.103-.111.158-.165.192-.186.375-.385.559-.583.196-.212.388-.427.569-.648.085-.104.182-.194.265-.301.099-.127.181-.261.275-.391a15.43 15.43 0 001.034-1.621c.089-.161.191-.318.273-.482l.075-.105c2.32-3.249 7.135-9.991 11.829-20.462 7.188-15.199 11.799-40.565 3.27-66.41a15.218 15.218 0 00-.163-.468c-4.489-12.227-11.869-23.757-21.367-33.396-1.902-2.211-3.947-3.51-5.135-4.232l-.012-.01c-2.179-2.517-4.593-4.01-6.661-4.895-.156-.115-.308-.234-.461-.35-1.441-1.087-3.634-2.741-6.725-3.977-5.16-3.095-10.515-4.523-14.917-5.698-1.236-.33-2.403-.641-3.422-.952a15.634 15.634 0 00-3.813-.645c-.248-.083-.498-.16-.75-.229-2.761-.765-5.142-.728-6.624-.654a14.997 14.997 0 00-5.97-.288l-1.275.196c-1.053-.079-2.686-.16-4.619.094-6.131.712-11.516 2.378-16.272 3.85-.663.205-1.319.408-1.97.606-.579.176-1.146.387-1.7.631-5.404 2.387-9.763 5.406-13.608 8.07-.642.444-1.276.884-1.905 1.312-.543.37-1.062.775-1.552 1.213-3.488 3.115-6.159 6.49-8.304 9.202-.879 1.111-1.709 2.16-2.448 3.005a14.955 14.955 0 00-1.54 2.108c-14.011 23.164-8.174 49.026 4.432 61.598 5.866 5.849 15.362 5.837 21.213-.029 5.85-5.866 5.837-15.363-.029-21.213-3.162-3.153-6.39-13.258-.494-23.886.837-1.003 1.624-1.997 2.392-2.967 1.44-1.821 2.812-3.554 4.171-4.888l1.145-.791c2.757-1.91 5.375-3.723 7.94-4.962l1.124-.347c3.65-1.129 7.109-2.2 10.336-2.642 1.094.084 2.825.183 4.915-.105l.028.004c1.667.28 3.131.295 4.212.258 1.256.309 2.542.536 3.853.678.953.27 1.886.519 2.8.762 2.843.758 6.065 1.618 7.484 2.609a14.965 14.965 0 003.582 1.843l.247.188c1.034.779 2.452 1.849 4.319 2.857.408.39.832.774 1.278 1.158a21.482 21.482 0 003.238 2.447c6.517 6.576 11.563 14.369 14.616 22.576 5.68 17.447 2.471 34.611-2.022 44.037-.054.112-.106.225-.157.339-3.488 7.813-7.022 12.763-8.922 15.422a98.42 98.42 0 00-.879 1.246c-.404.423-.768.824-1.084 1.176-2.207 2.456-6.314 7.026-13.848 12.624a7.696 7.696 0 00-.108.082c-6.618 5.011-25.116 16.356-54.124 13.737-13.46-1.738-27.089-6.823-39.432-14.712a16.868 16.868 0 00-.617-.374c-.132-.119-.261-.242-.393-.362-.839-.77-2.066-1.894-3.653-2.997a67.722 67.722 0 00-3.305-2.341l-.044-.029c-1.768-2.007-3.569-3.604-5.174-5.029-1.121-.994-2.655-2.355-3.037-2.965a14.99 14.99 0 00-2.17-2.71c-4.96-4.906-8.842-12.097-12.953-19.71l-.595-1.101a73.916 73.916 0 00-3.322-7.456 33.18 33.18 0 01-.386-1.434c-.356-1.393-.793-3.104-1.539-5.027a79.886 79.886 0 00-1.013-2.735l-.376-2.243c-.313-2.112-.809-3.964-1.209-5.462-.216-.809-.485-1.816-.541-2.246a9.484 9.484 0 00-.04-.288c-1.249-8.449-1.343-18.082-.295-30.287 1.319-8.864 4.136-18.474 8.842-30.165 4.727-9.928 11.606-19.325 17.833-27.295 7.747-7.656 16.244-15.507 25.945-21.58 12.02-6.604 22.234-10.927 32.076-13.575 13.755-2.912 25.063-4.121 35.553-3.8.104.003.209.005.313.006.848.008 2.099.174 3.423.35 1.729.23 3.683.489 5.887.582l3.598.22 3.475.814c2.103.527 4.012.81 5.701 1.06 1.098.163 2.333.346 2.962.524a124.377 124.377 0 009.697 2.95c11.908 4.539 22.44 8.864 30.732 15.194.678.517 1.398.976 2.154 1.371 2.125 1.11 4.323 2.999 6.869 5.186 2.022 1.737 4.314 3.706 6.925 5.565.124.088.25.175.376.259.267.267.772.853 1.152 1.293.906 1.049 2.003 2.32 3.405 3.635.207.222.411.429.616.639l-.04.138a14.961 14.961 0 00-.48 1.806c-.063.298-.356 1.141-.57 1.756-.802 2.305-1.888 5.427-2.133 9.37-.185 1.761-.556 3.728-.947 5.804-.776 4.116-1.647 8.738-1.587 14.002-1.628 14.13.228 27.62 2.632 42.477.092.569.217 1.132.374 1.687a95.326 95.326 0 011.964 8.374c.025.135.052.269.081.403.65 3.017 1.665 5.582 2.48 7.642.413 1.045.804 2.032.987 2.689l.088.303 1.439 4.762c.245.81.558 1.597.935 2.354l2.248 4.508c.054.108.109.216.166.323.4.756.846 1.835 1.317 2.978.776 1.882 1.654 4.01 2.931 6.294 6.18 11.469 14.255 22.574 25.4 34.933.163.181.331.358.503.531 9.095 9.147 19.944 17.401 34.144 25.979.221.133.445.261.673.383 13.164 7.052 27.192 11.339 39.18 14.603.599.163 1.206.289 1.82.376 9.06 1.293 19.378 2.515 30.091 2.515 3.484 0 7.011-.129 10.549-.427.276-.023.552-.054.827-.093 15.336-2.153 27.51-5.168 38.31-9.487.258-.103.514-.214.766-.331 13.427-6.257 23.711-12.358 32.354-19.193 1.868-1.443 3.345-2.919 4.536-4.109.565-.564 1.268-1.267 1.591-1.52.11-.086.218-.172.325-.261l3.145-2.6a14.945 14.945 0 002.376-2.472 49.633 49.633 0 011.996-2.453c.167-.193.327-.386.484-.587.175-.217.761-.79 1.188-1.208 1.312-1.282 3.107-3.037 4.76-5.431.11-.159.217-.32.32-.483a44.422 44.422 0 013.509-4.801c.476-.566.909-1.167 1.296-1.797l1.172-1.903c5.247-8.51 10.663-17.295 13.672-27.712 1.744-3.827 2.486-7.455 3.099-10.446.254-1.236.514-2.51.766-3.308 1.006-2.503 1.526-5.213 1.581-8.238.054-.741.123-1.423.21-2.076.039-.289.069-.579.09-.87.046-.263.111-.52.169-.778.363-1.639.895-4.034.84-6.997.773-18.92-2.477-37.615-9.404-54.103z"/>
</svg>