<svg id="Capa_1" enable-background="new 0 0 511.983 511.983" height="512" viewBox="0 0 511.983 511.983" width="512" xmlns="http://www.w3.org/2000/svg"><g><g><path d="m64.248 278.413 177.184-208.968c7.624-8.992 21.496-8.992 29.12 0l177.184 208.968-191.744 42.741z" fill="#edf4ff"/><path d="m270.552 69.445c-7.624-8.992-21.496-8.992-29.12 0l-2.525 2.978c5.415-.035 10.843 2.207 14.685 6.737l168.891 199.253-179.118 39.927 12.626 2.815 191.744-42.741z" fill="#dbeaff"/><path d="m223.851 313.99 32.141-251.289 32.141 251.289-32.141 7.165z" fill="#b8daff"/><path d="m288.132 313.989-22.03 4.91-21.44-167.609 11.33-88.591z" fill="#a4ccff"/><path d="m503.672 240.708-98.09 194.63c-2.36 4.68-6.06 8.42-10.49 10.83-3.66 2.01-7.82 3.11-12.15 3.11h-253.9c-4.33 0-8.49-1.1-12.15-3.11-4.43-2.41-8.13-6.15-10.49-10.83l-98.09-194.63c-3.04-6.02 2.92-12.63 9.22-10.23l238.46 90.68 238.46-90.68c6.3-2.4 12.26 4.21 9.22 10.23z" fill="#b8daff"/><g><path d="m494.452 230.478-15.3 5.818c.214 1.411.016 2.929-.733 4.412l-98.09 194.63c-2.36 4.68-6.06 8.42-10.49 10.83-3.66 2.01-7.82 3.11-12.15 3.11h25.253c4.33 0 8.49-1.1 12.15-3.11 4.43-2.41 8.13-6.15 10.49-10.83l98.09-194.63c3.04-6.02-2.92-12.63-9.22-10.23z" fill="#a4ccff"/></g><path d="m395.092 446.168c-3.66 2.01-7.82 3.11-12.15 3.11h-253.9c-4.33 0-8.49-1.1-12.15-3.11l139.1-125.01z" fill="#8bb3ea"/><path d="m255.992 321.158-12.626 11.347 126.473 113.663c-3.66 2.01-7.82 3.11-12.15 3.11h25.253c4.33 0 8.49-1.1 12.15-3.11z" fill="#739ad6"/></g><path d="m508.135 227.414c-4.147-4.601-10.565-6.15-16.349-3.946l-198.042 75.31-28.671-224.193 133.49 157.432c2.679 3.16 7.412 3.549 10.571.87s3.549-7.411.87-10.571l-133.728-157.713c-5.06-5.977-12.453-9.404-20.284-9.404s-15.224 3.427-20.28 9.399l-154.41 182.106-61.1-23.235c-5.787-2.203-12.206-.656-16.354 3.945-4.147 4.601-5.022 11.146-2.233 16.669l98.091 194.631c5.146 10.393 16.529 17.939 29.336 18.063h54.969c4.142 0 7.5-3.358 7.5-7.5s-3.358-7.5-7.5-7.5h-51.014l122.995-110.536 122.995 110.536h-159.136c-4.142 0-7.5 3.358-7.5 7.5s3.358 7.5 7.5 7.5h163.091c11.179.235 23.837-6.923 29.337-18.064l98.088-194.625c2.791-5.528 1.915-12.073-2.232-16.674zm-261.224-152.829-19.02 148.727c-.525 4.108 2.379 7.865 6.488 8.391 4.111.533 7.865-2.379 8.391-6.488l13.222-103.391 23.331 182.439-23.331 8.872-23.331-8.872 5.518-43.146c.525-4.109-2.379-7.866-6.488-8.391-4.105-.526-7.865 2.38-8.391 6.488l-5.06 39.565-122.067-46.42zm-130.51 361.94c-1.324-1.326-2.442-2.857-3.302-4.563l-97.955-194.368 226.69 86.204zm282.484-4.564c-.86 1.706-1.977 3.236-3.303 4.563l-125.432-112.726 226.692-86.202z"/></g></svg>