<svg id="Capa_1" enable-background="new 0 0 512 512" height="512" viewBox="0 0 512 512" width="512" xmlns="http://www.w3.org/2000/svg"><g><g><path d="m217.29 290.485-26.25 118.96c-1.45 6.55-5.9 12.04-12.02 14.8l-55.42 25.01c-6.93 3.13-15.01 2.32-21.18-2.13l-.24-.17-37.59-27.1 47.8-167.85 79.94 29.32z" fill="#6e61b6"/><path d="m217.29 290.485-32.65 27.66 7.69-36.82z" fill="#6354b1"/><path d="m217.29 153.955v136.53l-23.55-4.04-174.33-29.91c-6.88-1.18-11.91-7.15-11.91-14.13v-167.2c0-7.92 6.42-14.34 14.34-14.34h106.97c4.12 0 8.04 1.77 10.76 4.86l54.17 61.5z" fill="#ff8086"/><path d="m217.29 153.955v136.53l-23.55-4.04v-159.22z" fill="#e5646e"/><path d="m217.289 290.488-26.249 118.958c-1.446 6.553-5.901 12.039-12.017 14.8l-55.42 25.014c-6.934 3.13-15.012 2.317-21.184-2.132l-37.826-27.269z" fill="#978ecb"/><path d="m184.638 318.151-20.145 91.295c-1.446 6.553-5.901 12.039-12.017 14.8l-50.303 22.704.246.177c6.171 4.449 14.249 5.262 21.184 2.132l55.42-25.014c6.117-2.761 10.571-8.247 12.017-14.8l26.249-118.958z" fill="#8379c1"/><path d="m228.789 105.539h54.423c6.351 0 11.5 5.149 11.5 11.5v207.188h-77.423v-207.188c0-6.351 5.148-11.5 11.5-11.5z" fill="#978ecb"/><path d="m283.211 105.539h-23.547c6.351 0 11.5 5.149 11.5 11.5v207.188h23.547v-207.188c0-6.351-5.148-11.5-11.5-11.5z" fill="#8379c1"/><path d="m294.711 290.488 26.249 118.958c1.446 6.553 5.901 12.039 12.017 14.8l55.42 25.014c6.934 3.13 15.012 2.317 21.184-2.132l37.826-27.269-47.801-167.853z" fill="#6e61b6"/><path d="m399.605 252.006-24.036 8.818 45.29 159.035-37.58 27.091 5.117 2.31c6.934 3.13 15.012 2.317 21.184-2.132l37.826-27.269z" fill="#6354b1"/><path d="m447.41 419.855-37.83 27.27c-6.17 4.45-14.25 5.26-21.18 2.13l-5.11-2.31-50.31-22.7c-6.12-2.76-10.57-8.25-12.02-14.8l-26.25-118.96 117.71 99.72z" fill="#978ecb"/><path d="m447.41 419.855-37.83 27.27c-6.17 4.45-14.25 5.26-21.18 2.13l-5.12-2.3.01-.01 37.57-27.09-8.44-29.65z" fill="#8379c1"/><path d="m217.289 353.164 28.632 30.081c5.485 5.762 14.675 5.762 20.16 0l28.632-30.081v-28.937h-77.423v28.937z" fill="#c2bce0"/><path d="m271.165 324.227v28.937l-20.422 21.386c-2.481 2.607-5.722 4.022-9.034 4.27l4.211 4.424c5.485 5.762 14.675 5.762 20.16 0l28.632-30.081v-28.937h-23.547z" fill="#aca6d6"/><path d="m294.711 290.484 197.876-33.95c6.882-1.181 11.912-7.148 11.912-14.13v-167.2c0-7.918-6.419-14.336-14.336-14.336h-106.974c-4.117 0-8.036 1.77-10.758 4.86l-77.72 88.228z" fill="#ff8086"/><path d="m490.164 60.868h-26.547c7.918 0 14.336 6.419 14.336 14.336v167.2c0 6.982-5.03 12.949-11.912 14.13l-171.33 29.396v4.555l197.877-33.95c6.882-1.181 11.912-7.148 11.912-14.13v-167.2c0-7.919-6.419-14.337-14.336-14.337z" fill="#e5646e"/></g><path d="m490.164 53.367h-106.975c-6.269 0-12.241 2.698-16.386 7.402l-64.592 73.325v-17.056c0-10.477-8.523-19-19-19h-54.423c-10.477 0-19 8.523-19 19v17.056l-64.592-73.326c-4.144-4.704-10.116-7.402-16.385-7.402h-106.975c-12.04.001-21.836 9.797-21.836 21.838v14.913c0 4.142 3.358 7.5 7.5 7.5s7.5-3.358 7.5-7.5v-14.913c0-3.77 3.067-6.836 6.836-6.836h106.975c1.963 0 3.833.845 5.13 2.317l75.848 86.103v124.801l-189.109-32.447c-3.291-.564-5.68-3.398-5.68-6.738v-117.111c0-4.142-3.358-7.5-7.5-7.5s-7.5 3.358-7.5 7.5v117.111c0 10.667 7.631 19.719 18.144 21.522l79.185 13.586-39.953 140.289c-.592 2.646-.25 5.875 2.832 8.142l37.825 27.269c4.971 3.583 10.888 5.421 16.841 5.421 4.015 0 8.047-.836 11.814-2.537l55.42-25.014c8.233-3.716 14.31-11.2 16.255-20.02l12.096-54.817 30.028 32.17c4.023 4.227 9.677 6.651 15.512 6.651s11.489-2.424 15.512-6.651l30.028-32.17 12.097 54.822c.023.106.055.208.079.314 2.021 8.681 8.042 16.031 16.175 19.701l55.42 25.014c3.767 1.701 7.798 2.537 11.814 2.537 5.953 0 11.871-1.838 16.841-5.421l37.826-27.269c1.974-1.425 3.902-4.75 2.832-8.142l-32.408-113.796c-1.135-3.984-5.285-6.292-9.268-5.159-3.984 1.135-6.293 5.284-5.159 9.268l25.656 90.087-121.618-103.043 182.03-31.231c10.513-1.804 18.144-10.856 18.144-21.523v-167.2c0-12.041-9.796-21.837-21.836-21.837zm-265.375 63.672c0-2.206 1.794-4 4-4h19.711v44.849c0 4.142 3.358 7.5 7.5 7.5s7.5-3.358 7.5-7.5v-44.849h19.711c2.206 0 4 1.794 4 4v199.688h-23.711v-123.021c0-4.142-3.358-7.5-7.5-7.5s-7.5 3.358-7.5 7.5v123.021h-23.711zm-41.072 290.785c-.936 4.226-3.844 7.809-7.782 9.585l-55.422 25.011c-4.473 2.021-9.725 1.493-13.707-1.379l-30.047-21.659 128.415-108.801zm16.457-112.666-121.619 103.043 33.645-118.137zm87.037 55.007-26.564 27.908c-1.223 1.285-2.873 1.993-4.647 1.993s-3.424-.708-4.647-1.993l-26.564-27.908v-18.438h62.423v18.438zm19.615-39.584 128.415 108.801-30.048 21.66c-3.98 2.871-9.231 3.399-13.708 1.377l-55.421-25.011c-3.937-1.775-6.845-5.358-7.78-9.579zm190.174-68.177c0 3.34-2.389 6.174-5.68 6.738l-189.108 32.446v-124.801l75.847-86.102c1.298-1.473 3.167-2.318 5.13-2.318h106.975c3.77 0 6.836 3.067 6.836 6.836z"/></g></svg>