<svg id="Capa_1" enable-background="new 0 0 511.913 511.913" height="512" viewBox="0 0 511.913 511.913" width="512" xmlns="http://www.w3.org/2000/svg"><g><g><path d="m254.89 141.774v97.729l-206.659 29.553-39.057-110.606c-3.616-10.231-1.202-21.634 6.262-29.513l57.207-60.5c2.717-2.848 5.959-5.06 9.474-6.575 4.808-2.06 10.151-2.808 15.463-2.05l108.809 15.534c7.333 1.04 13.807 5.343 17.625 11.696z" fill="#db4655"/><path d="m224.014 87.042c-3.818-6.353-10.292-10.656-17.625-11.696l-108.808-15.534c-4.978-.71-9.976-.083-14.542 1.692l96.958 13.842c7.333 1.04 13.807 5.343 17.625 11.696l30.876 54.733v97.729l-181.534 25.96 1.269 3.593 206.659-29.553v-97.729z" fill="#bd4150"/><path d="m502.869 155.652-39.057 110.617-208.922-26.766v-97.729l33.128-57.53c3.818-6.353 10.292-10.646 17.635-11.696l108.799-15.524c5.323-.758 10.676-.01 15.473 2.06 3.565 1.525 6.838 3.788 9.585 6.686l57.096 60.369c7.455 7.888 9.879 19.281 6.263 29.513z" fill="#db4655"/><path d="m502.871 155.652-38.63 109.41-.43 1.21-6.85-.88-20.1-2.57-181.97-23.32v-97.73l33.13-57.53c3.82-6.35 10.29-10.64 17.63-11.69l100.01-14.27 8.79-1.26c5.32-.76 10.68-.01 15.48 2.06 3.56 1.53 6.83 3.79 9.58 6.69l57.1 60.37c7.45 7.89 9.869 19.28 6.26 29.51z" fill="#db4655"/><path d="m502.871 155.652-38.63 109.41-7.28.33-19.54.88-.56-3.45-33.33-203.74c.4.17 1.13-.14 2.13-.8l8.79-1.26c5.32-.76 10.68-.01 15.48 2.06 3.56 1.53 6.83 3.79 9.58 6.69l57.1 60.37c7.45 7.89 9.869 19.28 6.26 29.51z" fill="#bd4150"/><path d="m234.099 447.189-185.87-178.129 206.66-127.288 208.921 124.494-189.639 180.966c-11.219 10.705-28.876 10.686-40.072-.043z" fill="#ff8086"/><path d="m254.889 141.772-12.978 7.994 195.506 116.5-178.136 167.639c-9.672 9.229-24.126 10.48-35.102 3.777l9.92 9.507c11.196 10.729 28.853 10.748 40.071.043l189.639-180.966z" fill="#e5646e"/><path d="m82.117 61.862-33.886 207.194-39.057-110.606c-3.616-10.231-1.202-21.634 6.262-29.513l57.207-60.5c2.717-2.848 5.96-5.06 9.474-6.575z" fill="#ff9a9f"/><path d="m502.869 155.652-39.057 110.617-33.886-207.184c3.565 1.525 6.838 3.788 9.585 6.686l57.096 60.369c7.454 7.887 9.878 19.28 6.262 29.512z" fill="#ff9a9f"/><path d="m496.607 126.139-57.096-60.369c-2.747-2.899-6.02-5.161-9.585-6.686l4.837 29.572 35.451 37.483c7.454 7.888 9.878 19.281 6.262 29.512l-21.019 59.531 8.355 51.086 39.057-110.617c3.616-10.23 1.192-21.624-6.262-29.512z" fill="#ff8086"/></g><path d="m502.056 120.986-57.102-60.375c-7.01-7.734-19.743-12.766-31.562-11.012l-17.511 2.499c-4.101.585-6.95 4.384-6.365 8.484s4.377 6.948 8.484 6.365l17.508-2.498c2.596-.369 5.218-.248 7.749.328l30.552 186.799-188.732-112.463 29.402-51.06c2.67-4.406 7.126-7.35 12.233-8.08l55.408-7.906c4.101-.585 6.95-4.384 6.365-8.484-.586-4.101-4.382-6.952-8.484-6.365l-55.41 7.906c-9.617 1.375-18.001 6.937-23.002 15.256-.023.04-.048.081-.07.121l-26.562 46.127-24.411-43.272c-.034-.06-.068-.119-.104-.178-5.009-8.334-13.392-13.896-22.993-15.257l-108.81-15.534c-6.605-.942-13.339-.049-19.49 2.588-4.54 1.957-8.555 4.745-11.955 8.31 0 0-58.358 61.757-58.898 62.412-8.098 9.827-10.487 23.104-6.194 35.25l39.057 110.606c.3.608.557 1.619 1.88 2.922l185.87 178.128c13.433 12.865 35.861 13.931 50.439.054l189.586-180.916c.752-.851 1.246-1.2 1.949-2.976l39.058-110.617c4.274-10.921 1.581-27.859-7.885-37.162zm-10.901 10.305c4.372 4.062 7.549 14.208 4.642 21.864l-29.31 83.009-25.896-158.336zm-394.634-64.055 108.816 15.535c5.083.721 9.525 3.654 12.2 8.052l27.274 48.347-186.527 114.889 30.501-186.497c2.53-.574 5.149-.695 7.736-.326zm-75.635 66.854 50.565-53.475-25.896 158.337-29.31-83.002c-2.693-7.62-.917-15.994 4.641-21.86zm248.107 307.716c-1.977 1.886-4.223 3.309-6.604 4.299v-227.949c0-4.142-3.357-7.5-7.5-7.5s-7.5 3.358-7.5 7.5v228.489c-2.939-.977-5.717-2.586-8.102-4.871l-178.864-171.416 186.967-115.159v26.813c0 4.142 3.358 7.5 7.5 7.5s7.5-3.358 7.5-7.5v-27.04l189.1 112.684z"/></g></svg>