<svg id="Capa_1" enable-background="new 0 0 512 512" height="512" viewBox="0 0 512 512" width="512" xmlns="http://www.w3.org/2000/svg"><g><g><path d="m269.33 504.5h-27.372c-3.28 0-5.939-2.659-5.939-5.939v-210.991h39.251v210.99c0 3.281-2.66 5.94-5.94 5.94z" fill="#ffe09f"/><path d="m249.969 287.57v210.99c0 3.28-2.659 5.939-5.939 5.939h25.301c3.28 0 5.939-2.659 5.939-5.939v-210.99z" fill="#f6d190"/><path d="m431.6 20.599-175.6 193.922-73.325-66.386c-9.927-8.994-10.694-24.337-1.7-34.274l75.025-82.85 13.299-14.685c4.561-5.042 11.028-7.932 17.83-7.981l138.614-.845c6.819-.041 10.435 8.044 5.857 13.099z" fill="#b8daff"/><path d="m425.743 7.5-25.349.155c5.781 1.084 8.52 8.29 4.306 12.944l-163.482 180.539 14.782 13.383 175.6-193.922c4.578-5.056.962-13.141-5.857-13.099z" fill="#a4ccff"/><path d="m256 31.011v183.51l-73.325-66.386c-9.927-8.994-10.694-24.337-1.7-34.274z" fill="#ff8086"/><path d="m234.988 54.215v141.282l21.012 19.024v-183.51z" fill="#e5646e"/><path d="m449.922 390.121-193.922-175.6 66.396-73.315c8.994-9.937 24.337-10.694 34.264-1.701l81.415 73.709 16.13 14.606c5.033 4.561 7.932 11.038 7.972 17.84l.845 138.604c.04 6.819-8.045 10.435-13.1 5.857z" fill="#b8daff"/><path d="m462.176 245.659c-.039-6.802-2.939-13.279-7.971-17.84l-16.129-14.606-81.415-73.709c-8.41-7.619-20.704-8.238-29.734-2.209.983.657 1.931 1.391 2.834 2.209l81.415 73.709 16.13 14.606c5.032 4.561 7.932 11.038 7.971 17.84l.804 131.927 13.843 12.535c5.055 4.578 13.14.962 13.099-5.858z" fill="#a4ccff"/><path d="m438.07 213.21-26.69.19-155.38 1.12 66.4-73.31c1.38-1.52 2.9-2.82 4.53-3.91h.01c9.02-6.03 21.31-5.41 29.72 2.2z" fill="#ff8086"/><path d="m438.07 213.21-26.69.19-.21-.19-81.41-73.71c-.9-.81-1.84-1.54-2.82-2.2 9.02-6.03 21.31-5.41 29.72 2.2z" fill="#e5646e"/><path d="m331.026 315.191-75.645 83.538-12.67 13.997c-4.571 5.042-11.038 7.932-17.84 7.971l-138.613.853c-6.82.042-10.436-8.043-5.858-13.098l175.6-193.931 73.325 66.396c9.928 8.993 10.694 24.337 1.701 34.274z" fill="#b8daff"/><path d="m331.03 315.19-75.65 83.54-12.67 14c-4.57 5.04-11.04 7.93-17.84 7.97l-19.43.12c3.97-2.03 7.67-5.11 10.37-8.09l12.67-14 75.64-83.54c9-9.94 8.23-25.28-1.7-34.27l-58.54-53.01 12.12-13.39 73.33 66.4c9.92 8.99 10.69 24.33 1.7 34.27z" fill="#a4ccff"/><path d="m331.03 315.19-75.65 83.54.1-29.82.44-130.1.08-24.29 73.33 66.4c9.92 8.99 10.69 24.33 1.7 34.27z" fill="#ff8086"/><path d="m331.03 315.19-75.65 83.54.1-29.82 48.64-53.72c9-9.94 8.23-25.28-1.7-34.27l-46.5-42.11-12.04-10.9 12.12-13.39 73.33 66.4c9.92 8.99 10.69 24.33 1.7 34.27z" fill="#e5646e"/><path d="m256 214.521-66.396 73.325c-8.994 9.937-24.337 10.694-34.264 1.7l-82.86-75.026-14.675-13.289c-5.042-4.57-7.942-11.038-7.981-17.84l-.845-138.604c-.042-6.819 8.043-10.435 13.098-5.858z" fill="#b8daff"/><path d="m62.078 38.93c-5.055-4.577-13.14-.962-13.098 5.858l.138 22.654c1.036-5.833 8.286-8.612 12.96-4.379l167.022 151.459-66.396 73.325c-1.375 1.519-2.9 2.822-4.53 3.91 9.832 6.569 23.254 5.124 31.43-3.91l66.396-73.326z" fill="#a4ccff"/><path d="m256 214.52-66.4 73.33c-8.17 9.03-21.6 10.48-31.43 3.91-.98-.66-1.93-1.39-2.83-2.21l-82.86-75.03z" fill="#ff8086"/><path d="m256 214.52-66.4 73.33c-8.17 9.03-21.6 10.48-31.43 3.91 1.63-1.09 3.16-2.39 4.53-3.91l66.4-73.33z" fill="#e5646e"/></g><path d="m469.676 245.617c-.051-8.879-3.854-17.392-10.438-23.356l-16.109-14.585c-.008-.007-.013-.015-.021-.022l-81.413-73.708c-11.622-11.03-33.364-11.078-44.859 2.225l-53.336 58.895v-161.163l11.361-12.546c3.138-3.469 7.629-5.479 12.313-5.512l138.615-.845c.133-.002.22-.001.31.2.091.202.041.256-.058.365l-74.896 82.71c-2.78 3.07-2.545 7.813.525 10.594 3.069 2.779 7.813 2.545 10.594-.525l74.896-82.711c4.144-4.576 5.152-10.92 2.632-16.557-2.521-5.636-7.915-9.066-14.095-9.076l-138.623.845c-8.883.064-17.39 3.874-23.335 10.447l-88.325 97.537c-4.125 4.558-6.673 9.997-7.688 15.645l-100.615-91.104c-4.577-4.144-10.922-5.152-16.557-2.631-5.636 2.521-9.113 7.921-9.075 14.095l.845 138.602c.051 8.873 3.858 17.385 10.447 23.356l97.533 88.314c3.509 3.127 8.761 6.452 15.625 7.715l-91.088 100.596c-4.144 4.577-5.153 10.92-2.633 16.557 2.508 5.606 7.863 9.076 13.996 9.076h.1l138.611-.854c8.877-.052 17.389-3.855 23.356-10.438l19.498-21.534v100.776h-24.25v-42.682c0-4.142-3.357-7.5-7.5-7.5s-7.5 3.358-7.5 7.5v44.242c0 7.411 6.029 13.439 13.439 13.439h27.372c7.41 0 13.438-6.029 13.438-13.439v-118.901l53.815-59.434s.001-.001.001-.001c4.127-4.559 6.674-10 7.689-15.649l100.612 91.106c3.698 3.077 10.158 5.595 16.558 2.632 5.636-2.521 9.113-7.921 9.075-14.095zm-130.127-104.87c3.899-.017 8.221.76 12.078 4.318l67.139 60.787-145.744 1.046 54.933-60.658c2.136-2.339 6.455-5.101 11.594-5.493zm-14.083 169.41-62.52 69.043.497-147.821 60.872 55.121c6.825 6.21 7.344 16.813 1.151 23.657zm-138.932-191.262 61.966-68.428v147.145l-60.875-55.121c-6.765-6.217-7.265-16.775-1.091-23.596zm-129.21 64.451-.845-138.605c-.001-.146-.002-.22.199-.31.074-.033.128-.047.173-.047.076 0 .124.042.192.105l179.497 162.532h-33.712c-4.143 0-7.5 3.358-7.5 7.5s3.357 7.5 7.5 7.5h36.262l-55.047 60.792c-5.208 5.824-16.265 7.903-23.67 1.174l-68.436-61.966h75.302c4.143 0 7.5-3.358 7.5-7.5s-3.357-7.5-7.5-7.5h-91.866l-12.531-11.346c-3.48-3.154-5.491-7.647-5.518-12.329zm179.83 224.342c-3.148 3.474-7.642 5.481-12.329 5.508l-138.613.854c-.152-.004-.222.001-.311-.2-.09-.201-.04-.255.059-.364l162.474-179.436-.544 161.781zm218.167-23.068c-.203.092-.256.041-.365-.058l-179.652-162.679 159.9-1.148 13.964 12.643c3.474 3.147 5.481 7.64 5.508 12.328l.845 138.604c0 .146.001.22-.2.31z"/></g></svg>