<svg id="Capa_1" enable-background="new 0 0 512.039 512.039" height="512" viewBox="0 0 512.039 512.039" width="512" xmlns="http://www.w3.org/2000/svg"><g><g><path d="m446.069 390.046-31.94 47.75h-290.61c-15.29 0-25.93-15.22-20.67-29.59l71.89-196.49h109.01z" fill="#8d9ca8"/><path d="m418.269 390.046-31.94 47.75h-244.54l78.55-226.08h35.61z" fill="#7a8c98"/><path d="m504.539 334.626v88.088c0 8.078-2.572 15.946-7.344 22.464l-26.391 36.047c-7.162 9.782-18.559 15.564-30.683 15.564h-65.452l84.741-126.684 27.343-40.878c5.338-7.982 17.786-4.203 17.786 5.399z" fill="#edf4ff"/><path d="m486.753 329.226-10.018 14.977v78.511c0 8.078-2.572 15.946-7.344 22.464l-26.391 36.047c-7.162 9.782-18.559 15.564-30.683 15.564h27.804c12.124 0 23.521-5.781 30.683-15.564l26.391-36.047c4.772-6.518 7.344-14.386 7.344-22.464v-88.088c0-9.602-12.448-13.381-17.786-5.4z" fill="#dbeaff"/><path d="m446.072 390.049-71.403 106.74h-194.616c-15.146 0-25.769-14.937-20.798-29.244l88.883-255.824h35.614z" fill="#b6c4cf"/><path d="m283.753 211.721h-27.804l162.319 178.328-71.403 106.74h27.804l71.403-106.74z" fill="#9facba"/><path d="m111.385 106.161-15.77-43.906-68.853-44.938c-9.032-5.895-20.77 1.73-19.055 12.379l21.569 133.942z" fill="#edf4ff"/><g><path d="m14.954 27.642 52.856 34.613 37.534 27.091-9.73-27.091-68.852-44.938c-7.822-5.105-17.666-.069-19.052 8.288 2.411-.097 4.917.518 7.244 2.037z" fill="#dbeaff"/></g><path d="m254.544 106.161 15.77-43.906 68.852-44.939c9.032-5.895 20.77 1.73 19.055 12.379l-21.569 133.942z" fill="#edf4ff"/><path d="m339.166 17.317-13.875 9.056c3.635 2.548 5.956 6.985 5.126 12.134l-17.477 108.532 23.712 16.598 21.569-133.942c1.715-10.648-10.023-18.273-19.055-12.378z" fill="#dbeaff"/><path d="m245.895 265.019h-125.862c-15.237 0-29.446-7.683-37.789-20.433l-52.969-80.949 66.34-101.381h174.699l66.339 101.382-52.969 80.949c-8.343 12.749-22.552 20.432-37.789 20.432z" fill="#b6c4cf"/><path d="m270.314 62.256h-27.804l66.339 101.382-52.969 80.949c-8.343 12.75-22.552 20.433-37.789 20.433h27.804c15.237 0 29.446-7.683 37.789-20.433l52.969-80.949z" fill="#9facba"/></g><path d="m499.826 318.156c-7.304-2.217-15.063.556-19.307 6.9l-109.857 164.23h-190.614c-4.757 0-9.066-2.223-11.823-6.099-2.758-3.878-3.444-8.682-1.882-13.18l68.608-197.488h10.943c17.83 0 34.303-8.907 44.065-23.827l7.237-11.06 119.247 131.008c1.48 1.626 3.51 2.452 5.548 2.452 1.802 0 3.609-.646 5.046-1.954 3.063-2.788 3.286-7.532.498-10.595l-121.855-133.875 37.248-56.924c.3-.749.219.221 1.129-2.914l21.569-133.942c1.272-7.9-2.106-15.516-8.816-19.875s-15.042-4.349-21.743.023l-38.882 25.377c-3.469 2.264-4.445 6.911-2.182 10.38 2.265 3.469 6.912 4.444 10.38 2.182l38.882-25.377c2.424-1.582 4.564-.531 5.373-.006.808.525 2.639 2.055 2.178 4.912l-18.49 114.825-55.737-85.179c-1.386-2.118-3.746-3.394-6.276-3.394h-172.467l-66.984-43.72c-13.196-9.303-33.586 2.871-30.56 19.852l21.569 133.942c.288 1.017-.046.671 1.129 2.914l52.969 80.949c9.762 14.919 26.235 23.827 44.064 23.827h24.474l-14.761 40.345c-1.423 3.89.577 8.197 4.466 9.621.851.311 1.721.458 2.577.458 3.059 0 5.932-1.885 7.044-4.925l16.647-45.5h58.593l-54.813 157.777h-40.741c-4.804 0-9.139-2.26-11.893-6.201-2.755-3.943-3.387-8.794-1.733-13.312l21.651-59.177c1.423-3.89-.577-8.197-4.466-9.621-3.89-1.424-8.197.576-9.621 4.466l-21.651 59.176c-3.312 9.046-1.994 19.162 3.525 27.059 5.518 7.895 14.56 12.609 24.188 12.609h35.53l-6.875 19.789c-3.176 9.144-1.78 18.911 3.828 26.796 5.607 7.883 14.372 12.405 24.046 12.405l260.072.003c14.46 0 28.193-6.966 36.735-18.633l26.391-36.047c5.752-7.857 8.792-17.157 8.792-26.895v-88.088c.001-7.633-4.907-14.252-12.212-16.469zm-482.536-294.565c.809-.525 2.948-1.576 5.373.006l62.564 40.835-51.625 78.896-18.49-114.825c-.461-2.857 1.37-4.387 2.178-4.912zm71.23 216.889-50.282-76.842 61.432-93.882h166.588l61.431 93.882-50.281 76.842c-6.981 10.669-18.762 17.04-31.513 17.04h-16.012c-.042-.001-.083.001-.125 0h-39.293v-38.525l16.056-16.057c2.929-2.929 2.929-7.678 0-10.606-2.929-2.929-7.678-2.929-10.606 0l-12.95 12.95-12.95-12.95c-2.929-2.929-7.678-2.929-10.606 0-2.929 2.929-2.929 7.678 0 10.606l16.057 16.057v38.525h-55.431c-12.753-.001-24.533-6.371-31.515-17.04zm408.519 182.235c0 6.529-2.039 12.765-5.896 18.033l-26.391 36.047c-5.727 7.823-14.936 12.494-24.631 12.494h-51.412l104.278-155.893c.467-.809 3.326-2.061 4.052 1.23z"/></g></svg>