<svg id="Capa_1" enable-background="new 0 0 511.828 511.828" height="512" viewBox="0 0 511.828 511.828" width="512" xmlns="http://www.w3.org/2000/svg"><g><g><path d="m197.466 81.963 74.644 34.965c9.117 4.27 17.42 10.095 24.539 17.214l7.698 7.698c6.43 6.43 6.43 16.855 0 23.284l-22.728 22.728-93.059 93.059-22.775 22.775c-6.43 6.43-16.855 6.43-23.284 0l-7.698-7.698c-7.119-7.119-12.943-15.422-17.214-24.539l-34.965-74.644.345.186z" fill="#b8daff"/><g><path d="m82.909 196.96-.285-.154.14.299z" fill="#b8daff"/><path d="m304.347 141.841-7.698-7.698c-7.119-7.119-15.422-12.944-24.539-17.214l-74.644-34.965-19.826 19.918 74.581 34.936c9.117 4.271 17.42 10.095 24.539 17.214l7.698 7.698c6.43 6.43 6.43 16.854.001 23.284l19.888-19.888c6.43-6.431 6.43-16.855 0-23.285z" fill="#a4ccff"/></g><path d="m82.67 196.765-64.521-112.116c-4.106-7.134-2.914-16.136 2.906-21.956l42.342-42.343c5.82-5.82 14.822-7.012 21.956-2.906l112.117 64.522z" fill="#db4655"/><path d="m85.354 17.444c-7.134-4.106-16.136-2.914-21.956 2.906l-19.889 19.889c5.82-5.82 14.822-7.012 21.956-2.906l112.116 64.521-94.911 94.911 114.8-114.8z" fill="#bd4150"/><path d="m339.533 400.899 8.486 69.913c.743 6.125 3.518 11.824 7.881 16.187l14.364 14.364c4.905 4.905 13.306 1.951 14.062-4.944l17.279-157.592z" fill="#db4655"/><path d="m401.6 338.825-62.07 62.07-217.01-172.46-39.85-31.67 114.8-114.8 31.66 39.84z" fill="#edf4ff"/><path d="m229.13 121.805-31.66-39.84-19.889 19.889 31.661 39.84 172.469 217.02 19.889-19.889z" fill="#dbeaff"/><path d="m401.604 338.827 69.913 8.486c6.125.743 11.824 3.518 16.187 7.881l14.364 14.364c4.905 4.905 1.951 13.306-4.944 14.062l-157.592 17.279z" fill="#ff8086"/><path d="m502.068 369.558-14.364-14.364c-4.363-4.363-10.062-7.138-16.187-7.881l-69.913-8.486-19.889 19.889 69.913 8.486c6.125.743 11.824 3.518 16.187 7.881l10.59 10.59 18.718-2.052c6.897-.756 9.851-9.157 4.945-14.063z" fill="#e5646e"/><g><path d="m229.13 121.805v.01 86.51c0 11.1-9 20.11-20.11 20.11h-86.5l-39.85-31.67 114.8-114.8z" fill="#ff8086"/></g><path d="m197.47 81.965-19.889 19.889 31.66 39.84v.01 66.618c0 11.1-9 20.11-20.11 20.11l-.016.004h19.905c11.11 0 20.11-9.01 20.11-20.11v-86.51s0 0 0-.01z" fill="#e5646e"/></g><path d="m507.372 364.255-14.364-14.364c-5.522-5.523-12.834-9.083-20.587-10.023l-66.859-8.116-113.907-143.328 17.996-17.995c9.343-9.344 9.343-24.548 0-33.891l-7.698-7.698c-7.756-7.756-16.726-14.049-26.66-18.703l-74.366-34.835-88.34-50.839 10.925-10.924c2.929-2.929 2.929-7.678 0-10.606-2.928-2.929-7.677-2.929-10.606 0l-13.784 13.781-10.027-5.771c-10.052-5.785-22.8-4.098-31 4.103l-42.343 42.343c-8.201 8.201-9.888 20.948-4.104 31l5.771 10.028-15.222 15.223c-2.929 2.929-2.929 7.678 0 10.606 1.464 1.464 3.384 2.197 5.303 2.197s3.839-.732 5.303-2.197l12.364-12.364 50.591 87.909c.028.065.044.132.074.197l34.965 74.644c4.653 9.934 10.945 18.903 18.703 26.661l7.698 7.698c4.672 4.672 10.809 7.008 16.945 7.008s12.274-2.336 16.946-7.008l18.039-18.04 143.327 113.906 8.119 66.859c.937 7.747 4.496 15.057 10.021 20.582l14.367 14.377c7.739 8.64 25.533 4.148 26.824-9.442l7.274-66.381c.451-4.117-2.521-7.821-6.639-8.272-4.123-.447-7.821 2.521-8.272 6.639l-7.274 66.377c-.043-.086-.308 1.133-1.31.47l-14.362-14.372c-3.164-3.165-5.202-7.347-5.738-11.781l-7.575-62.383 150.051-16.452c12.135-.966 18.888-17.245 9.431-26.823zm-363.366-128.324h65.015c15.224 0 27.61-12.386 27.61-27.609v-65.025l44.444 55.924v68.545c0 6.953-5.657 12.609-12.61 12.609h-68.535zm52.823-142.718 24.803 31.209v83.899c0 6.953-5.657 12.609-12.61 12.609h-83.89l-31.214-24.807zm71.636 202.162c15.224 0 27.61-12.386 27.61-27.609v-49.67l44.437 55.915v53.193c0 6.953-5.657 12.609-12.609 12.609h-53.183l-55.916-44.438zm59.438 59.437c15.224 0 27.609-12.386 27.609-27.609v-34.318l36.055 45.367-52.61 52.61-45.361-36.05zm-36.557-215.366 7.698 7.698c3.495 3.495 3.495 9.183 0 12.678l-16.782 16.782-59.046-74.297 45.713 21.413c8.353 3.913 15.895 9.204 22.417 15.726zm-224.691-79.659c-2.929-2.929-7.678-2.929-10.606 0l-27.645 27.646-3.755-6.524c-2.409-4.187-1.707-9.497 1.709-12.913l42.343-42.343c3.803-2.702 6.441-4.544 12.912-1.708l6.524 3.754-6.89 6.89c-2.929 2.929-2.929 7.678 0 10.606 2.345 2.164 6.712 3.401 10.606 0l9.748-9.747 83.644 48.136-100.957 100.957-48.136-83.644 30.503-30.503c2.93-2.929 2.93-7.678 0-10.607zm93.828 238.596c-3.495 3.496-9.182 3.496-12.678 0l-7.698-7.698c-6.522-6.522-11.813-14.064-15.725-22.417l-21.472-45.839 74.4 59.127zm336.463 77.275c-.16.456-.472.49-.64.508l-136.388 14.953 44.407-44.407 66.288 8.046c4.439.539 8.625 2.577 11.788 5.739l14.364 14.364c.119.12.341.342.181.797z"/></g></svg>