<svg id="Capa_1" enable-background="new 0 0 511.997 511.997" height="512" viewBox="0 0 511.997 511.997" width="512" xmlns="http://www.w3.org/2000/svg"><g><g><path d="m255.998 133.14v223.94l-139.96-85.08-100.89-61.33c-12.35-7.51-9.09-26.27 5.07-29.18l139.18-28.54z" fill="#e2a975"/><path d="m255.998 133.14v223.94l-139.96-85.08 43.361-119.049z" fill="#d19a6e"/><path d="m255.998 133.145v223.933l240.846-146.404c12.355-7.51 9.096-26.275-5.068-29.179z" fill="#e2a975"/><path d="m491.777 181.494-235.779-48.35v6.779l202.722 41.571c14.164 2.905 17.423 21.669 5.068 29.179l-207.79 126.31v20.094l240.846-146.404c12.356-7.51 9.097-26.274-5.067-29.179z" fill="#d19a6e"/><path d="m416.151 500.463-160.15-86.524-160.15 86.524c-12.861 7.515-28.072-5.184-22.974-19.181l122.247-335.651 45.929-126.104c5.082-13.953 24.815-13.953 29.897 0l45.929 126.104 122.247 335.651c5.097 13.996-10.114 26.695-22.975 19.181z" fill="#ffe09f"/><g><path d="m439.125 481.282-122.247-335.651-45.928-126.104c-5.082-13.953-24.815-13.953-29.897 0l-1.58 4.337 44.349 121.767 122.247 335.651c1.749 4.803 1.106 9.454-1.012 13.187l11.094 5.994c12.861 7.514 28.072-5.185 22.974-19.181z" fill="#f6d190"/></g><path d="m316.878 145.631-60.877 268.308-60.877-268.308 45.929-126.104c5.082-13.953 24.815-13.953 29.897 0z" fill="#f6d190"/><path d="m270.95 19.527c-5.082-13.953-24.815-13.953-29.897 0l-4.781 13.128c4.631 1.234 8.765 4.529 10.722 9.904l36.828 103.072-44.349 195.462 16.528 72.846 60.877-268.308z" fill="#fbc56d"/></g><path d="m511.644 193.076c-1.657-9.55-8.862-16.981-18.359-18.933l-170.794-35.018-44.494-122.165c-6.559-19.599-36.386-20.79-43.992 0l-44.491 122.156-170.805 35.028c-9.494 1.951-16.699 9.383-18.356 18.933-1.657 9.547 2.622 18.968 10.9 24.003l122.7 74.592-68.123 187.044c-3.417 9.383-.672 19.581 6.994 25.981 7.207 5.741 16.991 7.534 26.692 2.311l156.486-84.544 156.485 84.543c8.602 4.961 19.063 4.059 26.692-2.31 7.666-6.4 10.411-16.598 6.994-25.981l-117.655-323.043 161.751 33.164c5.212 1.071 6.367 5.479 6.597 6.804.23 1.324.627 5.86-3.912 8.621l-96.836 58.866c-3.54 2.151-4.665 6.765-2.514 10.305 1.412 2.322 3.884 3.605 6.416 3.605 1.328 0 2.672-.353 3.889-1.092l96.838-58.867c8.276-5.034 12.555-14.456 10.897-24.003zm-263.146-171.922v40.089c0 4.142 3.358 7.5 7.5 7.5s7.5-3.358 7.5-7.5v-40.099c.158.279 45.53 124.873 45.577 124.98l-45.576 200.876v-251.127c0-4.142-3.358-7.5-7.5-7.5s-7.5 3.358-7.5 7.5v251.103l-45.572-200.852c-.001.001 45.428-124.675 45.571-124.97zm-229.452 183.108c-4.541-2.761-4.144-7.297-3.915-8.621.23-1.326 1.386-5.733 6.594-6.804l161.763-33.174-44.301 121.635zm73.24 289.602c-.074.04-.146.081-.219.123-4.732 2.765-8.568.083-9.631-.805s-4.387-4.185-2.512-9.333l113.525-311.703 53.978 237.901zm337.28-.682c-1.064.887-4.899 3.569-9.632.805-.071-.042-.145-.083-.218-.123l-155.142-83.817 53.979-237.901 113.525 311.702c1.876 5.149-1.448 8.446-2.512 9.334z"/></g></svg>