<svg id="Capa_1" enable-background="new 0 0 512.004 512.004" height="512" viewBox="0 0 512.004 512.004" width="512" xmlns="http://www.w3.org/2000/svg"><g><g><path d="m370.293 295.863 108.415-.833 25.48-83.208c1.887-6.222-5.251-11.251-10.475-7.381z" fill="#6e61b6"/><path d="m493.713 204.441-27.296 20.219c3.5.827 6.226 4.413 4.974 8.542l-18.183 61.828h25.5l25.48-83.208c1.887-6.222-5.25-11.251-10.475-7.381z" fill="#6354b1"/><path d="m198.279 105.755c-.21 2.25-.47 3.87-.59 4.56-.05.25-.08.38-.08.38l-77.13 376-21.6-19.03v-.01l-79.32-69.9c-12.14-10.7-15.54-28.25-8.26-42.71l106.32-266.75h.01l2.85-7.16 52.62 16.65z" fill="#978ecb"/><path d="m198.279 105.755c-.21 2.25-.47 3.87-.59 4.56-.05.25-.08.38-.08.38l-77.13 376-21.6-19.03v-.01l74.22-361.8v-8.07z" fill="#8379c1"/><path d="m478.708 295.03-51.68 169.74c-3.97 13.03-15.98 21.93-29.59 21.93h-276.96l48.443-236.192 197.527-37.318c2.8-.93 5.74-1.17 8.58-.74 3.3.49 6.47 1.87 9.12 4.07z" fill="#978ecb"/><path d="m384.148 216.52c-2.65-2.2-5.82-3.58-9.12-4.07-2.84-.43-5.78-.19-8.58.74l-9.842 1.859c.708.44 1.391.93 2.042 1.47l94.56 78.51-51.68 169.74c-3.97 13.03-15.98 21.93-29.59 21.93h25.5c13.61 0 25.62-8.9 29.59-21.93l51.68-169.74z" fill="#8379c1"/><path d="m375.028 212.45-69.89 168.66c-3.58 8.65-10.12 15.75-18.44 20.03l-166.22 85.56 48.443-236.192 197.527-37.318c2.8-.93 5.74-1.17 8.58-.74z" fill="#c2bce0"/><path d="m366.448 213.19-18.69 3.531-68.12 164.389c-3.58 8.65-10.12 15.75-18.44 20.03l-137.71 70.885-3.01 14.675 166.22-85.56c8.32-4.28 14.86-11.38 18.44-20.03l69.89-168.66c-2.84-.43-5.78-.19-8.58.74z" fill="#aca6d6"/><path d="m198.599 43.095v55.98c0 2.56-.14 4.83-.32 6.68l-25.18-7.97-52.62-16.65-10.57-55.04c1.16-.44 2.61-.79 4.28-.79h66.63c9.82 0 17.78 7.97 17.78 17.79z" fill="#c2bce0"/><path d="m198.599 43.095v55.98c0 2.56-.14 4.83-.32 6.68l-25.18-7.97v-54.69c0-9.82-7.96-17.79-17.78-17.79h25.5c9.82 0 17.78 7.97 17.78 17.79z" fill="#aca6d6"/><path d="m120.479 81.135h-63.94c-4 0-5.85-4.97-2.82-7.58l53.18-45.78v-.01l.03-.02c.2-.16 1.27-1 2.98-1.65z" fill="#f6d190"/><path d="m106.929 27.745c-.02.02-.03.03-.03.03v-.01z" fill="#c2bce0"/></g><path d="m505.937 198.216c-5.111-3.601-11.662-3.523-16.688.199l-60.865 45.085-39.444-32.75c-5.719-4.734-15.738-7.8-24.336-4.844l-159.917 30.212c-4.07.769-6.746 4.692-5.977 8.762.769 4.071 4.692 6.746 8.762 5.978l155.712-29.418-64.976 156.803c-2.897 6.999-8.203 12.763-14.943 16.23l-152.293 78.392 73.973-360.608c.585-3.023 1.104-7.627 1.153-13.18v-55.98c0-13.945-11.34-25.29-25.279-25.29h-66.631c-3.09-.045-9.057 1.359-12.428 4.498l-52.936 45.567c-3.78 3.256-5.101 8.382-3.364 13.059 1.738 4.68 6.087 7.704 11.079 7.704h52.871l-104.963 263.344c-8.605 17.435-4.456 38.527 10.153 51.403l100.921 88.94c1.225 1.034 2.86 1.865 4.957 1.878h276.96c17.025 0 31.8-10.949 36.765-27.246l19.494-64.026c1.206-3.962-1.027-8.153-4.99-9.359-3.963-1.205-8.153 1.027-9.359 4.99l-19.494 64.025c-3.027 9.938-12.035 16.616-22.415 16.616h-246.003l138.692-71.391c9.895-5.09 17.686-13.553 21.938-23.829l67.068-161.85c.072.057.151.101.222.16l90.725 75.325-20.298 66.665c-1.206 3.962 1.027 8.153 4.99 9.359 3.023.844 7.294-.207 9.359-4.99l47.233-154.652c1.815-5.985-.316-12.179-5.428-15.781zm-325.118-165.411c5.668 0 10.279 4.616 10.279 10.29v52.521l-64.097-20.284-8.167-42.527zm-75.983 6.642 6.566 34.188h-46.28zm-80.318 352.682c-9.581-8.444-12.263-22.307-6.521-33.711.098-.194.188-.393.268-.596l106.602-267.432 65.03 20.579-28.288 137.899c-.01.045-.025.088-.034.133l-45.844 223.516zm450.317-110.063-34.569-28.701 56.078-41.539z"/></g></svg>