<svg id="Capa_1" enable-background="new 0 0 512.009 512.009" height="512" viewBox="0 0 512.009 512.009" width="512" xmlns="http://www.w3.org/2000/svg"><g><g><path d="m311.662 300.244h-111.315l-37.107-187.868 44.985-24.953c4.367-2.422 9.278-3.693 14.272-3.693h69.26c5.215 0 10.335 1.386 14.838 4.016l42.174 24.631z" fill="#8d9ca8"/><path d="m306.595 87.746c-4.503-2.63-9.624-4.016-14.838-4.016h-26.137c5.214 0 10.335 1.386 14.838 4.016l42.174 24.631-37.107 187.868h26.137l37.107-187.868z" fill="#7a8c98"/><path d="m200.346 300.249h-104.299c-6.315 0-12.308-2.775-16.401-7.582l-67.243-78.968c-3.982-4.676-5.661-10.89-4.575-16.934l19.85-110.955 3.107-17.397c.784-4.414 3.349-8.135 6.878-10.468 2.534-1.679 5.571-2.655 8.799-2.655h45.341c4.113 0 8.085 1.498 11.182 4.213l60.254 52.873z" fill="#ff9a9f"/><path d="m200.346 300.249h-30.811l-141.857-214.439 3.107-17.397c.784-4.414 3.349-8.135 6.878-10.468 2.534-1.679 5.571-2.655 8.799-2.655h45.341c4.113 0 8.085 1.498 11.182 4.213l60.254 52.873z" fill="#ff8086"/><path d="m200.347 300.244 15.173 96.921h76.613l19.529-96.921z" fill="#8d9ca8"/><path d="m285.525 300.244-19.529 96.921h26.137l19.529-96.921z" fill="#7a8c98"/><path d="m409.204 362.404-25.29 34.763-41.52 52.179c-1.81 2.263-4.073 4.063-6.596 5.32l-19.951-57.499 87.988-41.269c4.072-1.911 8.024 2.865 5.369 6.506z" fill="#8d9ca8"/><path d="m403.834 355.897-30.924 14.504c1.334 1.403 1.788 3.639.383 5.565l-15.517 21.2-29.199 36.694 7.219 20.804c2.524-1.257 4.786-3.057 6.596-5.32l41.52-52.179 25.29-34.763c2.657-3.639-1.295-8.415-5.368-6.505z" fill="#7a8c98"/><path d="m383.914 397.166-41.52 52.179c-1.81 2.263-4.073 4.063-6.596 5.32-2.675 1.337-5.662 2.061-8.739 2.061h-57.589c-5.641 0-10.961-2.645-14.36-7.139l-39.59-52.421z" fill="#b6c4cf"/><path d="m357.777 397.166-41.52 52.179c-1.81 2.263-4.073 4.063-6.596 5.32-2.675 1.337-5.662 2.061-8.739 2.061h26.137c3.077 0 6.064-.724 8.739-2.061 2.524-1.257 4.786-3.057 6.596-5.32l41.52-52.179z" fill="#9facba"/><path d="m200.346 300.249-162.683-242.304c2.534-1.679 5.571-2.655 8.799-2.655h45.341c4.113 0 8.085 1.498 11.182 4.213l60.254 52.873z" fill="#b6c4cf"/><path d="m137.103 112.377 26.213 132.719 37.03 55.153-37.106-187.872-60.254-52.873c-3.097-2.715-7.069-4.213-11.182-4.213h-26.137c4.113 0 8.085 1.498 11.182 4.213z" fill="#9facba"/><path d="m311.663 300.249h104.299c6.315 0 12.308-2.775 16.401-7.582l67.243-78.968c3.982-4.676 5.661-10.89 4.575-16.934l-22.957-128.352c-.784-4.414-3.349-8.135-6.878-10.468-2.534-1.679-5.571-2.655-8.799-2.655h-45.341c-4.113 0-8.085 1.498-11.182 4.213l-60.254 52.873z" fill="#ff9a9f"/><path d="m504.181 196.765-22.957-128.352c-.784-4.414-3.349-8.135-6.878-10.468-2.534-1.679-5.571-2.655-8.799-2.655h-26.137c3.228 0 6.265.975 8.799 2.655 3.53 2.333 6.094 6.054 6.878 10.468l22.957 128.352c1.086 6.044-.593 12.258-4.575 16.934l-67.243 78.968c-4.092 4.807-10.086 7.582-16.401 7.582h26.137c6.315 0 12.308-2.775 16.401-7.582l67.243-78.968c3.982-4.676 5.661-10.891 4.575-16.934z" fill="#ff8086"/><path d="m311.663 300.249 162.682-242.304c-2.534-1.679-5.571-2.655-8.799-2.655h-45.341c-4.113 0-8.085 1.498-11.182 4.213l-60.254 52.873z" fill="#b6c4cf"/><path d="m465.547 55.29h-26.137c3.228 0 6.265.975 8.799 2.655l-125.653 187.151-10.893 55.153 162.682-242.304c-2.534-1.679-5.57-2.655-8.798-2.655z" fill="#9facba"/></g><path d="m511.563 195.445-10.402-58.161c-.73-4.078-4.63-6.793-8.703-6.063-4.077.729-6.792 4.626-6.063 8.703l10.403 58.167c.691 3.85-.366 7.766-2.903 10.745l-67.243 78.968c-2.676 3.143-6.572 4.945-10.69 4.945h-90.23l148.45-221.106 5.988 33.477c.729 4.078 4.632 6.79 8.703 6.063 4.077-.729 6.792-4.626 6.063-8.703l-6.327-35.378c-1.845-10.354-11.16-19.147-23.062-19.312h-45.342c-5.932 0-11.659 2.157-16.128 6.076l-56.192 49.308-37.508-21.905c-5.645-3.296-12.083-5.039-18.62-5.039h-69.26c-6.25 0-12.443 1.603-17.91 4.634l-40.369 22.393-56.288-49.394c-4.468-3.917-10.194-6.073-16.126-6.073h-45.342c-9.884-.297-21.259 7.935-23.06 19.303l-22.956 128.345c-1.489 8.286.788 16.714 6.247 23.123l67.243 78.968c5.53 6.495 13.589 10.22 22.11 10.22h65.049c4.143 0 7.5-3.358 7.5-7.5s-3.357-7.5-7.5-7.5h-65.048c-4.118 0-8.015-1.802-10.69-4.945l-67.243-78.969c-2.537-2.978-3.595-6.895-2.902-10.75l22.615-126.442 155.369 231.411 14.914 95.27c.238.978.294 1.756 1.425 3.362l39.593 52.425c4.791 6.334 12.395 10.116 20.342 10.116h57.59c7.102-.032 15.74-3.299 21.204-10.211l67.001-87.192c3.24-4.443 3.067-10.279-.433-14.522-3.501-4.247-9.201-5.53-14.182-3.193l-86.474 40.559-92.239-.001-12.823-81.92h93.386l-10.638 52.791c-.818 4.061 1.811 8.016 5.871 8.833 4.058.819 8.015-1.81 8.834-5.871l11.233-55.749h98.161c8.521 0 16.58-3.725 22.11-10.22l67.243-78.967c5.46-6.411 7.738-14.84 6.249-23.119zm-97.595-130.302c1.73-1.517 3.945-2.353 6.237-2.353h41.854l-135.8 202.265 29.373-148.723zm-364.018-2.353h41.854c2.022.177 3.075.164 6.235 2.351l58.338 51.191 29.373 148.723zm219.519 386.437c-3.274 0-6.405-1.557-8.374-4.16l-30.513-40.401h137.779l-31.825 39.996c-1.494 1.139-2.25 3.798-9.478 4.565zm126.474-81.344-15.848 21.784h-30.597zm-189.432-75.139-34.854-176.46 40.205-22.302c3.246-1.8 6.924-2.752 10.635-2.752h69.26c3.881 0 7.704 1.035 11.056 2.992l37.563 21.938-34.877 176.584z"/></g></svg>