<svg id="Capa_1" enable-background="new 0 0 511.985 511.985" height="512" viewBox="0 0 511.985 511.985" width="512" xmlns="http://www.w3.org/2000/svg"><g><g><path d="m329.582 7.502v391.71c0 5.21-4.23 9.44-9.45 9.44h-266.579c-9.75 0-17.64-7.9-17.64-17.64v-365.87c0-9.74 7.89-17.64 17.64-17.64z" fill="#8bb3ea"/><path d="m297.201 7.502-192.839 114.63c-9.72 5.78-15.68 16.25-15.68 27.56v258.96h199.128c-.018 0-.036.003-.054.003h32.38c5.216 0 9.445-4.229 9.445-9.445v-391.708z" fill="#739ad6"/><path d="m329.582 7.502v395.29c0 3.59-2.04 6.87-5.26 8.46l-186.04 92c-7.93 3.92-17.22-1.85-17.22-10.7v-342.86c0-11.31 5.96-21.78 15.68-27.56z" fill="#edf4ff"/><path d="m297.201 26.75v376.039c0 3.593-2.038 6.874-5.258 8.466l-170.503 84.312c1.814 7.068 9.854 11.139 16.842 7.684l186.041-91.995c3.22-1.592 5.258-4.874 5.258-8.466v-395.288z" fill="#dbeaff"/><path d="m329.582 238.062-1.44 1.44h1.44v33h-1.43l1.43 1.43v46.68l-52.94-52.94c-4.43-4.43-6.08-11.12-3.83-17.35.84-2.34 2.27-4.43 4.03-6.18l52.74-52.75z" fill="#dbeaff"/><path d="m465.684 239.503h-113.891l33.593-33.593c4.057-4.057 4.057-10.635 0-14.692l-8.643-8.643c-4.057-4.057-10.635-4.057-14.692 0l-61.562 61.562c-1.758 1.758-3.189 3.842-4.031 6.181-2.245 6.238-.594 12.923 3.834 17.351l61.759 61.759c4.057 4.057 10.635 4.057 14.692 0l8.642-8.643c4.057-4.057 4.057-10.635 0-14.692l-33.592-33.591h113.89c5.738 0 10.389-4.651 10.389-10.389v-12.223c.001-5.736-4.651-10.387-10.388-10.387z" fill="#ff8086"/><g fill="#e5646e"><path d="m360.006 191.218c4.057 4.057 4.057 10.635 0 14.692l-33.593 33.593h25.38l33.593-33.593c4.057-4.057 4.057-10.635 0-14.692l-8.643-8.643c-4.057-4.057-10.635-4.057-14.692 0l-5.344 5.344z"/><path d="m465.684 239.503h-25.38c5.737 0 10.389 4.651 10.389 10.389v12.223c0 5.737-4.651 10.389-10.389 10.389h25.38c5.738 0 10.389-4.651 10.389-10.389v-12.223c0-5.738-4.652-10.389-10.389-10.389z"/><path d="m351.794 272.503h-25.38l33.591 33.591c4.057 4.057 4.057 10.635 0 14.692l-3.299 3.299 5.344 5.344c4.057 4.057 10.635 4.057 14.692 0l8.642-8.643c4.057-4.057 4.057-10.635 0-14.692z"/></g></g><path d="m465.684 232.003h-95.784l20.79-20.79c6.169-6.008 7.402-18.02 0-25.298l-8.643-8.644c-6.976-6.974-18.324-6.974-25.298 0l-61.563 61.563c-2.659 2.66-4.604 5.669-5.783 8.943-3.153 8.759-.96 18.648 5.587 25.195l27.093 27.093v99.146c0 .617-.001 2.958-.001 3.577 0 .745-.415 1.414-1.083 1.744l-186.041 91.996c-2.233.856-5.447.676-6.397-3.973v-342.86c0-8.619 4.603-16.71 12.012-21.114l181.51-107.896v154.848c0 4.142 3.358 7.5 7.5 7.5s7.5-3.358 7.5-7.5v-168.031c.05-3.828-3.313-7.604-7.5-7.5h-276.03c-13.862 0-25.14 11.278-25.14 25.14v365.87c0 13.862 11.278 25.14 25.14 25.14h31.78c4.142 0 7.5-3.358 7.5-7.5s-3.358-7.5-7.5-7.5h-31.78c-5.591 0-10.14-4.549-10.14-10.14v-365.87c0-5.591 4.549-10.14 10.14-10.14h248.734l-169.379 100.685c-11.934 7.094-19.348 20.125-19.348 34.008v342.86c.087 13.096 14.031 24.093 28.046 17.419l186.041-91.996c5.819-2.877 9.434-8.698 9.434-15.189 0-.617.001-2.958.001-3.577v-84.146l19.666 19.666c3.487 3.487 8.068 5.231 12.649 5.231s9.162-1.744 12.649-5.231l8.643-8.643c6.974-6.975 6.974-18.323-.001-25.298l-20.788-20.788h95.783c9.864 0 17.889-8.025 17.889-17.889v-12.223c.001-9.863-8.024-17.888-17.888-17.888zm2.889 30.111c0 1.593-1.296 2.889-2.889 2.889h-113.89c-3.034 0-5.768 1.827-6.929 4.63s-.519 6.028 1.626 8.173l33.591 33.591c1.126 1.126 1.126 2.959 0 4.085l-8.643 8.643c-1.127 1.126-2.959 1.126-4.085 0l-61.759-61.759c-2.496-2.496-3.293-6.138-2.081-9.507.419-1.166 1.207-2.348 2.277-3.418l61.562-61.562c.563-.563 1.303-.845 2.043-.845s1.479.281 2.042.844l8.643 8.644c.115.908 1.733.315 0 4.085l-33.591 33.593c-2.145 2.145-2.787 5.371-1.626 8.173 1.161 2.803 3.896 4.63 6.929 4.63h113.891c1.593 0 2.889 1.296 2.889 2.889z"/></g></svg>