<svg id="Capa_1" enable-background="new 0 0 512.003 512.003" height="512" viewBox="0 0 512.003 512.003" width="512" xmlns="http://www.w3.org/2000/svg"><g><g><path d="m182.41 103.35 191.3-94.596c7.931-3.922 17.222 1.849 17.222 10.696v342.86c0 11.309-5.958 21.782-15.679 27.561l-178.57 106.148c-6.296 3.743-14.271-.795-14.271-8.119v-384.55z" fill="#8bb3ea"/><path d="m373.71 8.754-19.406 9.596c3.484 2.018 5.961 5.759 5.961 10.324v333.636c0 11.309-5.958 21.782-15.679 27.561l-162.176 96.402v1.627c0 7.324 7.975 11.861 14.271 8.119l178.57-106.148c9.721-5.779 15.679-16.252 15.679-27.561v-342.86c.001-8.847-9.29-14.618-17.22-10.696z" fill="#739ad6"/><path d="m182.41 103.35h276.03c9.744 0 17.643 7.899 17.643 17.643v365.866c0 9.744-7.899 17.643-17.643 17.643h-266.585c-5.216 0-9.445-4.229-9.445-9.445z" fill="#edf4ff"/><path d="m458.44 103.35h-30.667c9.744 0 17.643 7.899 17.643 17.643v365.866c0 9.744-7.899 17.643-17.643 17.643h30.667c9.744 0 17.643-7.899 17.643-17.643v-365.866c0-9.744-7.899-17.643-17.643-17.643z" fill="#dbeaff"/><path d="m46.308 272.501h113.891l-33.593 33.593c-4.057 4.057-4.057 10.635 0 14.692l8.643 8.643c4.057 4.057 10.635 4.057 14.692 0l61.562-61.562c1.758-1.758 3.189-3.842 4.031-6.181 2.245-6.238.594-12.923-3.834-17.351l-61.759-61.759c-4.057-4.057-10.635-4.057-14.692 0l-8.642 8.643c-4.057 4.057-4.057 10.635 0 14.692l33.592 33.591h-113.891c-5.738 0-10.389 4.651-10.389 10.389v12.223c0 5.736 4.651 10.387 10.389 10.387z" fill="#ff8086"/><path d="m211.699 244.335-61.759-61.759c-4.057-4.057-10.635-4.057-14.692 0l-7.151 7.151c2.942-.247 5.968.75 8.219 3.001l51.716 51.606c4.428 4.428 6.079 11.113 3.834 17.351-.842 2.339-2.273 4.423-4.031 6.181l-49.483 49.366c-3.734 3.734-9.6 4.022-13.674.881.485.963 1.123 1.868 1.927 2.672l8.643 8.643c4.057 4.057 10.635 4.057 14.692 0l61.562-61.562c1.758-1.758 3.189-3.842 4.031-6.181 2.246-6.237.595-12.922-3.834-17.35z" fill="#e5646e"/></g><g><path d="m476.083 190.05c-4.142 0-7.5 3.358-7.5 7.5v289.309c0 5.593-4.55 10.144-10.143 10.144h-266.585c-1.072 0-1.945-.873-1.945-1.945 0-1.294.003-156.442.003-156.442 0-4.142-3.358-7.5-7.5-7.5s-7.5 3.358-7.5 7.5c0 0-.003 155.145-.003 156.442 0 9.344 7.602 16.945 16.945 16.945h266.585c13.864 0 25.143-11.279 25.143-25.144v-289.309c0-4.142-3.358-7.5-7.5-7.5z"/><path d="m458.44 95.85h-60.007v-76.398c0-6.768-3.432-12.939-9.179-16.51-5.747-3.57-12.799-3.912-18.866-.913l-191.3 94.599c-.167.146-4.124 1.919-4.175 6.779v93.535l-19.67-19.67c-6.975-6.976-18.324-6.975-25.299 0l-8.642 8.643c-6.975 6.975-6.975 18.324 0 25.298l20.788 20.788h-95.782c-9.864 0-17.889 8.025-17.889 17.889v12.223c0 9.864 8.025 17.889 17.889 17.889h95.784l-20.79 20.79c-3.378 3.379-5.239 7.871-5.239 12.649 0 4.779 1.861 9.271 5.24 12.649l8.643 8.644c3.488 3.487 8.068 5.23 12.649 5.23s9.162-1.743 12.649-5.23l61.563-61.563c2.658-2.659 4.604-5.668 5.784-8.944 3.152-8.758.959-18.648-5.587-25.194l-27.089-27.089v-101.094h268.525c5.593 0 10.143 4.55 10.143 10.143v40.349c0 4.142 3.358 7.5 7.5 7.5s7.5-3.358 7.5-7.5v-40.349c0-13.864-11.279-25.143-25.143-25.143zm-249.963 163.295c-.42 1.166-1.208 2.348-2.278 3.419l-61.562 61.562c-1.127 1.127-2.96 1.126-4.086 0l-8.643-8.644c-1.126-1.126-1.126-2.958 0-4.085l33.593-33.593c2.145-2.145 2.787-5.371 1.626-8.173-1.161-2.803-3.896-4.63-6.929-4.63h-113.89c-1.593 0-2.889-1.296-2.889-2.889v-12.222c0-1.593 1.296-2.889 2.889-2.889h113.89c3.034 0 5.768-1.827 6.929-4.63s.519-6.028-1.626-8.173l-33.592-33.591c-1.126-1.126-1.126-2.959 0-4.085l8.642-8.643c1.127-1.126 2.959-1.126 4.086 0l61.759 61.759c2.496 2.496 3.293 6.139 2.081 9.507zm168.559-243.669c1.995-.985 3.673-.182 4.303.208.63.391 2.094 1.542 2.094 3.768v76.398h-168.928z"/></g></g></svg>