<svg id="Capa_1" enable-background="new 0 0 511.915 511.915" height="512" viewBox="0 0 511.915 511.915" width="512" xmlns="http://www.w3.org/2000/svg"><g><g><path d="m504.415 317.542h-497l33.51-38.91 203.79-236.58c5.9-6.85 16.51-6.85 22.41 0l58.92 68.41 101.04 117.3z" fill="#8bb3ea"/><path d="m471.965 317.542h-464.55l33.51-38.91 285.12-168.17 101.04 117.3z" fill="#739ad6"/><path d="m267.12 42.048c-5.898-6.848-16.506-6.848-22.405 0l-5.022 5.831 232.275 269.664h32.45z" fill="#739ad6"/><path d="m7.417 317.542 370.171-218.343c7.381-4.353 16.905-1.541 20.736 6.124l106.093 212.22h-497z" fill="#b8daff"/><path d="m398.324 105.322c-3.832-7.664-13.355-10.477-20.736-6.124l-22.858 13.484 1.314-.213c7.377-1.194 14.674 2.543 18.016 9.228l97.907 195.845h32.45z" fill="#a4ccff"/><path d="m272.414 464.612v-113.891l33.593 33.593c4.057 4.057 10.635 4.057 14.692 0l8.643-8.643c4.057-4.057 4.057-10.635 0-14.692l-61.562-61.562c-1.758-1.758-3.842-3.189-6.181-4.031-6.238-2.245-12.923-.594-17.351 3.834l-61.759 61.759c-4.057 4.057-4.057 10.635 0 14.692l8.643 8.642c4.057 4.057 10.635 4.057 14.692 0l33.591-33.591v113.89c0 5.738 4.651 10.389 10.389 10.389h12.223c5.736 0 10.387-4.651 10.387-10.389z" fill="#ff8086"/><g fill="#e5646e"><path d="m329.341 360.98-61.562-61.562c-1.758-1.758-3.842-3.189-6.181-4.031-5.493-1.977-11.332-.93-15.672 2.372.674.514 1.327 1.059 1.928 1.66l61.562 61.562c4.057 4.057 4.057 10.635 0 14.692l-6.026 6.026 2.617 2.617c4.057 4.057 10.635 4.057 14.692 0l8.643-8.643c4.056-4.058 4.056-10.636-.001-14.693z"/><path d="m252.488 336.513v128.099c0 4.375-2.708 8.112-6.537 9.643 1.192.477 2.489.746 3.852.746h12.223c5.738 0 10.389-4.651 10.389-10.389v-113.891l-15.883-15.883c-1.493-1.491-4.044-.435-4.044 1.675z"/></g></g><path d="m511.123 314.189-106.09-212.22c-2.754-5.508-7.722-9.667-13.631-11.409-5.905-1.742-12.332-.945-17.628 2.183l-330.99 195.229 207.613-241.026c1.406-1.633 3.368-2.532 5.522-2.532 2.155 0 4.117.899 5.523 2.532l46.499 53.986c2.703 3.139 7.439 3.491 10.577.788 3.139-2.703 3.491-7.439.788-10.577l-46.499-53.986c-4.238-4.921-10.395-7.743-16.888-7.743-6.494 0-12.649 2.823-16.887 7.743l-237.3 275.49c-3.471 3.613-1.797 12.285 5.683 12.395h177.679c4.142 0 7.5-3.358 7.5-7.5s-3.358-7.5-7.5-7.5h-150.201l346.507-204.383c1.757-1.038 3.802-1.291 5.76-.713 1.961.578 3.544 1.903 4.457 3.729l100.665 201.367h-203.272l-15.927-15.927c-7.939-8.766-24.983-9.803-34.139-.197l-61.759 61.759c-6.975 6.975-6.975 18.324 0 25.299l8.643 8.642c6.975 6.975 18.324 6.974 25.298 0l20.788-20.788v95.782c0 9.864 8.025 17.889 17.889 17.889h12.223c9.864 0 17.889-8.025 17.889-17.889v-95.784l20.789 20.789c6.009 6.17 18.019 7.402 25.3 0l8.643-8.643c6.974-6.975 6.974-18.323 0-25.298l-30.635-30.635h200.405c2.6 0 5.013-1.346 6.38-3.557 1.364-2.21 1.489-4.971.326-7.295zm-187.085 56.18-8.642 8.643c-.909.115-.316 1.734-4.086 0l-33.593-33.593c-2.146-2.145-5.372-2.788-8.174-1.626-2.803 1.161-4.63 3.896-4.63 6.929v113.891c0 1.593-1.296 2.889-2.889 2.889h-12.223c-1.593 0-2.889-1.296-2.889-2.889v-113.889c-.07-5.155-6.59-10.512-12.803-5.303l-33.591 33.591c-1.126 1.126-2.959 1.126-4.085 0l-8.643-8.642c-1.126-1.126-1.127-2.959 0-4.086l61.759-61.759c2.855-2.363 8.424-4.311 12.925.197l18.027 18.026c.061.063.123.125.186.186l43.349 43.349c1.128 1.127 1.128 2.959.002 4.086z"/></g></svg>