<svg id="Capa_1" enable-background="new 0 0 512 512" height="512" viewBox="0 0 512 512" width="512" xmlns="http://www.w3.org/2000/svg"><g><g><path d="m13.806 267.012 230.1 232.44c6.663 6.731 17.538 6.731 24.201 0l230.1-232.44z" fill="#8bb3ea"/><path d="m457.32 267.012-221.757 224.012 8.343 8.428c6.663 6.731 17.538 6.731 24.201 0l230.1-232.44z" fill="#739ad6"/><path d="m498.204 267.014h-484.401l113.098-114.249h258.204z" fill="#b8daff"/><path d="m385.105 152.765h-40.886l113.098 114.249h40.887z" fill="#a4ccff"/><path d="m385.105 152.765h-258.204l117.002 118.194c6.663 6.731 17.538 6.731 24.201 0z" fill="#edf4ff"/><path d="m344.219 152.765-96.878 100.711c-4.4 4.445-10.633 5.935-16.281 4.509l12.843 12.974c6.663 6.731 17.538 6.731 24.201 0l117.002-118.194z" fill="#dbeaff"/><path d="m272.084 17.625v111.003l32.741-32.741c3.954-3.954 10.365-3.954 14.319 0l8.424 8.424c3.954 3.954 3.954 10.365 0 14.319l-60.002 60.001c-1.713 1.713-3.745 3.108-6.024 3.929-6.079 2.188-12.595.579-16.911-3.737l-60.193-60.194c-3.954-3.954-3.954-10.365 0-14.32l8.424-8.423c3.954-3.954 10.365-3.954 14.319 0l32.74 32.74v-111.002c0-5.592 4.533-10.125 10.125-10.125h11.913c5.592.001 10.125 4.534 10.125 10.126z" fill="#ff8086"/><g fill="#e5646e"><path d="m253.888 17.625v124.598c0 3.268 4.143 4.677 6.136 2.087l12.061-15.681v-111.004c0-5.592-4.533-10.125-10.125-10.125h-11.913c-1.098 0-2.152.18-3.142.503 4.052 1.323 6.983 5.128 6.983 9.622z"/><path d="m327.569 104.311-8.424-8.424c-3.954-3.954-10.365-3.954-14.319 0l-1.939 1.939 6.485 6.485c3.954 3.954 3.954 10.365 0 14.319l-54.741 55.044c-1.713 1.713-3.745 3.108-6.024 3.929-1.414.509-2.852.804-4.28.916l.305.305c4.316 4.316 10.832 5.925 16.911 3.737 2.28-.821 4.311-2.215 6.024-3.929l60.002-60.001c3.954-3.954 3.954-10.366 0-14.32z"/></g></g><g><path d="m199.797 274.51h-10.8c-4.143 0-7.5-3.358-7.5-7.5s3.357-7.5 7.5-7.5h10.8c4.143 0 7.5 3.358 7.5 7.5s-3.358 7.5-7.5 7.5zm-44.998 0h-10.8c-4.143 0-7.5-3.358-7.5-7.5s3.357-7.5 7.5-7.5h10.8c4.143 0 7.5 3.358 7.5 7.5s-3.358 7.5-7.5 7.5zm-44.998 0h-10.799c-4.143 0-7.5-3.358-7.5-7.5s3.357-7.5 7.5-7.5h10.799c4.143 0 7.5 3.358 7.5 7.5s-3.358 7.5-7.5 7.5zm-44.998 0h-10.799c-4.143 0-7.5-3.358-7.5-7.5s3.357-7.5 7.5-7.5h10.799c4.143 0 7.5 3.358 7.5 7.5s-3.358 7.5-7.5 7.5z"/><g><path d="m458.007 274.51h-10.8c-4.143 0-7.5-3.358-7.5-7.5s3.357-7.5 7.5-7.5h10.8c4.143 0 7.5 3.358 7.5 7.5s-3.358 7.5-7.5 7.5zm-44.998 0h-10.8c-4.143 0-7.5-3.358-7.5-7.5s3.357-7.5 7.5-7.5h10.8c4.143 0 7.5 3.358 7.5 7.5s-3.358 7.5-7.5 7.5zm-44.998 0h-10.799c-4.143 0-7.5-3.358-7.5-7.5s3.357-7.5 7.5-7.5h10.799c4.143 0 7.5 3.358 7.5 7.5s-3.358 7.5-7.5 7.5zm-44.998 0h-10.799c-4.143 0-7.5-3.358-7.5-7.5s3.357-7.5 7.5-7.5h10.799c4.143 0 7.5 3.358 7.5 7.5s-3.358 7.5-7.5 7.5z"/><path d="m503.535 261.733-113.101-114.24c-1.414-1.41-3.345-2.217-5.33-2.223h-50.57c-4.143 0-7.5 3.358-7.5 7.5s3.357 7.5 7.5 7.5h32.593l-104.354 105.415c-1.802 1.82-4.205 2.823-6.769 2.823s-4.967-1.002-6.77-2.824l-104.351-105.414h70.588l23.857 23.857c4.48 4.481 10.555 6.886 16.738 6.886 2.692 0 5.406-.456 8.018-1.396 3.218-1.159 6.174-3.071 8.787-5.683l60.002-60.001c6.871-6.872 6.871-18.054 0-24.925l-8.424-8.424c-3.329-3.329-7.755-5.163-12.463-5.163-.001 0-.001 0-.001 0-4.707 0-9.134 1.833-12.463 5.162l-19.938 19.938-.001-92.897c.001-9.717-7.905-17.624-17.624-17.624h-11.913c-9.719 0-17.625 7.907-17.625 17.625v92.896l-19.936-19.937c-6.871-6.872-18.053-6.873-24.926 0l-8.425 8.423c-6.872 6.872-6.872 18.054 0 24.926l21.336 21.336h-73.566c-1.99.002-3.915.813-5.33 2.223l-113.1 114.241c-2.803 2.832-2.88 7.329-.262 10.261.084.096.156.186.263.295l230.101 232.44c4.642 4.689 10.831 7.271 17.429 7.271h.001c6.599 0 12.788-2.583 17.431-7.271l38.64-39.032c2.914-2.944 2.89-7.692-.054-10.606-2.942-2.913-7.691-2.891-10.606.054l-38.64 39.032c-1.803 1.821-4.208 2.824-6.771 2.824s-4.967-1.003-6.77-2.824l-224.878-227.166 102.547-103.58 100.035 101.053c-.283.79-.446 1.638-.446 2.526 0 4.142 3.357 7.5 7.5 7.5h2.871l1.708 1.726c4.64 4.689 10.83 7.272 17.431 7.272s12.791-2.583 17.43-7.271l1.709-1.727h2.871c4.143 0 7.5-3.358 7.5-7.5 0-.888-.162-1.736-.446-2.526l100.035-101.053 102.548 103.581-161.455 163.098c-2.914 2.944-2.89 7.692.054 10.606 1.462 1.447 3.369 2.17 5.276 2.17 1.932 0 3.863-.742 5.33-2.224l166.68-168.375c.309-.321.595-.661.843-1.028 2.045-2.858 1.652-7.063-.844-9.526zm-314.562-150.262c0-.406.101-1.188.769-1.856l8.425-8.423c.669-.669 1.45-.769 1.856-.769.405 0 1.187.1 1.855.769l32.739 32.74c2.146 2.145 5.37 2.786 8.174 1.626 2.803-1.161 4.63-3.896 4.63-6.929v-111.004c0-1.448 1.178-2.625 2.625-2.625h11.913c1.447 0 2.625 1.178 2.625 2.625l.001 111.003c0 3.034 1.827 5.768 4.63 6.929s6.028.519 8.174-1.626l32.741-32.742c.668-.669 1.449-.769 1.855-.769s1.188.1 1.856.769l8.424 8.424c1.024 1.023 1.023 2.689 0 3.713l-60.001 60c-1.024 1.024-2.152 1.777-3.262 2.177-3.213 1.157-6.689.396-9.067-1.983l-60.193-60.194c-.669-.668-.769-1.449-.769-1.855z"/></g></g></g></svg>