<svg id="Capa_1" enable-background="new 0 0 511.983 511.983" height="512" viewBox="0 0 511.983 511.983" width="512" xmlns="http://www.w3.org/2000/svg"><g><g><path d="m468.002 473.421h-448.567l224.283-465.971z" fill="#8bb3ea"/><path d="m467.997 473.42h-448.559l205.99-427.97 18.289-38z" fill="#8bb3ea"/><path d="m467.997 473.42h-27.31l-113.93-47.1c-7.53-3.11-13.1-9.65-14.99-17.57l-86.34-363.3 18.29-38z" fill="#739ad6"/><path d="m467.997 473.42-113.92-47.1c-7.53-3.11-13.1-9.65-14.99-17.57l-95.37-401.3 85.52 177.67 50.03 103.96z" fill="#edf4ff"/><path d="m379.267 289.08h-34.06c-2.42 0-4.84-.45-7.04-1.48-5.84-2.75-9.31-8.5-9.31-14.6v-85.13c0-.96.13-1.88.38-2.75z" fill="#dbeaff"/><path d="m433.898 459.322 34.103 14.099-224.283-465.971 26.644 112.11z" fill="#dbeaff"/><path d="m489.569 178.424-78.491 78.491h46.303c5.592 0 10.125 4.533 10.125 10.125v11.913c0 5.592-4.533 10.125-10.125 10.125h-84.855c-2.423 0-4.846-.45-7.038-1.482-5.846-2.751-9.316-8.496-9.316-14.6v-85.126c0-5.592 4.533-10.125 10.126-10.125h11.913c5.592 0 10.125 4.533 10.125 10.125v46.301l78.49-78.491c3.954-3.954 10.365-3.954 14.319 0l8.424 8.424c3.954 3.955 3.954 10.366 0 14.32z" fill="#ff8086"/><g fill="#e5646e"><path d="m489.569 164.105-8.424-8.424c-3.954-3.954-10.365-3.954-14.319 0l-6.499 6.499 1.924 1.924c3.954 3.954 3.954 10.365 0 14.319l-68.831 68.831c-3.565 3.565-1.04 9.661 4.002 9.661h13.656l78.491-78.491c3.954-3.954 3.954-10.365 0-14.319z"/><path d="m457.381 256.916h-27.317c5.592 0 10.125 4.534 10.125 10.125v11.913c0 5.591-4.533 10.124-10.124 10.125h27.316c5.592 0 10.125-4.533 10.125-10.125v-11.913c0-5.592-4.533-10.125-10.125-10.125z"/></g><path d="m243.718 7.45v482.945c0 8.582-7.625 15.159-16.114 13.9l-208.169-30.874z" fill="#b8daff"/><path d="m216.401 64.205v426.19c0 4.729-2.322 8.839-5.821 11.375l17.024 2.525c8.489 1.259 16.114-5.318 16.114-13.9v-482.945z" fill="#a4ccff"/></g><path d="m494.872 158.801-8.423-8.423c-6.873-6.873-18.054-6.871-24.927 0l-65.687 65.688v-28.195c0-9.719-7.906-17.625-17.625-17.625h-11.912c-9.719 0-17.626 7.907-17.626 17.625v20.345l-98.197-204.019c-2.307-5.173-10.678-6.005-13.516 0l-224.282 465.971c-2.026 3.979.339 9.962 5.657 10.672l208.17 30.875c11.042 2.039 25.147-7.767 24.714-21.319v-418.945l80.574 339.04c2.442 10.239 9.703 18.748 19.42 22.761l79.016 32.669h-150.342c-4.143 0-7.5 3.358-7.5 7.5s3.357 7.5 7.5 7.5h188.099c4.32.203 9.717-5.547 6.77-10.753l-71.79-149.146c-1.797-3.732-6.277-5.301-10.011-3.505-3.732 1.796-5.302 6.278-3.505 10.011l63.279 131.465-95.788-39.604c-5.282-2.182-9.229-6.81-10.557-12.372l-79.32-333.77 81.609 169.554v30.195c.137 12.229 10.094 23.641 23.854 23.582h84.854c9.719 0 17.626-7.907 17.626-17.625v-11.913c0-9.719-7.906-17.626-17.625-17.626h-28.197l65.688-65.688c6.872-6.87 6.872-18.053 0-24.925zm-258.654 331.594c-.631 3.866-1.768 6.219-7.514 6.481l-198.092-29.38 205.606-427.171zm248.047-317.274-78.491 78.491c-2.145 2.145-2.786 5.371-1.625 8.173 1.16 2.803 3.896 4.63 6.929 4.63h46.304c1.447 0 2.625 1.178 2.625 2.625v11.913c0 1.448-1.178 2.625-2.626 2.625h-84.854c-3.714.166-8.5-2.934-8.854-8.582v-85.126c0-1.447 1.178-2.625 2.626-2.625h11.912c1.447 0 2.625 1.178 2.625 2.625v46.301c0 3.034 1.827 5.768 4.63 6.929s6.028.519 8.174-1.626l78.49-78.491c1.024-1.024 2.688-1.023 3.713 0l8.423 8.423c1.023 1.025 1.023 2.691-.001 3.715z"/></g></svg>