<svg id="Capa_1" enable-background="new 0 0 511.87 511.87" height="512" viewBox="0 0 511.87 511.87" width="512" xmlns="http://www.w3.org/2000/svg"><g><g><path d="m454.972 399.259h-65.491l40.454-22.484 70.947-109.036c1.336-1.685 4.015-.279 3.386 1.778l-36.854 120.537c-1.673 5.469-6.722 9.205-12.442 9.205z" fill="#e2a975"/><path d="m500.882 267.738-41.733 64.139c1.252-.129 2.542 1.015 2.085 2.51l-17.402 55.666c-1.673 5.47-6.722 9.206-12.442 9.206h23.582c5.72 0 10.769-3.736 12.442-9.206l36.854-120.537c.629-2.057-2.05-3.463-3.386-1.778z" fill="#d19a6e"/><path d="m437.679 399.259h-255.983c-5.676 0-10.277-4.601-10.277-10.277v-233.266h133.82c4.538 0 8.822 2.095 11.608 5.677l61.736 64.859c7.182 7.545 12.655 16.548 16.046 26.397z" fill="#f6d190"/><path d="m394.629 252.649c-3.392-9.849-8.865-18.852-16.046-26.397l-61.735-64.859c-2.786-3.582-7.07-5.677-11.608-5.677h-26.733c4.538 0 8.822 2.095 11.608 5.677l61.735 64.859c7.182 7.545 12.655 16.548 16.046 26.397l43.05 146.61h26.733z" fill="#ecbd83"/><path d="m171.419 155.716v214.988c-12.045 0-22.891-7.291-27.439-18.444l-34.805-106.96-57.154-67.376-43.235-50.961c-3.695-4.355.345-10.894 5.893-9.539l69.985 17.097z" fill="#b6c4cf"/><path d="m84.664 134.521-69.984-17.097c-3.674-.898-6.67 1.669-7.214 4.769l50.465 12.329 86.755 21.194v198.104c4.892 10.263 15.263 16.884 26.733 16.884v-214.988z" fill="#9facba"/><path d="m283.881 121.714v112.454c0 4.742-1.552 9.354-4.42 13.13l-23.238 30.606c-6.188 8.15-17.247 10.838-26.486 6.437l-58.319-27.784v-100.84l99.887-42.399c2.809-1.166 5.76-.811 8.103.568 2.628 1.55 4.473 4.39 4.473 7.828z" fill="#ff9a9f"/><path d="m279.409 113.885c-2.343-1.379-5.293-1.734-8.103-.568l-14.449 6.133c.182.719.29 1.473.29 2.263v112.454c0 4.742-1.552 9.354-4.42 13.13l-23.237 30.606c-1.256 1.654-2.719 3.07-4.32 4.26l4.568 2.176c9.238 4.401 20.297 1.714 26.486-6.436l23.238-30.606c2.867-3.777 4.42-8.388 4.42-13.13v-112.453c-.001-3.438-1.846-6.278-4.473-7.829z" fill="#ff8086"/><path d="m279.409 113.885-107.99 142.671v-100.84l99.887-42.399c2.81-1.166 5.76-.811 8.103.568z" fill="#e2a975"/><path d="m271.307 113.317-31.81 13.502-68.077 89.941v39.796l107.99-142.671c-2.343-1.379-5.294-1.734-8.103-.568z" fill="#d19a6e"/><path d="m71.724 131.36-19.703 46.564-43.235-50.961c-3.695-4.355.345-10.894 5.893-9.539z" fill="#ff8086"/></g><path d="m506.793 260.581c-3.126-1.71-9.183-1.309-12.197 3.065l-61.269 94.158-31.498-107.27c-.033-.112-.068-.223-.107-.334-3.776-10.941-9.733-20.739-17.707-29.124l-61.505-64.603c-4.174-5.178-10.596-8.256-17.268-8.256h-13.861v-26.503c0-5.929-3.05-11.27-8.167-14.291-4.538-2.673-9.927-3.048-14.838-1.009l-99.842 42.38c-1.167.519-2.386 1.329-3.335 2.732l-56.616 81.484-47.856-56.412 15.417-36.436 57.34 14.008c4.024.981 8.083-1.482 9.065-5.506.983-4.024-1.482-8.083-5.506-9.065l-120.583-29.461c-11.445-3.149-21.805 11.438-13.393 21.677l99.433 117.21 34.349 105.555c4.139 11.212 15.167 20.485 27.074 22.847v11.559c0 9.798 7.972 17.77 17.77 17.77h158.351c4.142 0 7.5-3.358 7.5-7.5s-3.358-7.5-7.5-7.5h-158.352c-1.527 0-2.77-1.243-2.77-2.77v-120.547l47.59 22.673c3.978 1.896 8.226 2.805 12.437 2.805 8.895 0 17.619-4.063 23.248-11.478l23.237-30.606c3.835-5.05 5.947-11.324 5.947-17.666v-70.951h13.861c1.422-.05 4.244.966 6.168 3.352l61.737 64.847c6.442 6.774 11.266 14.685 14.339 23.517l40.176 136.825h-51.099c-4.142 0-7.5 3.358-7.5 7.5s3.358 7.5 7.5 7.5h78.408c9.082 0 16.963-5.831 19.612-14.506l36.87-120.573c1.325-4.401-.592-8.964-4.66-11.097zm-327.871-99.902 82.01-34.811-82.01 108.348zm-117.54-24.125-11.522 27.23-32.154-37.9zm89.64 213.108-33.563-103.141 46.46-66.867v182.253c-5.725-2.049-10.442-6.413-12.897-12.245zm122.466-106.899-23.238 30.606c-4.018 5.292-11.288 7.057-17.286 4.201l-50.01-23.825 93.427-123.432v103.856c0 3.084-1.027 6.136-2.893 8.594zm186.751 145.104c-.71 2.327-2.827 3.89-5.267 3.89h-11.675l-4.405-15.003 46.685-71.744z"/></g></svg>