<svg id="Capa_1" enable-background="new 0 0 511.95 511.95" height="512" viewBox="0 0 511.95 511.95" width="512" xmlns="http://www.w3.org/2000/svg"><g><g><path d="m428.244 311.049h-344.573l61.233-227.652 94.037-70.35c3.904-2.905 8.359-4.696 12.94-5.362 2.698-.39 5.454-.39 8.152 0 4.581.666 9.036 2.457 12.94 5.362l94.037 70.35z" fill="#b3e59f"/><path d="m367.011 83.398-94.037-70.35c-3.904-2.905-8.359-4.696-12.94-5.362-2.698-.39-5.454-.39-8.152 0-4.061.59-8.021 2.069-11.588 4.42.457.301 95.389 71.291 95.389 71.291l61.233 227.652h31.329z" fill="#95d6a4"/><path d="m428.244 311.049h-344.573l168.21-303.363c2.698-.39 5.454-.39 8.152 0z" fill="#b3e59f"/><path d="m260.033 7.686c-2.698-.39-5.454-.39-8.152 0l-11.588 20.9 156.622 282.464h31.329z" fill="#95d6a4"/><path d="m144.897 83.403-29.62 110.16-20-16.12-38.96-31.42 58.55-41.39z" fill="#e1ffa0"/><path d="m144.897 83.403-29.62 110.16-20-16.12 19.59-72.81z" fill="#ccf49f"/><path d="m56.314 146.021v-109.143c0-4.315 5.718-5.839 7.865-2.096l43.132 75.191z" fill="#78c2a4"/><path d="m64.179 34.782c-2.147-3.743-7.865-2.22-7.865 2.096v32.678c1.773-.642 3.95-.161 5.102 1.847l21.566 38.57-26.669 18.851v17.197l50.997-36.048z" fill="#5aa0a5"/><path d="m396.642 193.567 58.959-47.546-88.586-62.618z" fill="#e1ffa0"/><path d="m367.015 83.403 7.353 27.343 49.904 35.275-33.214 26.784 5.584 20.762 58.959-47.546z" fill="#ccf49f"/><path d="m455.601 146.021v-108.223c0-4.377-5.849-5.85-7.921-1.995l-40.76 75.807z" fill="#78c2a4"/><path d="m447.679 35.804-18.357 34.14c1.125.699 1.937 1.925 1.937 3.555l.009 55.323 24.332 17.199v-108.223c.001-4.377-5.848-5.849-7.921-1.994z" fill="#5aa0a5"/><path d="m58.407 311.049h395.101c6.702 0 12.524 4.607 14.064 11.129l16.056 67.976h-455.342l16.056-67.976c1.541-6.521 7.363-11.129 14.065-11.129z" fill="#e1ffa0"/><path d="m467.572 322.179c-1.541-6.522-7.363-11.129-14.065-11.129h-31.329c6.702 0 12.524 4.607 14.064 11.129l16.056 67.976h31.329z" fill="#ccf49f"/><path d="m28.286 390.154 99.633 87.889 31.081-87.889z" fill="#b3e59f"/><path d="m127.671 390.154-23.632 66.824 23.88 21.064 31.081-87.888z" fill="#95d6a4"/><path d="m31.296 494.494 33.807-71.863 62.816 55.411-88.388 26.055c-5.738 1.692-10.782-4.19-8.235-9.603z" fill="#78c2a4"/><path d="m65.103 422.631-9.188 19.531 40.675 35.88-65.968 19.446c.017 4.332 4.231 7.988 8.91 6.609l88.388-26.055z" fill="#5aa0a5"/><path d="m483.628 390.154-99.632 87.889-31.081-87.889z" fill="#b3e59f"/><path d="m452.299 390.154-75.752 66.824 7.449 21.064 99.632-87.888z" fill="#95d6a4"/><path d="m480.619 494.494-33.807-71.863-62.816 55.411 88.388 26.055c5.738 1.692 10.782-4.19 8.235-9.603z" fill="#78c2a4"/><path d="m480.619 494.494-33.807-71.863-21.957 19.369 21.775 45.005c1.602 3.405.198 6.992-2.49 8.766l28.245 8.326c5.737 1.692 10.781-4.19 8.234-9.603z" fill="#5aa0a5"/></g><path d="m489.51 394.808c1.027-1.369 2.078-3.718 1.418-6.378l-16.056-67.976c-2.351-9.954-11.136-16.905-21.364-16.905h-19.515l-28.838-107.213 55.154-44.477c1.392-1.165 2.783-3.155 2.792-5.838v-108.223c0-5.46-3.558-10.024-8.852-11.357-5.296-1.332-10.59 1.002-13.175 5.811l-36.746 68.342-126.877-93.563c-11.597-8.837-29.894-9.901-43.002.012l-124.734 92.047-39.03-68.039c-2.678-4.669-7.973-6.876-13.174-5.49-5.202 1.386-8.697 5.934-8.697 11.317v109.143c.077 1.898.654 4.075 2.792 5.838l55.154 44.477-28.838 107.213h-19.515c-10.228 0-19.013 6.952-21.364 16.905l-16.056 67.976c-.446 2.214-.132 5.167 2.338 7.349l32.595 28.753-31.411 66.77c-4.821 10.059 4.43 23.655 17.142 19.99l88.388-26.055c1.942-.639 4.036-2.086 4.95-4.693l29.313-82.889h299.486l-76.425 67.416-14.909-42.159c-1.381-3.906-5.667-5.954-9.571-4.57-3.905 1.381-5.952 5.666-4.57 9.571l18.612 52.63c.73 1.899 2.309 3.921 4.95 4.693l88.388 26.055c9.485 3.579 22.624-8.037 17.143-19.99l-31.411-66.77 32.595-28.753c.164-.166.299-.28.92-.97zm-16.214 101.739-74.159-21.86 45.142-39.821zm-321.823-408.697 80.971-60.575-29.106 52.492c-2.009 3.623-.7 8.188 2.922 10.196 3.621 2.009 8.187.7 10.196-2.922l39.501-71.239 159.551 287.748h-319.102l103.153-186.034c2.009-3.622.7-8.188-2.922-10.196-3.624-2.011-8.187-.7-10.196 2.922l-79.607 143.57zm208.969 0 44.64 165.962-125.611-226.537zm87.659-36.993v80.678l-31.433-22.218zm-4.936 95.558-42.269 34.087-21.242-78.98zm-345.754-38.628-33.597 23.748v-82.317zm-28.661 38.628 63.511-44.893-21.242 78.98zm-30.131 350.132 29.017-61.681 45.142 39.821zm85.932-31.476-76.425-67.416h100.267zm-86.786-82.417 13.877-58.751c.744-3.152 3.526-5.354 6.765-5.354h395.101c3.239 0 6.021 2.202 6.765 5.354l13.877 58.751z"/></g></svg>