<svg id="Capa_1" enable-background="new 0 0 511.968 511.968" height="512" viewBox="0 0 511.968 511.968" width="512" xmlns="http://www.w3.org/2000/svg"><g><g><path d="m150.543 186.797-79.22 71.08-17.31-24.95-46.52-67.06 76.44-15.65z" fill="#db4655"/><path d="m83.933 150.218-20.376 4.171 59.01 32.41-61.979 55.612 10.73 15.469 79.22-71.081z" fill="#bd4150"/><path d="m83.933 150.218v-108.567c0-5.999-8.054-7.959-10.811-2.631l-65.629 126.847z" fill="#ff9a9f"/><path d="m73.122 39.02-21.639 41.824c2.404.539 4.479 2.536 4.479 5.581v63.793l-45.156 9.244-3.314 6.405 76.441-15.649v-108.567c0-5.999-8.054-7.959-10.811-2.631z" fill="#ff8086"/><path d="m83.933 150.218 33.924-74.767c2.372-5.229-2.403-10.863-7.95-9.379l-25.974 6.949z" fill="#db4655"/><path d="m361.447 186.799 66.605-36.581 76.441 15.649-63.826 92.013z" fill="#db4655"/><path d="m428.052 150.218-7.595 4.171 56.065 11.478-53.095 76.544 17.24 15.469 63.826-92.013z" fill="#bd4150"/><path d="m428.052 150.218v-108.567c0-5.999 8.054-7.959 10.811-2.631l65.63 126.847z" fill="#ff9a9f"/><path d="m434.458 84.281 38.764 75.184 31.271 6.402-65.63-126.847c-2.757-5.328-10.811-3.368-10.811 2.631v39.542c2.188.05 4.547 1.006 6.406 3.088z" fill="#ff8086"/><path d="m428.052 150.218-33.924-74.767c-2.372-5.229 2.403-10.863 7.95-9.379l25.974 6.949z" fill="#db4655"/><path d="m158.333 418.897-14.54 3.51-91.22 22.03 23.51-42.94 24.15-44.11z" fill="#db4655"/><path d="m158.333 418.897-14.54 3.51-56.72-14.83c-4.17-1.09-7.93-3.2-10.99-6.08l24.15-44.11z" fill="#bd4150"/><path d="m100.235 357.39-16.542 30.209 29.559 31.295-53.814 12.996-6.87 12.544 105.76-25.54z" fill="#bd4150"/><path d="m52.568 444.434 31.861 29.479c4.907 4.54 12.892 1.884 14.103-4.69l6.916-37.559z" fill="#8bb3ea"/><path d="m411.75 357.39 47.667 87.044-105.759-25.54z" fill="#db4655"/><path d="m427.184 436.65 32.233 7.784-47.667-87.044-17.705 18.745z" fill="#bd4150"/><path d="m150.543 186.797-79.22 71.08-17.31-24.95 13.96-31.08c4.12-9.16 13.22-15.05 23.26-15.05z" fill="#bd4150"/><path d="m459.417 444.434-31.861 29.479c-4.907 4.54-12.892 1.884-14.103-4.69l-6.916-37.559z" fill="#8bb3ea"/><path d="m396.937 407.576-130.916 34.235c-6.575 1.719-13.481 1.719-20.056 0l-130.916-34.235c-7.467-1.953-13.647-7.182-16.809-14.222l-39.307-87.526c-2.909-6.478-2.909-13.892 0-20.37l37.547-83.608c4.113-9.159 13.219-15.052 23.259-15.052h272.506c10.04 0 19.146 5.893 23.259 15.052l37.547 83.608c2.909 6.478 2.909 13.892 0 20.37l-39.307 87.526c-3.16 7.04-9.34 12.27-16.807 14.222z" fill="#ff8086"/><path d="m453.052 285.459-37.547-83.608c-4.113-9.159-13.219-15.052-23.259-15.052h-27.971c10.041 0 19.146 5.893 23.26 15.052l37.547 83.608c2.909 6.478 2.909 13.892 0 20.37l-39.307 87.526c-3.162 7.04-9.342 12.27-16.809 14.222l-126.959 33.201 3.957 1.035c6.575 1.719 13.481 1.719 20.056 0l130.916-34.235c7.467-1.953 13.647-7.182 16.809-14.222l39.307-87.526c2.91-6.48 2.91-13.893 0-20.371z" fill="#e5646e"/><g fill="#8bb3ea"><path d="m221.022 144.3v42.499h-41.964l31.098-45.399c2.97-5.168 10.866-3.06 10.866 2.9z"/><path d="m290.964 144.3v42.499h41.964l-31.098-45.399c-2.971-5.168-10.866-3.06-10.866 2.9z"/></g></g><path d="m511.094 169.417c.895-1.593 1.383-4.649.06-6.996l-65.63-126.848c-2.856-5.521-8.832-8.241-14.874-6.773-6.04 1.47-10.098 6.634-10.098 12.851v21.6l-16.536-4.424c-5.396-1.442-10.99.306-14.603 4.567s-4.423 10.068-2.115 15.156l31.053 68.439-58.828 32.309h-22.642l-28.728-41.94c-3.102-5.098-9.005-7.476-14.805-5.928-5.912 1.578-9.885 6.75-9.885 12.87v34.999h-54.941v-34.999c0-6.12-3.972-11.292-9.885-12.87-5.799-1.547-11.703.831-14.805 5.929l-28.728 41.939h-22.642l-58.828-32.309 31.053-68.439c4.773-9.532-4.723-22.995-16.718-19.723l-16.536 4.424v-21.6c0-6.216-4.058-11.381-10.099-12.851-6.042-1.469-12.017 1.253-14.873 6.773l-65.629 126.848c-1.028 2.241-1.354 4.957.499 7.721l61.41 88.531-10.649 23.713c-3.784 8.425-3.784 18.09 0 26.515l29.803 66.363-35.79 65.37c-1.502 2.584-1.508 6.696 1.37 9.304l31.861 29.479c7.743 7.848 24.247 4.054 26.572-8.836l6.034-32.766 46.322-11.186 85.804 22.438c3.901 1.02 7.913 1.53 11.925 1.53 4.013 0 8.024-.51 11.926-1.53l85.803-22.438 46.323 11.186 6.033 32.766c1.902 11.149 16.565 17.732 26.572 8.836l31.861-29.479c2.19-2.097 3.384-5.913 1.366-9.311l-35.786-65.364 29.803-66.364c3.783-8.425 3.783-18.089 0-26.514l-37.547-83.609c-5.153-11.793-18.267-20.071-31.665-19.479l38.565-21.18 62.603 12.816-34.686 50.004c-2.361 3.404-1.516 8.077 1.888 10.438 1.304.904 2.793 1.338 4.268 1.338 2.376 0 4.713-1.126 6.169-3.226l41.166-59.346c.086-.12.082-.144.439-.724zm-212.631-19.66 20.235 29.542h-20.235zm-84.941 0v29.542h-20.236zm-103.106-76.057-18.982 41.836v-36.758zm-33.983-24.758v95.156l-55.065 11.273zm-56.298 121.992 62.602-12.816 38.565 21.18c-12.716-.706-26.3 7.281-31.664 19.479l-19.724 43.92zm71.021 296.932c-.057-.148-.4 1.343-1.633.543l-21.581-19.968 28.037-6.771zm-23.859-34.704 22.303-40.738 1.798 4.003c4.112 9.157 12.041 15.866 21.753 18.405l14.434 3.775zm355.165 35.247c.043-.154-1.124.837-1.633-.543l-4.823-26.195 28.037 6.771zm22.227-35.247-60.289-14.555 14.434-3.775c10.58-2.497 19.707-11.696 23.551-22.409zm-36.025-228.239 37.547 83.608c2.03 4.52 2.03 9.705 0 14.225l-39.307 87.525c-2.243 4.995-6.567 8.654-11.864 10.039l-130.916 34.235c-.208.054-.42.093-.629.143v-171.512c0-4.142-3.357-7.5-7.499-7.5s-7.5 3.358-7.5 7.5v171.514c-.21-.05-.423-.089-.633-.144l-130.917-34.235c-5.297-1.385-9.621-5.044-11.864-10.039l-39.307-87.525c-2.03-4.52-2.03-9.705 0-14.225l37.547-83.608c2.898-6.454 9.343-10.625 16.417-10.625h128.755v34.676c0 4.142 3.358 7.5 7.5 7.5s7.499-3.358 7.499-7.5v-34.676h128.751c7.077 0 13.521 4.17 16.42 10.624zm26.888-155.981 55.065 106.429-55.065-11.273zm-15 29.836v36.758l-18.982-41.836z"/></g></svg>