<svg id="Capa_1" enable-background="new 0 0 512.001 512.001" height="512" viewBox="0 0 512.001 512.001" width="512" xmlns="http://www.w3.org/2000/svg"><g><g><path d="m433.869 481.961h-282.409c-9.249 0-16.52-7.911-15.741-17.127l28.863-341.705h133.066l105.402 153.776z" fill="#f6d190"/><path d="m403.049 276.905-105.401-153.776h-26.5l105.401 153.776 30.82 205.056h26.5z" fill="#ecbd83"/><path d="m207.115 30.037v157.514l-185.898-38.952-13.465-59.937c-1.425-6.345 3.4-12.375 9.903-12.375h73.562l44.064-46.25z" fill="#e2a975"/><path d="m180.615 30.037v151.961l26.5 5.553v-157.514z" fill="#d19a6e"/><path d="m91.218 76.287-70.001 72.312-13.465-59.937c-1.425-6.345 3.4-12.375 9.903-12.375z" fill="#8d9ca8"/><path d="m64.718 76.287-48.492 50.094 4.991 22.218 70.001-72.312z" fill="#7a8c98"/><path d="m207.115 30.037v241.742c0 5.74 4.653 10.393 10.393 10.393h95.45c6.452 0 11.345-5.818 10.24-12.175l-25.55-146.863-37.868-83.788c-2.561-5.667-8.204-9.309-14.423-9.309z" fill="#8d9ca8"/><path d="m323.198 269.997-25.55-146.863-37.868-83.788c-2.561-5.667-8.204-9.309-14.423-9.309h-26.5c6.219 0 11.861 3.642 14.423 9.309l37.868 83.788 25.55 146.863c1.106 6.357-3.787 12.175-10.24 12.175h26.5c6.453 0 11.346-5.818 10.24-12.175z" fill="#7a8c98"/><path d="m433.869 481.961h-198.496l61.123-148.434c2.434-5.91 7.011-10.682 12.814-13.361l93.739-43.261z" fill="#e2a975"/><path d="m403.049 276.905-24.781 11.437 29.101 193.619h26.5z" fill="#d19a6e"/><path d="m433.869 481.961 70.632-90.433h-84.224z" fill="#f6d190"/><path d="m484.001 391.528-53.44 68.422 3.308 22.011 70.632-90.433z" fill="#ecbd83"/><path d="m504.501 391.528v-68.693c0-4.864-6.598-6.347-8.679-1.95l-33.433 70.643z" fill="#e2a975"/><path d="m495.822 320.884-14.203 30.011c1.361.716 2.382 2.094 2.382 4.003v36.629h20.5v-68.693c0-4.864-6.598-6.346-8.679-1.95z" fill="#d19a6e"/></g><path d="m511.032 395.207c.34-.751.967-1.788.969-3.68v-68.693c0-5.682-3.872-10.52-9.416-11.765-5.541-1.246-11.112 1.471-13.542 6.607l-31.403 66.352h-30.905l-16.268-108.233c-.086-.59-.498-2.156-1.285-3.204l-104.99-153.183-37.579-83.15c-3.767-8.334-12.11-13.72-21.258-13.72h-110.074c-2.052 0-4.015.841-5.43 2.327l-41.847 43.923h-70.349c-5.391 0-10.413 2.414-13.781 6.623-3.367 4.208-4.621 9.638-3.439 14.896l13.465 59.937c.466 2.203 2.659 5.18 5.779 5.697l179.936 37.701v78.137c0 9.866 8.027 17.893 17.894 17.893h95.45c9.63.162 19.709-9.455 17.629-20.96l-19.648-112.928 80.9 118.034-85.673 39.538c-7.545 3.482-13.442 9.631-16.605 17.314l-6.124 14.872c-1.578 3.83.249 8.214 4.079 9.791 3.828 1.578 8.213-.25 9.79-4.079l6.125-14.872c1.719-4.174 4.922-7.515 9.021-9.407l84.665-39.073 28.04 186.556h-178.585l37.222-90.392c1.578-3.831-.249-8.214-4.079-9.791-3.832-1.577-8.213.25-9.79 4.079l-39.574 96.104h-78.891c-3.587-.081-8.385-2.945-8.267-8.989l21.202-251.043c.349-4.127-2.715-7.756-6.843-8.105-4.127-.346-7.756 2.715-8.104 6.842l-21.202 251.042c-1.303 11.997 9.331 25.558 23.214 25.252l282.401.002c1.904.001 4.423-.888 5.919-2.883l70.632-90.434c.198-.291.062-.061.619-.935zm-14.031-59.281v48.102h-22.766zm-481.415-251.144c.297-.372.961-.995 2.069-.995h55.863l-48.029 49.615-10.42-46.384c-.243-1.081.22-1.865.517-2.236zm20.476 59.265 102.433-106.51h61.119v140.779zm279.111 129.594c-.324.385-1.042 1.031-2.215 1.031h-95.45c-1.596 0-2.894-1.298-2.894-2.893v-234.242h30.742c3.266 0 6.244 1.922 7.589 4.897l37.477 82.921 25.388 145.926c.2 1.156-.313 1.975-.637 2.36zm123.523 189.956-9.705-64.569h60.136z"/></g></svg>