<svg id="Capa_1" enable-background="new 0 0 511.988 511.988" height="512" viewBox="0 0 511.988 511.988" width="512" xmlns="http://www.w3.org/2000/svg"><g><g><path d="m492.905 374.756-118.763-118.763 118.762-118.762c4.274-4.274 11.583-1.247 11.583 4.798v227.929c.001 6.045-7.308 9.072-11.582 4.798z" fill="#978ecb"/><path d="m492.905 137.231-23.682 23.682c3.286.262 6.297 2.885 6.297 6.764v174.109c0 5.05-5.097 7.976-9.269 6.316l26.654 26.654c4.274 4.274 11.583 1.247 11.583-4.798v-227.929c0-6.045-7.309-9.072-11.583-4.798z" fill="#8379c1"/><path d="m450.071 266.459-109.413 109.414c-5.78 5.78-15.152 5.78-20.932 0l-119.88-119.88 119.879-119.879c5.78-5.78 15.152-5.78 20.932 0l109.413 109.413c5.781 5.78 5.781 15.152.001 20.932z" fill="#db4655"/><path d="m450.071 245.527-109.413-109.413c-5.78-5.78-15.152-5.78-20.932 0l-7.75 7.749c3.348.291 6.617 1.711 9.179 4.274l98.947 97.39c5.78 5.78 5.78 15.152 0 20.932l-99.527 99.064c-2.062 2.062-4.583 3.374-7.233 3.965l6.384 6.384c5.78 5.78 15.152 5.78 20.932 0l109.413-109.413c5.78-5.78 5.78-15.152 0-20.932z" fill="#bd4150"/><path d="m156.456 99.225 73.993-73.993 29.827 116.896z" fill="#db4655"/><path d="m226.776 128.284 33.5 13.843-29.827-116.895-23.876 23.876z" fill="#bd4150"/><path d="m230.449 25.232h64.368c4.089 0 6.318 4.774 3.693 7.909l-50.617 60.454z" fill="#978ecb"/><path d="m294.817 25.232h-29.458c4.089 0 6.318 4.774 3.693 7.909l-28.04 33.49 6.88 26.965 50.617-60.454c2.626-3.136.397-7.91-3.692-7.91z" fill="#8379c1"/><path d="m156.456 412.761 73.993 73.993 29.827-116.895z" fill="#db4655"/><path d="m226.776 383.703-20.203 79.175 23.876 23.876 29.827-116.895z" fill="#bd4150"/><path d="m230.449 486.754h64.368c4.089 0 6.318-4.774 3.693-7.909l-50.617-60.454z" fill="#978ecb"/><path d="m298.51 478.845-50.617-60.454-6.88 26.965 28.04 33.49c2.625 3.135.396 7.909-3.693 7.909h29.458c4.088-.001 6.317-4.775 3.692-7.91z" fill="#8379c1"/><path d="m363.702 266.434-137.815 137.815c-5.451 5.451-12.844 8.513-20.552 8.513h-48.879l-143.453-143.454c-7.354-7.354-7.354-19.276 0-26.629l143.453-143.454h48.879c7.709 0 15.101 3.062 20.552 8.513l137.815 137.815c5.766 5.766 5.766 15.115 0 20.881z" fill="#ff8086"/><path d="m363.702 245.553-137.815-137.815c-5.451-5.451-12.844-8.513-20.552-8.513h-29.968c7.709 0 15.102 3.062 20.552 8.513l137.815 137.815c5.766 5.766 5.766 15.115 0 20.881l-137.815 137.815c-5.451 5.451-12.844 8.513-20.552 8.513h29.968c7.709 0 15.101-3.062 20.552-8.513l137.815-137.815c5.766-5.766 5.766-15.115 0-20.881z" fill="#e5646e"/></g><path d="m503.159 128.827c-5.356-2.215-11.466-.995-15.555 3.103l-70.267 70.257-71.377-71.376c-4.213-4.212-9.813-6.532-15.769-6.532-5.957 0-11.557 2.32-15.769 6.532l-27.429 27.429-19.959-19.959-10.925-42.816 48.15-57.509c3.104-3.708 3.763-8.735 1.716-13.118s-6.323-7.105-11.16-7.105h-64.348c-1.472.03-3.749.539-5.323 2.197l-164.961 164.962c-2.929 2.929-2.929 7.678 0 10.606 2.93 2.929 7.678 2.927 10.607 0l88.772-88.773h45.772c5.76 0 11.175 2.243 15.248 6.316l137.815 137.815c1.372 1.372 2.128 3.196 2.128 5.137 0 1.94-.756 3.765-2.129 5.137l-137.812 137.815c-4.074 4.074-9.489 6.317-15.249 6.317h-45.772l-141.257-141.257c-4.417-4.418-4.417-11.606 0-16.023l27.596-27.596c2.929-2.929 2.929-7.678 0-10.606-2.93-2.929-7.678-2.929-10.607 0l-27.597 27.596c-10.265 10.266-10.265 26.969 0 37.235l217.447 217.446c1.168 1.07 2.948 2.239 5.304 2.197h64.367c4.837 0 9.113-2.723 11.16-7.105s1.389-9.41-1.716-13.119l-48.15-57.508 10.925-42.816 19.959-19.959 27.429 27.429c4.212 4.212 9.812 6.533 15.769 6.533 5.956 0 11.556-2.32 15.769-6.532l109.41-109.41c8.697-8.697 8.697-22.85 0-31.547l-27.427-27.427 69.043-69.033v224.467l-49.587-49.583c-2.928-2.929-7.677-2.928-10.606 0-2.929 2.929-2.929 7.678.001 10.607l50.804 50.799c7.455 8.323 24.351 3.151 24.39-10.097v-227.92c-.001-5.805-3.466-10.989-8.83-13.206zm-251.618-51.272-11.437-44.823h48.967zm-46.206 14.17h-30.772l51.875-51.876 19.812 77.646c-10.728-10.81-23.58-26.668-40.915-25.77zm83.736 387.529h-48.967l11.437-44.823zm-62.633-7.117-51.875-51.875h30.772c17.205 1.142 30.52-15.379 40.915-25.77zm218.326-210.977-109.41 109.41c-1.379 1.379-3.212 2.139-5.161 2.139-1.95 0-3.782-.76-5.161-2.139l-27.43-27.43 71.403-71.403c4.206-4.206 6.522-9.797 6.522-15.744s-2.316-11.539-6.521-15.744l-71.404-71.404 27.43-27.43c1.379-1.378 3.211-2.138 5.161-2.138 1.949 0 3.782.76 5.161 2.139l109.41 109.41c2.85 2.849 2.85 7.485 0 10.334z"/></g></svg>