<svg id="Capa_1" enable-background="new 0 0 512.023 512.023" height="512" viewBox="0 0 512.023 512.023" width="512" xmlns="http://www.w3.org/2000/svg"><g><g><path d="m442.12 350.283v154.225h-309.189c-6.956 0-13.168-3.16-17.277-8.121-3.235-3.893-5.177-8.887-5.177-14.333v-309.85h153.962l28.364 26.024 138.241 126.858c7.058 6.477 11.076 15.617 11.076 25.197z" fill="#ff8086"/><path d="m431.044 325.086-138.241-126.858-28.364-26.024h-30.569l28.364 26.024 138.241 126.858c7.058 6.477 11.076 15.617 11.076 25.197v154.225h30.569v-154.225c0-9.58-4.018-18.72-11.076-25.197z" fill="#e5646e"/><path d="m56.637 119.853-40.263-3.871v-101.48c0-6.475 8.051-9.46 12.272-4.55l61.666 71.722z" fill="#b8daff"/><g><path d="m22.512 37.105 52.113 62.354 15.687-17.786-61.666-71.722c-4.221-4.91-12.272-1.924-12.272 4.55v20.236c2.152-.279 4.45.404 6.138 2.368z" fill="#a4ccff"/></g><path d="m253.124 119.853 40.263-3.871v-101.48c0-6.475-8.051-9.46-12.272-4.55l-61.666 71.722z" fill="#b8daff"/><path d="m281.115 9.951-26.945 31.34c4.064-.982 8.648 1.912 8.648 6.798v67.893l-12.084 1.162 2.39 2.71 40.263-3.871v-101.481c.001-6.475-8.051-9.46-12.272-4.551z" fill="#a4ccff"/><path d="m292.803 198.228-177.149 298.159c-3.235-3.893-5.177-8.887-5.177-14.333v-309.85h153.962z" fill="#edf4ff"/><path d="m264.439 172.204h-30.569l28.364 26.024-151.757 255.421v28.405c0 5.446 1.941 10.44 5.177 14.333l177.149-298.159z" fill="#dbeaff"/><path d="m482.727 396.565-119.173 107.939h87.613c11.239 0 21.036-7.647 23.766-18.549l20.48-81.784c1.857-7.413-7.022-12.736-12.686-7.606z" fill="#edf4ff"/><path d="m482.727 396.565-24.774 22.439c1.477 1.739 2.213 4.142 1.542 6.823l-15.132 60.129c-2.73 10.902-12.528 18.549-23.766 18.549h30.569c11.239 0 21.036-7.646 23.766-18.549l20.48-81.784c1.858-7.414-7.021-12.737-12.685-7.607z" fill="#dbeaff"/><path d="m293.385 115.984v81.341l-81.07 61.754-45.798 34.895c-6.877 5.24-16.407 5.24-23.284 0l-45.798-34.895-73.193-55.761c-4.957-3.776-7.866-9.65-7.866-15.882v-71.452l73.936-34.309h129.138z" fill="#ff8086"/><path d="m219.449 81.675h-30.569l73.936 34.309v81.341l-81.07 61.754-42.156 32.119 3.643 2.775c6.877 5.24 16.407 5.24 23.284 0l45.798-34.895 81.07-61.754v-81.341z" fill="#e5646e"/><path d="m212.316 259.079-45.798 34.895c-6.877 5.24-16.407 5.24-23.284 0l-45.798-34.895 42.719-32.541c8.696-6.624 20.746-6.624 29.442 0z" fill="#8bb3ea"/><path d="m169.596 226.538c-8.696-6.624-20.746-6.624-29.442 0l-6.34 4.829c6.172-.783 12.579.789 17.786 4.755l30.146 22.956-35.438 27.019c-2.579 1.965-5.531 3.193-8.576 3.684l5.501 4.192c6.877 5.24 16.407 5.24 23.284 0l45.798-34.895z" fill="#739ad6"/></g><path d="m495.747 389.232c-5.793-3.475-13.05-2.761-18.055 1.774l-117.034 106.002h-84.882l158.842-144.78v41.508c0 4.142 3.358 7.5 7.5 7.5s7.5-3.358 7.5-7.5v-43.458c.056-10.186-4.583-22.72-13.499-30.716l-135.233-124.092v-79.485c0-2.92-1.694-5.574-4.343-6.803l-64.94-30.135 54.286-63.142v62.725c0 4.142 3.358 7.5 7.5 7.5s7.5-3.358 7.5-7.5v-64.132c0-6.119-3.708-11.448-9.448-13.576-5.739-2.127-12.022-.504-16.009 4.136l-59.423 69.117h-122.259l-59.413-69.116c-3.989-4.641-10.276-6.264-16.018-4.136s-9.45 7.457-9.45 13.575l.007 172.938c0 8.519 4.045 16.686 10.822 21.848l83.282 63.451v43.718c0 4.142 3.358 7.5 7.5 7.5s7.5-3.358 7.5-7.5v-32.29l20.708 15.777c8.627 6.481 22.147 7.715 32.375 0l96.06-73.179-149.144 251.022v-125.951c0-4.142-3.358-7.5-7.5-7.5s-7.5 3.358-7.5 7.5v130.226c-.583 14.705 13.606 30.512 29.95 29.95l318.238-.004c14.705 0 27.47-9.962 31.042-24.227l20.48-81.784c1.641-6.552-1.149-13.288-6.942-16.761zm-417.59-310.185-54.289 25.192v-88.347zm-54.282 108.388v-66.663l68.091-31.597h125.828l68.091 31.597v72.837l-73.567 56.044-38.178-29.082c-11.343-8.641-27.188-8.64-38.531 0l-38.176 29.08-68.646-52.3c-3.076-2.342-4.912-6.049-4.912-9.916zm133.034 102.779c-2.204.193-4.586.708-9.131-2.206l-37.967-28.928 34.888-26.576c5.992-4.564 14.361-4.564 20.353 0l34.888 26.575-37.968 28.929c-1.521 1.159-3.262 1.89-5.063 2.206zm-31.646 204.676 169.268-284.895 131.446 120.618c1.69 1.551 3.156 3.304 4.378 5.205l-176.847 161.19h-120.579c-2.742 0-5.377-.749-7.666-2.118zm362.875-92.541-20.48 81.784c-1.897 7.578-8.679 12.87-16.491 12.87h-68.16l104.755-94.88c.061-.056.103-.083.108-.092.097.012.263.112.293.147.001.002.005.053-.025.171z"/></g></svg>