<svg id="Capa_1" enable-background="new 0 0 511.984 511.984" height="512" viewBox="0 0 511.984 511.984" width="512" xmlns="http://www.w3.org/2000/svg"><g><g><path d="m418.597 504.484h-356.12l119.849-167.324h173.566c7.691 0 14.467 5.055 16.659 12.427z" fill="#b8daff"/><path d="m372.551 349.587c-2.192-7.372-8.968-12.427-16.659-12.427h-28.972c7.691 0 14.467 5.055 16.659 12.427l46.046 154.897h28.972z" fill="#a4ccff"/><path d="m62.477 504.484-37.031-124.306c-1.793-6.02-.637-12.533 3.118-17.569l80.767-108.294 72.995 82.845z" fill="#edf4ff"/><path d="m109.331 254.315-13.281 17.808 57.304 65.037-99.387 138.757 8.51 28.567 119.849-167.324z" fill="#dbeaff"/><path d="m109.331 254.315 106.969-153.426v83.76c0 2.277-.255 4.546-.761 6.766l-33.213 145.745z" fill="#b8daff"/><path d="m187.328 142.444v42.205c0 2.277-.255 4.546-.761 6.766l-27.259 119.62 23.019 26.125 33.212-145.745c.506-2.22.761-4.489.761-6.766v-83.76z" fill="#a4ccff"/><path d="m216.3 100.889v-45.375c0-3.528-1.611-6.864-4.375-9.057l-49.11-38.973v170.118z" fill="#8bb3ea"/><path d="m211.925 46.457-49.11-38.973v22.992l20.137 15.981c2.764 2.193 4.375 5.529 4.375 9.057v45.375l-24.512 35.158v41.555l53.484-76.713v-45.375c.001-3.529-1.61-6.864-4.374-9.057z" fill="#739ad6"/><path d="m162.815 7.484-69.9 48.872c-2.398 1.677-1.212 5.444 1.714 5.444h68.186z" fill="#ff8086"/><path d="m418.597 504.484 68.007-129.743c2.726-5.201-2.402-11.021-7.905-8.973l-91.24 33.97z" fill="#8bb3ea"/><path d="m478.7 365.769-28.883 10.754c2.922 1.516 4.58 5.227 2.771 8.678l-44.429 84.171 10.438 35.113 68.007-129.743c2.726-5.201-2.402-11.022-7.904-8.973z" fill="#739ad6"/></g><path d="m491.366 362.58c-3.84-4.36-9.841-5.868-15.283-3.84l-58.286 21.701c-3.882 1.445-5.857 5.764-4.412 9.646s5.764 5.855 9.646 4.412l55.601-20.702-58.106 110.853-40.786-137.2c-3.113-10.475-12.92-17.791-23.848-17.791h-164.165l31.124-136.58c.629-2.763.948-5.599.948-8.431v-129.134c0-5.852-2.629-11.295-7.213-14.932l-49.109-38.973c-2.284-1.752-5.951-2.396-8.959-.271l-69.899 48.871c-3.773 2.637-5.379 7.359-3.997 11.75s5.405 7.341 10.008 7.341h60.685v63.161c0 4.142 3.358 7.5 7.5 7.5s7.5-3.358 7.5-7.5v-109.45l36.947 29.321c.977.775 1.537 1.935 1.537 3.182v43.018l-105.552 151.395-80.695 108.198c-5.146 6.9-6.751 15.944-4.293 24.194l37.031 124.306c1.002 2.783 3.285 5.324 7.188 5.359h356.12c2.274-.086 5.163-1.101 6.643-4.018l68.007-129.742c2.696-5.144 1.957-11.285-1.882-15.644zm-382.42-308.28 46.37-32.421v32.421zm99.28 135.448-29.958 131.462-59.418-67.435 89.95-129.015v59.889c0 1.713-.193 3.429-.574 5.099zm-173.65 177.345 75.239-100.883 62.939 71.432-107.459 150.029-32.66-109.635c-1.112-3.731-.386-7.822 1.941-10.943zm151.603-22.433h169.712c4.339 0 8.233 2.905 9.47 7.064l43.182 145.26h-331.468z"/></g></svg>