<svg id="Capa_1" enable-background="new 0 0 512.005 512.005" height="512" viewBox="0 0 512.005 512.005" width="512" xmlns="http://www.w3.org/2000/svg"><g><g><path d="m319.713 500.351c-1.946 2.508-4.985 4.153-8.451 4.153h-111.141c-6.099 0-10.813-5.339-10.054-11.386l15.351-123.017 16.766-134.392h67.628l32.045 256.795c.365 2.934-.489 5.713-2.144 7.847z" fill="#f6d190"/><path d="m321.857 492.503-32.045-256.795h-26.69l32.045 256.795c.364 2.935-.489 5.714-2.144 7.847-1.946 2.508-4.985 4.153-8.451 4.153h26.69c3.466 0 6.505-1.644 8.451-4.153 1.655-2.133 2.509-4.912 2.144-7.847z" fill="#ecbd83"/><path d="m319.713 500.351c-1.946 2.508-4.985 4.153-8.451 4.153h-111.141c-6.099 0-10.813-5.339-10.054-11.386l15.351-123.017z" fill="#ffe09f"/><path d="m205.418 370.101-3.323 26.629 90.928 103.621c-1.946 2.508-4.985 4.153-8.451 4.153h26.69c3.466 0 6.505-1.644 8.451-4.153z" fill="#f6d190"/><path d="m205.419 370.103-8.37 67.06-19.59-24.86-26.2-33.26c-2.85-3.62-.27-8.94 4.34-8.94z" fill="#e2a975"/><path d="m205.419 370.103-8.37 67.06-19.59-24.86 5.27-42.2z" fill="#d19a6e"/><path d="m297.943 300.864h47.447c4.495 0 7.108 5.083 4.492 8.738l-43.299 60.498z" fill="#e2a975"/><path d="m345.391 300.864h-26.491c4.495 0 7.108 5.083 4.492 8.738l-20.742 28.981 3.933 31.518 43.299-60.498c2.617-3.656.004-8.739-4.491-8.739z" fill="#d19a6e"/><path d="m398.739 133.153c0 2.61-.68 5.21-2.03 7.56l-63.8 110.52c-.04.08-.08.14-.12.2-1.35 2.25-3.22 4.07-5.42 5.33-2.25 1.31-4.85 2.03-7.55 2.03h-127.63c-5.4 0-10.39-2.88-13.09-7.56l-63.81-110.52c-2.71-4.68-2.71-10.44 0-15.12l54.83-94.98 8.98-15.55c1.35-2.34 3.28-4.23 5.54-5.53 2.25-1.31 4.86-2.03 7.55-2.03h127.63c5.32 0 10.24 2.8 12.97 7.36.04.06.08.13.12.2l31.9 55.27 31.9 55.26c1.35 2.35 2.03 4.95 2.03 7.56z" fill="#e1ffa0"/><path d="m372.049 133.153c0 2.61-.68 5.21-2.03 7.56l-31.9 55.26-32.02 55.46c-1.35 2.25-3.22 4.07-5.42 5.33l-71.36-123.61-59.2-102.54 8.98-15.55c1.35-2.34 3.28-4.23 5.54-5.53 2.25-1.31 4.86-2.03 7.55-2.03h100.94c5.32 0 10.24 2.8 12.97 7.36l32.02 55.47 31.9 55.26c1.35 2.35 2.03 4.95 2.03 7.56z" fill="#ccf49f"/><path d="m396.708 125.597-31.899-55.264-31.899-55.274c-.042-.062-.083-.135-.125-.198-2.727-4.558-7.65-7.358-12.968-7.358h-26.69c5.318 0 10.241 2.8 12.968 7.358.042.062.083.135.125.198l31.899 55.274 31.899 55.264c1.353 2.342 2.03 4.944 2.03 7.556s-.677 5.214-2.03 7.556l-31.899 55.264-31.899 55.264c-.042.073-.083.135-.125.198-1.343 2.248-3.216 4.069-5.412 5.329-2.259 1.311-4.85 2.029-7.556 2.029h26.69c2.706 0 5.297-.718 7.556-2.029 2.196-1.259 4.069-3.081 5.412-5.329.042-.062.083-.125.125-.198l31.899-55.264 31.899-55.264c1.353-2.342 2.03-4.944 2.03-7.556s-.677-5.214-2.03-7.556z" fill="#ccf49f"/><path d="m398.738 133.153c0 2.612-.677 5.214-2.03 7.556l-31.899 55.264-32.024 55.462c-1.343 2.248-3.216 4.069-5.412 5.329l-71.364-123.61-71.375-123.621c2.258-1.311 4.86-2.029 7.556-2.029h127.627c5.318 0 10.241 2.8 12.968 7.358l32.024 55.472 31.899 55.264c1.353 2.341 2.03 4.943 2.03 7.555z" fill="#b3e59f"/><path d="m396.708 125.597-63.923-110.736c-2.727-4.558-7.65-7.358-12.968-7.358h-26.69c5.318 0 10.241 2.8 12.968 7.358l63.923 110.736c1.353 2.342 2.03 4.944 2.03 7.556s-.677 5.214-2.03 7.556l-54.821 94.963 12.177 21.091c2.196-1.259 4.069-3.081 5.412-5.329l63.923-110.725c1.353-2.342 2.03-4.944 2.03-7.556s-.678-5.214-2.031-7.556z" fill="#95d6a4"/><path d="m398.738 133.153c0 2.612-.677 5.214-2.03 7.556l-31.899 55.264-32.024 55.462c-1.343 2.248-3.216 4.069-5.412 5.329l-71.364-123.61h142.729z" fill="#78c2a4"/><path d="m372.048 133.153c0 2.612-.677 5.214-2.03 7.556l-54.818 94.97 12.173 21.085c2.196-1.259 4.069-3.081 5.412-5.329l63.923-110.725c1.353-2.342 2.03-4.944 2.03-7.556h-26.69z" fill="#5aa0a5"/></g><path d="m319.818 266.292c6.496.069 15.739-3.947 19.588-11.306l63.797-110.526c1.985-3.438 3.035-7.347 3.035-11.307s-1.05-7.87-3.034-11.306l-31.899-55.264c-2.07-3.588-6.659-4.817-10.244-2.746-3.588 2.071-4.817 6.658-2.746 10.245l29.768 51.57h-127.746l-63.884-110.65h123.365c2.083.02 5.096 1.125 6.525 3.699l14.234 24.657c2.071 3.588 6.66 4.816 10.245 2.746 3.587-2.071 4.816-6.658 2.745-10.245l-13.983-24.222c-3.854-6.779-11.326-11.725-19.767-11.635h-127.627c-6.73-.132-15.374 3.923-19.588 11.306l-63.804 110.53c-4.041 6.979-4.04 15.649-.004 22.62l63.813 110.536c4.035 6.969 11.539 11.297 19.583 11.297h18.624l-8.518 68.261c-.513 4.11 2.403 7.858 6.514 8.371 3.172.405 7.281-1.734 8.371-6.514l8.75-70.119h60.135l26.824 214.912-101.835-116.05c-1.296-1.426-3.234-2.563-5.701-2.553l-49.754.004c-5.031 0-9.52 2.813-11.716 7.339s-1.625 9.793 1.487 13.744l43.847 55.66-6.593 52.835c-1.172 9.171 6.076 19.796 17.495 19.821h111.138c9.739.156 19.343-8.927 18.042-20.429l-14.914-119.491 41.594-58.116c2.854-3.987 3.234-9.173.993-13.534-2.242-4.36-6.68-7.069-11.583-7.069h-40.829l-3.379-27.072h18.636zm21.727 42.072-29.896 41.771-5.212-41.771zm-144.621 69.237-5.095 40.819-32.154-40.816zm3.197 119.402c-1.498-.705-1.924.461-2.61-2.961l13.283-106.444 96.003 109.405zm68.878-356.35h119.081l-59.539 103.133zm-83.406 106.834-63.813-110.536c-1.356-2.343-1.356-5.253.005-7.604l61.677-106.846 132.093 228.791h-123.365c-2.71 0-5.24-1.461-6.597-3.805z"/></g></svg>