<svg id="Capa_1" enable-background="new 0 0 511.954 511.954" height="512" viewBox="0 0 511.954 511.954" width="512" xmlns="http://www.w3.org/2000/svg"><g><g><path d="m289.426 504.453h-66.898c-4.766 0-8.447-4.19-7.833-8.917l22.295-171.567h37.973l22.295 171.567c.615 4.727-3.066 8.917-7.832 8.917z" fill="#f6d190"/><path d="m297.259 495.537-22.295-171.567h-25.659l22.295 171.567c.614 4.727-3.066 8.917-7.833 8.917h25.659c4.766-.001 8.447-4.191 7.833-8.917z" fill="#ecbd83"/><path d="m420.064 353.009h-328.175c-4.041 0-6.308-4.653-3.818-7.836l167.906-214.613 82.165 105.017 85.741 109.596c2.49 3.183.222 7.836-3.819 7.836z" fill="#78c2a4"/><path d="m420.067 353.013h-328.18c-4.04 0-6.31-4.66-3.82-7.84l167.91-214.61 82.16 105.01 85.75 109.6c2.49 3.18.22 7.84-3.82 7.84z" fill="#78c2a4"/><path d="m420.067 353.013h-166.99l59.41-117.44h25.65l85.75 109.6c2.49 3.18.22 7.84-3.82 7.84z" fill="#5aa0a5"/><path d="m378.006 235.582h-244.059c-4.041 0-6.308-4.653-3.819-7.836l125.849-160.858 125.848 160.858c2.489 3.183.222 7.836-3.819 7.836z" fill="#b3e59f"/><path d="m381.825 227.747-125.848-160.859-12.829 16.398 113.018 144.46c2.49 3.183.222 7.836-3.818 7.836h25.659c4.04 0 6.307-4.653 3.818-7.835z" fill="#95d6a4"/><path d="m348.897 138.943h-185.84c-4.04 0-6.31-4.65-3.82-7.84l71.08-90.85 25.66-32.8 96.74 123.65c2.49 3.19.22 7.84-3.82 7.84z" fill="#e1ffa0"/><path d="m348.897 138.943h-118.58v-98.69l25.66-32.8 96.74 123.65c2.49 3.19.22 7.84-3.82 7.84z" fill="#ccf49f"/><path d="m420.064 353.009h-141.325l59.403-117.431 85.741 109.596c2.49 3.182.222 7.835-3.819 7.835z" fill="#b3e59f"/><path d="m423.883 345.173-85.741-109.596-10.076 19.918 70.158 89.677c2.49 3.183.222 7.836-3.818 7.836h25.659c4.04.001 6.308-4.652 3.818-7.835z" fill="#95d6a4"/><path d="m348.899 138.943h-92.923v-131.49l96.741 123.654c2.491 3.183.223 7.836-3.818 7.836z" fill="#b3e59f"/><path d="m352.718 131.107-96.741-123.654v32.797l71.083 90.857c2.49 3.183.222 7.836-3.818 7.836h25.659c4.039 0 6.307-4.653 3.817-7.836z" fill="#95d6a4"/></g><path d="m429.794 340.552-76.257-97.469h24.469c4.759 0 9.011-2.657 11.098-6.933 2.088-4.278 1.564-9.268-1.371-13.028l-59.996-76.679h21.163c4.762 0 9.015-2.659 11.101-6.939s1.559-9.269-1.375-13.018l-96.742-123.654c-2.591-3.405-8.799-4.128-11.814 0l-96.741 123.654c-2.934 3.75-3.461 8.738-1.375 13.018s6.339 6.939 11.101 6.939h145.637l63.878 81.64h-233.186l40.811-52.158c2.552-3.262 1.977-7.976-1.285-10.528-3.262-2.551-7.976-1.979-10.529 1.285l-44.165 56.446c-2.931 3.754-3.454 8.744-1.366 13.022 2.087 4.276 6.339 6.933 11.098 6.933h24.47l-76.254 97.466c-2.936 3.748-3.464 8.737-1.378 13.02 2.086 4.284 6.341 6.945 11.103 6.945h132.792l-17.421 134.044c-1.077 7.733 5.198 17.378 15.267 17.395h66.9c7.801.065 16.558-7.411 15.268-17.386l-13.938-107.261c-.533-4.108-4.294-7.003-8.404-6.471-4.107.534-7.005 4.296-6.471 8.404l13.939 107.27c-.043-.009.068.384-.394.445h-66.9c.022-.043-.398.022-.393-.454l17.671-135.986h180.261c4.762 0 9.017-2.661 11.103-6.945 2.086-4.283 1.558-9.272-1.375-13.017zm-181.317-311.341v102.231h-79.981zm15 0 79.981 102.231h-79.981zm151.146 316.298h-123.685l48.569-96.015zm-237.161-102.426h148.478l-51.815 102.43h-176.802z"/></g></svg>