<svg id="Capa_1" enable-background="new 0 0 512.007 512.007" height="512" viewBox="0 0 512.007 512.007" width="512" xmlns="http://www.w3.org/2000/svg"><g><g><path d="m496.901 309.409h-319.434l133.748-174.43 24.639-32.135c4.55-5.934 13.49-5.934 18.04 0l24.639 32.135 124.39 162.225c3.827 4.992.268 12.205-6.022 12.205z" fill="#b8daff"/><path d="m502.923 297.204-124.39-162.225-24.639-32.135c-4.55-5.934-13.49-5.934-18.04 0l-4.598 5.997 20.041 26.138 124.39 162.225c3.827 4.991.269 12.205-6.021 12.205h27.236c6.289 0 9.848-7.213 6.021-12.205z" fill="#a4ccff"/><path d="m275.258 309.409h-261.811c-4.919 0-7.702-5.641-4.709-9.544l96.477-125.82 26.914-35.104c3.131-4.084 9.286-4.084 12.417 0l26.914 35.104z" fill="#edf4ff"/><path d="m171.462 174.045-26.915-35.104c-3.131-4.084-9.286-4.084-12.417 0l-7.409 9.664 19.505 25.44 103.796 135.364h27.236z" fill="#dbeaff"/><path d="m171.462 174.045-26.999 35.209c-3.089 4.028-9.158 4.028-12.247 0l-26.999-35.209 26.914-35.104c3.131-4.084 9.286-4.084 12.417 0z" fill="#b8daff"/><path d="m144.548 138.941c-3.131-4.084-9.286-4.084-12.417 0l-10.27 13.395c2.84-.633 5.971.325 7.926 2.874l14.44 18.835-14.287 18.645c-2.056 2.682-5.432 3.567-8.372 2.678l10.648 13.885c3.089 4.028 9.158 4.028 12.247 0l27-35.208z" fill="#a4ccff"/><path d="m378.533 134.979-27.536 35.906c-3.089 4.028-9.158 4.028-12.247 0l-27.536-35.906 24.639-32.135c4.55-5.934 13.49-5.934 18.04 0z" fill="#edf4ff"/><path d="m353.894 102.844c-4.55-5.934-13.49-5.934-18.04 0l-6.344 8.274c2.552.526 4.955 1.921 6.707 4.205l15.08 19.656-15.886 20.668c-1.524 1.987-3.774 2.99-6.034 3.016l9.373 12.222c3.089 4.028 9.158 4.028 12.247 0l27.536-35.906z" fill="#dbeaff"/><path d="m261.174 200.243-34.81 45.4-13.64-17.78-41.26-53.82-26.92-35.1c-.58-.77-1.28-1.39-2.04-1.87l99.26 52.97z" fill="#8bb3ea"/><path d="m261.173 200.242-34.81 45.4-13.62-17.76 29.02-37.84z" fill="#739ad6"/><path d="m177.467 309.409 167.407 104.142 152.027-104.142z" fill="#f6d190"/><path d="m469.666 309.409-139.066 95.262 14.274 8.88 152.027-104.142z" fill="#ecbd83"/><path d="m344.873 413.552h-211.53l94.32-55.97 13.94-8.27z" fill="#e2a975"/><path d="m344.873 413.552h-27.24l-89.97-55.97 13.94-8.27z" fill="#d19a6e"/><path d="m241.603 349.312-13.94 8.27-94.32 55.97h-120.59c-5.16 0-6.97-6.85-2.48-9.39l152.94-86.67 14.25-8.08z" fill="#e2a975"/><path d="m241.603 349.312-13.94 8.27-64.45-40.09 14.25-8.08z" fill="#d19a6e"/></g><path d="m508.875 292.638-149.032-194.361c-6.828-8.734-21.339-10.736-29.942.002l-70.834 92.384-113.031-60.207c-5.093-3.248-15.077-2.641-19.856 3.921l-123.392 160.924c-3.136 4.088-3.667 9.498-1.388 14.118s6.896 7.49 12.047 7.49h135.575l-142.446 80.73c-5.02 2.845-7.403 8.504-5.933 14.084 1.471 5.579 6.336 9.328 12.105 9.328h332.125c.75.004 2.839-.287 4.238-1.313l114.711-78.579c3.417-2.341 4.29-7.009 1.949-10.426-2.34-3.417-7.01-4.291-10.426-1.949l-110.67 75.811-140.95-87.683h293.176c5.787 0 10.972-3.225 13.531-8.417 2.563-5.191 1.964-11.268-1.557-15.857zm-11.967 9.271c-.002 0-.004 0-.006 0h-217.944l-43.143-56.266 75.399-98.34 21.584 28.146c2.903 3.786 7.304 5.957 12.074 5.957 4.771 0 9.172-2.171 12.075-5.957l21.583-28.143 118.473 154.483c.001.036-.036.106-.095.12zm-358.825-158.405c0 .011.265-.258.51.004l23.417 30.538-23.498 30.644c-.068.087-.277.087-.345 0l-23.5-30.645zm206.79-37.609c.45.41.293-.871 3.068 1.513l21.139 27.573-24.035 31.34c-.067.086-.276.087-.345 0l-24.035-31.342 21.14-27.571c.69-.372-.246-.754 3.068-1.513zm-95.068 96.847-23.442 30.574-55.794-72.764zm-144.59-16.373 21.049 27.449c2.903 3.786 7.304 5.957 12.075 5.957s9.171-2.171 12.074-5.957l21.047-27.447 88.594 115.538h-243.431zm72.073 131.762 49.876 31.028-27.783 16.485c-3.563 2.114-4.736 6.715-2.623 10.277 2.114 3.563 6.718 4.736 10.277 2.623l34.479-20.458 77.105 47.965h-157.942l15.927-9.45c3.563-2.114 4.736-6.715 2.623-10.277-2.113-3.563-6.716-4.734-10.277-2.623l-37.668 22.351h-109.126z"/></g></svg>