<svg id="Capa_1" enable-background="new 0 0 511.89 511.89" height="512" viewBox="0 0 511.89 511.89" width="512" xmlns="http://www.w3.org/2000/svg"><g><g><path d="m487.319 364.43v120.667c0 10.655-8.638 19.292-19.292 19.292h-424.152c-10.655 0-19.292-8.638-19.292-19.292v-477.707z" fill="#8bb3ea"/><path d="m24.583 7.39v25.564l432.651 333.827-.088 118.317c0 10.655-11.596 19.292-22.251 19.292h33.131c10.655 0 19.292-8.637 19.292-19.292v-120.668z" fill="#739ad6"/><path d="m487.321 364.43-336.24 26.27c-16.97 1.32-32.42-9.78-36.58-26.29l-89.92-357.02 221.92 171.23 71.06 54.83z" fill="#edf4ff"/><path d="m487.321 364.43-30.08 2.35-424.67-327.66-7.99-31.73z" fill="#dbeaff"/><path d="m317.561 233.45h-54.71c-2.42 0-4.84-.45-7.04-1.48-5.84-2.75-9.31-8.5-9.31-14.6v-38.75z" fill="#dbeaff"/><path d="m406.429 122.795-78.491 78.491h46.303c5.592 0 10.125 4.533 10.125 10.125v11.913c0 5.592-4.533 10.125-10.125 10.125h-84.855c-2.423 0-4.846-.45-7.038-1.482-5.846-2.751-9.316-8.496-9.316-14.6v-85.126c0-5.592 4.533-10.125 10.126-10.125h11.913c5.592 0 10.125 4.533 10.125 10.125v46.301l78.49-78.491c3.954-3.954 10.365-3.954 14.319 0l8.424 8.424c3.955 3.955 3.955 10.366 0 14.32z" fill="#ff8086"/><g fill="#e5646e"><path d="m406.429 108.476-8.424-8.424c-3.954-3.954-10.365-3.954-14.319 0l-6.107 6.107 2.317 2.317c3.954 3.954 3.954 10.365 0 14.319l-70.015 70.015c-3.128 3.128-.913 8.476 3.511 8.476h14.546l78.491-78.491c3.955-3.954 3.955-10.365 0-14.319z"/><path d="m374.241 201.286h-26.532c5.592 0 10.125 4.534 10.125 10.125v11.913c0 5.592-4.532 10.124-10.124 10.125h26.532c5.592 0 10.125-4.533 10.125-10.125v-11.913c0-5.591-4.534-10.125-10.126-10.125z"/></g></g><g><path d="m487.319 393.061c-4.142 0-7.5 3.357-7.5 7.5v84.537c0 6.929-5.731 11.792-8.834 11.792h-424.151c-8.823 0-14.75-4.739-14.75-11.792v-417.214l75.145 298.357c5.022 19.496 23.621 33.728 44.426 31.937l336.24-26.27c3.093-.242 5.718-2.362 6.604-5.336.886-2.973-.15-6.185-2.606-8.079l-152.336-117.544h34.684c9.719 0 17.625-7.906 17.625-17.625v-11.913c0-9.719-7.907-17.625-17.625-17.625h-28.197l65.688-65.688c3.329-3.329 5.162-7.756 5.162-12.463 0-4.708-1.833-9.135-5.162-12.463l-8.424-8.425c-6.872-6.871-18.054-6.87-24.925 0l-65.688 65.688v-28.194c0-9.719-7.907-17.625-17.625-17.625l-11.913-.001c-9.719 0-17.625 7.907-17.625 17.626v85.126c0 3.249.693 6.403 1.947 9.3l-4.366 4.604c-2.85 3.006-2.724 7.753.282 10.603 2.451 2.131 6.737 3.208 10.603-.282l3.509-3.7c2.914 1.636 6.438 2.852 11.88 3.058h25.618l152.305 117.521-316.82 24.752c-3.403.266-6.72-.101-9.831-1.007l3.983-4.201c2.851-3.006 2.725-7.753-.281-10.604-3.006-2.849-7.753-2.725-10.603.281l-5.988 6.315c-2.799-3.188-4.895-7.064-5.995-11.43l-84.633-336.022 199.389 153.845c3.279 2.533 7.989 1.922 10.52-1.355 2.53-3.28 1.923-7.989-1.356-10.52l-216.532-167.073c-3.955-3.397-12.463-.599-12.08 5.938v477.708c0 15.524 12.512 26.792 29.75 26.792h424.152c12.474 0 23.834-12.77 23.834-26.792v-84.537c0-4.143-3.358-7.5-7.5-7.5zm-201.776-167.879c-3.09-1.454-5.01-4.449-5.01-7.814v-85.126c0-1.448 1.178-2.626 2.625-2.626l11.913.001c1.447 0 2.625 1.178 2.625 2.625v46.301c0 3.033 1.827 5.769 4.63 6.929 2.801 1.162 6.029.52 8.173-1.625l78.491-78.49c1.023-1.023 2.689-1.022 3.713-.001l8.423 8.425c1.023 1.023 1.023 2.688 0 3.712l-78.491 78.491c-2.145 2.146-2.787 5.371-1.626 8.174s3.896 4.63 6.929 4.63h46.303c1.448 0 2.625 1.178 2.625 2.625v11.913c0 1.447-1.178 2.625-2.625 2.625h-84.855c-1.447-.002-2.777-.267-3.843-.769z"/><path d="m236.966 258.846-8.257 8.708c-2.85 3.006-2.724 7.753.282 10.603 1.451 1.375 3.307 2.058 5.159 2.058 1.986 0 3.969-.784 5.444-2.34l8.257-8.708c2.85-3.006 2.724-7.753-.282-10.603-3.005-2.85-7.753-2.725-10.603.282z"/><path d="m168.16 331.41-8.257 8.708c-2.85 3.006-2.724 7.753.282 10.603 1.451 1.375 3.307 2.058 5.159 2.058 1.986 0 3.969-.784 5.444-2.34l8.257-8.708c2.85-3.006 2.724-7.753-.282-10.603-3.007-2.848-7.754-2.724-10.603.282z"/><path d="m202.563 295.128-8.257 8.708c-2.85 3.006-2.724 7.753.282 10.603 1.451 1.375 3.307 2.058 5.159 2.058 1.986 0 3.969-.784 5.444-2.34l8.257-8.708c2.85-3.006 2.724-7.753-.282-10.603-3.006-2.849-7.753-2.724-10.603.282z"/></g></g></svg>