<svg id="Capa_1" enable-background="new 0 0 511.96 511.96" height="512" viewBox="0 0 511.96 511.96" width="512" xmlns="http://www.w3.org/2000/svg"><g><g><path d="m460.552 256-52.56 63.94-151.72 184.56-26.79-32.59-177.51-215.91 204.3-248.5z" fill="#8bb3ea"/><path d="m429.722 256-21.73 63.94-151.72 184.56-26.79-32.59 36.31-292.57c1.11-9.08 11.19-14.02 19.05-9.33z" fill="#739ad6"/><path d="m256.267 7.5-15.411 18.746 188.871 229.754-188.871 229.754 15.411 18.746 204.282-248.5z" fill="#739ad6"/><path d="m256.267 504.5-39.829-325.973c-1.109-9.08-11.191-14.019-19.046-9.33l-145.417 86.803z" fill="#edf4ff"/><path d="m185.827 192.761 33.982 267.392 36.458 44.348-39.829-325.973c-1.109-9.08-11.191-14.019-19.046-9.33l-21.36 12.75c4.94 1.121 9.105 5.163 9.795 10.813z" fill="#dbeaff"/><path d="m460.552 256-74.5 90.62-52.68 64.08-77.12 93.8 39.83-325.97c1.11-9.08 11.19-14.02 19.05-9.33z" fill="#edf4ff"/><path d="m386.052 346.62-52.68 64.08v-48c0-6.1 3.47-11.84 9.32-14.6 2.19-1.03 4.61-1.48 7.04-1.48z" fill="#dbeaff"/><path d="m315.131 169.196c-7.855-4.689-17.936.25-19.046 9.33l-.371 3.034c3.327-1.135 7.144-.915 10.545 1.115l123.468 73.325-168.09 204.463-5.381 44.037 204.293-248.5z" fill="#dbeaff"/><path d="m486.594 457.277-78.491-78.491h46.303c5.592 0 10.125-4.533 10.125-10.125v-11.913c0-5.592-4.533-10.125-10.125-10.125h-84.855c-2.423 0-4.846.45-7.038 1.482-5.846 2.751-9.316 8.496-9.316 14.6v85.126c0 5.592 4.533 10.125 10.126 10.125h11.913c5.592 0 10.125-4.533 10.125-10.125v-46.301l78.49 78.491c3.954 3.954 10.365 3.954 14.319 0l8.424-8.424c3.954-3.955 3.954-10.366 0-14.32z" fill="#ff8086"/><g fill="#e5646e"><path d="m486.594 457.277-78.491-78.491h-13.468c-2.345 0-3.519 2.835-1.861 4.493l73.998 73.998c3.954 3.954 3.954 10.365 0 14.319l-5.672 5.672 2.751 2.751c3.954 3.954 10.365 3.954 14.319 0l8.424-8.423c3.954-3.954 3.954-10.365 0-14.319z"/><path d="m444.709 356.747v11.913c0 5.592-4.533 10.125-10.125 10.125h19.822c5.592 0 10.125-4.533 10.125-10.125v-11.913c0-5.592-4.533-10.125-10.125-10.125h-19.821c5.591 0 10.124 4.533 10.124 10.125z"/></g><path d="m25.365 457.277 78.491-78.491h-46.303c-5.592 0-10.125-4.533-10.125-10.125v-11.913c0-5.592 4.533-10.125 10.125-10.125h84.855c2.423 0 4.846.45 7.038 1.482 5.846 2.751 9.316 8.496 9.316 14.6v85.126c0 5.592-4.533 10.125-10.126 10.125h-11.913c-5.592 0-10.125-4.533-10.125-10.125v-46.301l-78.49 78.491c-3.954 3.954-10.365 3.954-14.319 0l-8.424-8.424c-3.954-3.955-3.954-10.366 0-14.32z" fill="#ff8086"/><g fill="#e5646e"><path d="m158.762 362.7v85.13c0 5.59-4.53 10.13-10.13 10.13h-11.91c-1.4 0-2.74-.29-3.95-.81 3.62-1.54 6.17-5.13 6.17-9.32v-85.13c0-6.1-3.47-12.85-9.32-15.6-.38-.18-.77-.34-1.16-.48h13.95c2.42 0 4.84.45 7.03 1.48 5.85 2.76 9.32 8.5 9.32 14.6z"/><path d="m126.509 388.214c-.012-1.796-2.178-2.695-3.458-1.435l-84.614 83.859c-3.46 3.46-8.802 3.892-12.733 1.296l8.085 8.085c3.954 3.954 10.365 3.954 14.319 0l78.49-78.491z"/></g></g><g><path d="m256.267 177c-4.142 0-7.5-3.357-7.5-7.5v-12c0-4.143 3.358-7.5 7.5-7.5s7.5 3.357 7.5 7.5v12c0 4.143-3.358 7.5-7.5 7.5zm0-50c-4.142 0-7.5-3.357-7.5-7.5v-12c0-4.143 3.358-7.5 7.5-7.5s7.5 3.357 7.5 7.5v12c0 4.143-3.358 7.5-7.5 7.5zm0-50c-4.142 0-7.5-3.357-7.5-7.5v-12c0-4.143 3.358-7.5 7.5-7.5s7.5 3.357 7.5 7.5v12c0 4.143-3.358 7.5-7.5 7.5z"/><path d="m491.897 451.973-65.688-65.688h28.197c9.719 0 17.625-7.906 17.625-17.625v-11.913c0-9.719-7.907-17.625-17.625-17.625h-84.855c-3.692 0-7.134.738-10.232 2.195-8.275 3.896-13.622 12.29-13.622 21.387v21.195l-78.876 95.94 36.705-300.398c.306-2.504 2.094-3.634 2.849-4.004.754-.369 2.743-1.09 4.913.204l137.934 82.331-42.563 51.772c-2.63 3.199-2.169 7.926 1.031 10.557 3.199 2.631 7.927 2.168 10.556-1.031l48.1-58.507c.218-.275.427-.553.599-.857 1.702-2.695 1.378-6.409-.713-8.802l-204.171-248.367c-1.424-1.733-3.55-2.737-5.794-2.737-2.243 0-4.369 1.004-5.793 2.737l-82.917 100.86c-2.63 3.199-2.169 7.926 1.031 10.557s7.926 2.169 10.556-1.031l77.124-93.813 171.118 208.158-108.411-64.708c-5.877-3.507-13.054-3.805-19.2-.793-6.144 3.01-10.308 8.862-11.138 15.654l-24.87 203.537v-166.525c0-4.143-3.358-7.5-7.5-7.5s-7.5 3.357-7.5 7.5v166.612l-24.88-203.625c-.831-6.791-4.994-12.644-11.138-15.653-6.145-3.011-13.323-2.715-19.2.793l-108.408 64.707 71.478-86.945c2.63-3.199 2.169-7.926-1.031-10.557-3.199-2.63-7.925-2.168-10.556 1.031l-98.742 120.11c-2.351 2.667-2.403 6.937-.111 9.657l64.42 78.359h-53.046c-9.719 0-17.625 7.906-17.625 17.625v11.913c0 9.719 7.907 17.625 17.625 17.625h28.197l-65.688 65.688c-6.872 6.872-6.872 18.055 0 24.926l8.423 8.425c3.437 3.437 7.949 5.153 12.463 5.153 4.513 0 9.027-1.718 12.463-5.153l65.688-65.688v28.194c0 9.718 7.906 17.624 17.625 17.626h11.913c9.719 0 17.625-7.907 17.625-17.626v-41.007l84.196 102.42c2.836 3.626 8.771 3.617 11.607 0l83.632-101.725v40.312c0 9.719 7.907 17.626 17.625 17.626h11.914c9.718-.002 17.624-7.908 17.624-17.626v-28.194l65.688 65.688c3.436 3.436 7.949 5.153 12.462 5.153s9.028-1.719 12.463-5.154l8.423-8.423c6.873-6.873 6.873-18.055.001-24.927zm-340.635-4.143c0 1.448-1.178 2.626-2.625 2.626h-11.911c-1.448 0-2.626-1.179-2.626-2.626v-46.301c0-3.033-1.827-5.769-4.63-6.929-2.801-1.16-6.028-.52-8.173 1.625l-78.491 78.49c-1.023 1.025-2.689 1.024-3.713.001l-8.423-8.425c-1.023-1.023-1.023-2.688 0-3.712l78.491-78.491c2.145-2.146 2.787-5.371 1.626-8.174s-3.896-4.63-6.929-4.63h-46.305c-1.448 0-2.625-1.178-2.625-2.625v-11.913c0-1.447 1.178-2.625 2.625-2.625h84.855c1.448 0 2.777.266 3.844.768 3.09 1.454 5.01 4.449 5.01 7.814zm15-64.627v-20.499c0-9.097-5.347-17.491-13.624-21.388-3.096-1.456-6.538-2.194-10.23-2.194h-12.392l-66.715-81.15 137.933-82.331c2.169-1.294 4.159-.574 4.914-.204.754.37 2.542 1.5 2.848 4.004l36.706 300.397zm315.029 83.09-8.423 8.423c-1.023 1.023-2.689 1.023-3.713 0l-78.491-78.49c-1.435-1.435-3.353-2.196-5.305-2.196-.966 0-1.941.187-2.869.571-2.803 1.16-4.63 3.896-4.63 6.929v46.301c0 1.447-1.178 2.626-2.625 2.626h-11.913c-1.448 0-2.625-1.178-2.625-2.626v-85.126c0-3.365 1.92-6.36 5.008-7.813 1.068-.503 2.398-.769 3.846-.769h84.855c1.448 0 2.625 1.178 2.625 2.625v11.913c0 1.447-1.178 2.625-2.625 2.625h-46.303c-3.034 0-5.768 1.827-6.929 4.63s-.519 6.028 1.626 8.174l78.491 78.491c1.023 1.023 1.023 2.688 0 3.712z"/></g></g></svg>