<svg id="Capa_1" enable-background="new 0 0 511.991 511.991" height="512" viewBox="0 0 511.991 511.991" width="512" xmlns="http://www.w3.org/2000/svg"><g><g><path d="m42.212 504.491h234.44c9.027 0 16.819-6.323 18.678-15.156l48.196-229.002h-103.979l-203.776 229.84c-4.924 5.554-.981 14.318 6.441 14.318z" fill="#b8daff"/><path d="m315.383 260.333-48.196 229.002c-1.859 8.833-9.652 15.156-18.678 15.156h28.144c9.027 0 16.819-6.323 18.678-15.156l48.196-229.002z" fill="#a4ccff"/><path d="m239.547 260.333 78.286 122.079 25.693-122.079-103.979-100.94z" fill="#edf4ff"/><path d="m239.547 159.393v27.322l75.836 73.618-18.739 89.037 21.189 33.042 25.693-122.079z" fill="#dbeaff"/><path d="m239.547 159.393-90.301 39.728c-7.387 3.25-7.583 13.658-.325 17.185l90.626 44.028z" fill="#edf4ff"/><path d="m211.403 171.775v74.886l28.144 13.672v-100.94z" fill="#dbeaff"/><path d="m296.393 484.285 47.133-223.952-103.979-100.94 146.927 71.335c5.246 2.693 8.544 8.095 8.544 13.992v220.478c0 10.542-8.546 19.087-19.087 19.087z" fill="#8bb3ea"/><path d="m386.474 230.729-146.927-71.335 28.159 27.336 90.625 44c5.246 2.693 8.544 8.095 8.544 13.992v220.478c0 10.542-8.546 19.087-19.087 19.087h28.144c10.542 0 19.087-8.546 19.087-19.087v-220.48c-.001-5.897-3.299-11.298-8.545-13.991z" fill="#739ad6"/><path d="m462.557 83.053c-10.371-10.847-24.965-17.618-41.116-17.618h-6.464-118.672l32.46-32.46c3.916-3.916 3.916-10.271 0-14.198l-8.348-8.348c-3.926-3.916-10.281-3.916-14.198 0l-59.685 59.676c-4.273 4.283-5.869 10.747-3.698 16.775.813 2.26 2.191 4.273 3.887 5.969l59.497 59.487c3.916 3.926 10.271 3.926 14.188 0l8.358-8.348c3.916-3.926 3.916-10.281 0-14.198l-32.46-32.46h118.672 6.474c13.752 0 24.965 10.975 25.242 24.667.013.686-.002 109.124-.044 109.797-.839 13.216-12.301 23.71-25.783 23.71h-34.929c-5.225 0-9.458 4.233-9.458 9.458v12.819c0 5.215 4.234 9.449 9.458 9.449h34.641c30.43 0 55.959-23.508 57.74-53.599.047-.801.078-109.367.091-110.177.258-15.645-5.83-29.922-15.853-40.401z" fill="#ff8086"/><g fill="#e5646e"><path d="m308.148 18.777c3.916 3.926 3.916 10.281 0 14.198l-27.021 27.021c-2.007 2.007-.586 5.439 2.253 5.439h12.925l32.46-32.46c3.916-3.916 3.916-10.271 0-14.198l-8.348-8.348c-3.926-3.916-10.281-3.916-14.198 0l-3.21 3.21z"/><path d="m296.305 97.329h-12.925c-2.839 0-4.26 3.432-2.253 5.439l27.021 27.021c3.916 3.916 3.916 10.272 0 14.198l-5.142 5.135 3.213 3.213c3.916 3.926 10.271 3.926 14.188 0l8.358-8.348c3.916-3.926 3.916-10.281 0-14.198z"/><path d="m462.557 83.052c-10.37-10.846-24.965-17.618-41.116-17.618h-6.464-14.153c16.151 0 30.745 6.772 41.116 17.618 10.024 10.48 16.111 24.757 15.853 40.402-.013.81-.044 109.376-.091 110.177-1.781 30.091-27.31 53.599-57.74 53.599h20.617c30.43 0 55.959-23.508 57.74-53.599.047-.802.078-109.367.091-110.177.258-15.645-5.83-29.922-15.853-40.402z"/></g></g><path d="m467.976 77.868c-12.291-12.854-28.817-19.934-46.535-19.934h-107.029l19.657-19.657c6.829-6.83 6.832-17.954 0-24.805l-8.354-8.354c-6.845-6.829-17.969-6.824-24.798.006l-59.692 59.682c-8.49 8.7-9.504 23.719.195 33.345l59.49 59.48c5.878 6.059 17.675 7.27 24.797.01l8.369-8.358c6.824-6.843 6.821-17.967-.007-24.798l-19.657-19.656h107.039c9.591 0 17.551 7.77 17.742 17.242.005.725.007 103.986-.04 109.411-.672 9.126-8.839 16.521-18.287 16.521h-18.344c.947-8.959-3.807-19.659-12.774-24.02l-146.919-71.333c-1.642-.69-3.822-1.265-6.456-.053l-90.148 39.66c-12.342 4.925-13.761 24.486-.582 30.796l81.731 39.706-139.544 157.392c-2.748 3.1-2.463 7.84.636 10.588 3.099 2.747 7.839 2.463 10.587-.637l139.53-157.377 71.276 111.146-21.869 103.92c-1.122 5.331-5.891 9.2-11.339 9.2h-234.439c-.196 0-.716 0-1.01-.653s.051-1.043.181-1.189l34.095-38.456c2.748-3.1 2.463-7.84-.636-10.588-3.1-2.749-7.841-2.463-10.587.637l-34.095 38.456c-4.263 4.808-5.273 11.435-2.637 17.295 2.636 5.859 8.265 9.499 14.689 9.499h234.44c12.189 0 22.872-8.45 25.785-20.21h73.495c14.662 0 26.59-11.924 26.59-26.58v-142.363c0-4.143-3.357-7.5-7.5-7.5s-7.5 3.357-7.5 7.5v142.362c0 6.386-5.199 11.58-11.59 11.58h-70.296l45.229-214.903c.349-2.073.066-4.904-2.115-6.927l-70.477-68.417 104.84 50.904c2.903 1.42 5.004 5.916 4.41 10.566-9.09-.863-18.582 6.991-18.543 16.958v12.82c0 9.346 7.607 16.948 16.958 16.948h34.642c34.563 0 63.214-26.643 65.228-60.661.03-.513.045-3.931.083-79.671.009-16.222.016-30.231.02-30.82.279-17.093-6.089-33.326-17.935-45.71zm-220.929 99.262 77.983 75.703h-77.983zm-95.957 30.621c.011-.573.224-1.346 1.176-1.765l79.781-35.1v77.465l-79.849-38.792c-.935-.453-1.119-1.234-1.108-1.808zm102.176 60.082h81.013l-20.017 95.117zm217.623-113.441c-.016 30.299-.038 75.853-.066 78.953-1.625 26.022-23.663 46.386-50.244 46.386h-34.642c-1.08 0-1.958-.874-1.958-1.948v-12.82c0-1.08.878-1.958 1.958-1.958h34.929c17.56 0 32.173-13.501 33.268-30.732.072-1.127.075-109.589.058-110.427-.357-17.653-15.045-32.016-32.74-32.016h-125.147c-3.033 0-5.769 1.827-6.929 4.63-1.161 2.803-.52 6.028 1.625 8.174l32.46 32.459c.989.989.986 2.604.004 3.589l-8.369 8.358c-.796.098-.274 1.527-3.574-.008l-59.497-59.487c-2.695-2.301-3.801-8.112-.188-12.137l59.686-59.675c.989-.989 2.604-.987 3.591 0l8.342 8.341c.992.995.995 2.608.006 3.597l-32.46 32.462c-2.145 2.145-2.786 5.37-1.625 8.173 1.16 2.803 3.896 4.63 6.929 4.63h125.136c13.584 0 26.261 5.434 35.694 15.301 0 .001.001.001.001.002 9.099 9.512 13.99 21.975 13.774 35.09-.005.302-.009 6.518-.022 31.063z"/></g></svg>