<svg id="Capa_1" enable-background="new 0 0 511.981 511.981" height="512" viewBox="0 0 511.981 511.981" width="512" xmlns="http://www.w3.org/2000/svg"><g><g><path d="m434.051 303.996-166.223 195.023c-3.112 3.641-7.475 5.461-11.837 5.461-4.373 0-8.746-1.82-11.848-5.461l-166.213-195.023 178.06-296.516z" fill="#b8daff"/><path d="m434.05 303.995-166.22 195.02c-3.11 3.64-7.48 5.46-11.84 5.46-4.37 0-8.75-1.82-11.85-5.46l-20.5-24.05-145.71-170.97 145.71-242.65 32.35-53.87z" fill="#b8daff"/><path d="m434.05 303.995-166.22 195.02c-3.11 3.64-7.48 5.46-11.84 5.46-4.37 0-8.75-1.82-11.85-5.46l-20.5-24.05v-413.62l32.35-53.87z" fill="#a4ccff"/><path d="m255.99 7.48-218.598 81.96c-10.125 3.796-15.657 14.713-12.73 25.123l53.266 189.435z" fill="#8bb3ea"/><path d="m214.241 23.133-146.63 244.175 10.317 36.69 178.062-296.518z" fill="#739ad6"/><path d="m255.99 7.48 218.598 81.96c10.125 3.796 15.657 14.713 12.73 25.123l-53.266 189.435z" fill="#8bb3ea"/><path d="m474.589 89.44-218.599-81.96 9.4 15.653 176.85 66.307c10.125 3.796 15.657 14.713 12.73 25.123l-42.95 152.745 22.033 36.69 53.266-189.435c2.927-10.41-2.605-21.327-12.73-25.123z" fill="#739ad6"/><path d="m434.051 303.996-166.223 195.023c-3.112 3.641-7.475 5.461-11.837 5.461v-497z" fill="#edf4ff"/><path d="m255.99 7.48v53.87l145.711 242.646-145.711 170.957v29.527c4.363 0 8.726-1.82 11.837-5.461l166.223-195.023z" fill="#dbeaff"/></g><g><path d="m117.331 302.765c-3.44 0-6.54-2.382-7.315-5.879-.896-4.044 1.655-8.049 5.699-8.945l10.596-2.349c4.047-.9 8.049 1.656 8.945 5.699.896 4.044-1.655 8.049-5.699 8.945l-10.596 2.349c-.547.121-1.093.18-1.63.18zm44.148-9.784c-3.44 0-6.54-2.382-7.315-5.879-.896-4.044 1.655-8.049 5.699-8.945l10.596-2.349c4.047-.897 8.049 1.656 8.945 5.699.896 4.044-1.655 8.049-5.699 8.945l-10.596 2.349c-.547.121-1.093.18-1.63.18zm44.147-9.784c-3.44 0-6.54-2.381-7.315-5.879-.896-4.044 1.655-8.049 5.699-8.945l10.595-2.349c4.04-.897 8.049 1.655 8.945 5.699s-1.655 8.049-5.699 8.945l-10.595 2.349c-.546.121-1.093.18-1.63.18z"/><g><path d="m394.503 302.771c-.535 0-1.079-.058-1.623-.179l-10.64-2.349c-4.045-.893-6.601-4.896-5.707-8.939.893-4.045 4.896-6.608 8.939-5.707l10.64 2.349c4.045.893 6.601 4.896 5.707 8.939-.772 3.501-3.874 5.886-7.316 5.886zm-44.333-9.788c-.535 0-1.079-.058-1.623-.179l-10.64-2.349c-4.045-.893-6.601-4.896-5.707-8.939.893-4.045 4.896-6.608 8.939-5.707l10.64 2.349c4.045.893 6.601 4.896 5.707 8.939-.772 3.501-3.874 5.886-7.316 5.886zm-44.333-9.788c-.535 0-1.079-.058-1.623-.179l-10.641-2.349c-4.045-.893-6.601-4.895-5.707-8.939.893-4.044 4.896-6.608 8.939-5.707l10.641 2.349c4.045.893 6.601 4.895 5.707 8.939-.772 3.5-3.874 5.886-7.316 5.886z"/><path d="m477.222 82.417-33.305-12.487c-3.878-1.455-8.201.511-9.655 4.39-1.454 3.878.511 8.201 4.39 9.655l33.305 12.487c6.529 2.448 10.03 9.356 8.143 16.07l-48.564 172.708-152.113-253.306-5.935-9.883 131.076 49.144c3.876 1.453 8.201-.512 9.655-4.39s-.511-8.201-4.39-9.655l-151.206-56.692c-1.696-.607-3.573-.615-5.266 0l-218.598 81.959c-13.887 5.206-21.331 19.898-17.316 34.176l53.266 189.436c.332 1.053.838 2.058 1.565 2.893l166.161 194.96c4.385 5.146 10.783 8.099 17.557 8.099 6.752 0 13.145-2.948 17.546-8.097l166.171-194.962c.727-.836 1.233-1.84 1.565-2.893l53.266-189.436c4.013-14.277-3.431-28.97-17.318-34.176zm-445.34 30.116c-1.888-6.714 1.613-13.622 8.143-16.07l198.468-74.411-28.517 47.488-129.532 215.7zm231.608 380.013v-65.721c0-4.143-3.357-7.5-7.5-7.5s-7.5 3.357-7.5 7.5v65.732l-161.355-189.322 117.841-196.233 43.515-72.463v223.975l-.333.074c-4.044.896-6.597 4.9-5.7 8.944.677 3.057 3.13 5.26 6.033 5.768v118.382c0 4.143 3.357 7.5 7.5 7.5s7.5-3.357 7.5-7.5v-118.572c2.587-.719 4.71-2.784 5.33-5.589.864-3.916-1.508-7.783-5.33-8.837v-224.145l161.354 268.696z"/></g></g></g></svg>