<svg id="Capa_1" enable-background="new 0 0 512.001 512.001" height="512" viewBox="0 0 512.001 512.001" width="512" xmlns="http://www.w3.org/2000/svg"><g><g><path d="m504.5 41.85v214.15l-248.5 248.5h-214.15c-18.97 0-34.35-15.38-34.35-34.35v-428.3c0-18.97 15.38-34.35 34.35-34.35h428.3c18.97 0 34.35 15.38 34.35 34.35z" fill="#8bb3ea"/><path d="m256 7.5v497h-41.53l-206.97-206.97v-83.06l206.97-206.97z" fill="#739ad6"/><path d="m504.5 41.85v214.15l-35 35v-249.15c0-18.97-15.38-34.35-34.35-34.35h35c18.97 0 34.35 15.38 34.35 34.35z" fill="#739ad6"/><path d="m80.284 80.284h351.432v351.432h-351.432z" fill="#b8daff" transform="matrix(-.707 .707 -.707 -.707 618.039 256)"/><path d="m256 7.5-17.027 17.027 231.473 231.473-231.473 231.473 17.027 17.027 248.5-248.5z" fill="#a4ccff"/><path d="m256 504.5v-248.5h248.5z" fill="#edf4ff"/><path d="m470.446 256-214.446 214.446v34.054l248.5-248.5z" fill="#dbeaff"/></g><g><path d="m510.6 260.351c.686-.928 1.426-2.588 1.4-4.356v-214.145c0-23.076-18.773-41.85-41.85-41.85h-428.3c-23.077 0-41.85 18.774-41.85 41.85v428.301c0 23.076 18.773 41.849 41.85 41.849h214.15c1.639-.081 3.594-.461 5.304-2.196 0 0 248.888-248.887 249.296-249.453zm-13.6-218.501v196.043l-222.893-222.893h196.043c14.805 0 26.85 12.045 26.85 26.85zm-455.15-26.85h196.043l-222.893 222.893v-196.043c0-14.805 12.045-26.85 26.85-26.85zm-26.85 455.151v-196.043l222.893 222.892h-196.043c-14.805 0-26.85-12.045-26.85-26.849zm248.5 16.243v-222.894h156.894c4.143 0 7.5-3.357 7.5-7.5s-3.357-7.5-7.5-7.5h-156.894v-4.5c0-4.143-3.357-7.5-7.5-7.5s-7.5 3.357-7.5 7.5v4.5h-4.5c-4.143 0-7.5 3.357-7.5 7.5s3.357 7.5 7.5 7.5h4.5v222.894l-230.394-230.394 237.894-237.893 230.394 230.393h-29.931c-4.143 0-7.5 3.357-7.5 7.5s3.357 7.5 7.5 7.5h29.931z"/><path d="m106 248.5h-12c-4.143 0-7.5 3.357-7.5 7.5s3.357 7.5 7.5 7.5h12c4.143 0 7.5-3.357 7.5-7.5s-3.357-7.5-7.5-7.5z"/><path d="m156 248.5h-12c-4.143 0-7.5 3.357-7.5 7.5s3.357 7.5 7.5 7.5h12c4.143 0 7.5-3.357 7.5-7.5s-3.357-7.5-7.5-7.5z"/><path d="m56 248.5h-12c-4.143 0-7.5 3.357-7.5 7.5s3.357 7.5 7.5 7.5h12c4.143 0 7.5-3.357 7.5-7.5s-3.357-7.5-7.5-7.5z"/><path d="m206 248.5h-12c-4.143 0-7.5 3.357-7.5 7.5s3.357 7.5 7.5 7.5h12c4.143 0 7.5-3.357 7.5-7.5s-3.357-7.5-7.5-7.5z"/><path d="m256 86.5c-4.143 0-7.5 3.357-7.5 7.5v12c0 4.143 3.357 7.5 7.5 7.5s7.5-3.357 7.5-7.5v-12c0-4.142-3.357-7.5-7.5-7.5z"/><path d="m256 36.5c-4.143 0-7.5 3.357-7.5 7.5v12c0 4.143 3.357 7.5 7.5 7.5s7.5-3.357 7.5-7.5v-12c0-4.142-3.357-7.5-7.5-7.5z"/><path d="m256 136.5c-4.143 0-7.5 3.357-7.5 7.5v12c0 4.143 3.357 7.5 7.5 7.5s7.5-3.357 7.5-7.5v-12c0-4.142-3.357-7.5-7.5-7.5z"/><path d="m256 186.5c-4.143 0-7.5 3.357-7.5 7.5v12c0 4.143 3.357 7.5 7.5 7.5s7.5-3.357 7.5-7.5v-12c0-4.142-3.357-7.5-7.5-7.5z"/></g></g></svg>