<svg id="Capa_1" enable-background="new 0 0 512.017 512.017" height="512" viewBox="0 0 512.017 512.017" width="512" xmlns="http://www.w3.org/2000/svg"><g><g><path d="m311.006 207.937h-109.94l16.84-75.02h76.26z" fill="#edf4ff"/><path d="m311.006 207.937h-27.56l-16.84-75.02h27.56z" fill="#dbeaff"/><path d="m345.836 363.087h-179.6l17.95-79.98h143.7z" fill="#edf4ff"/><path d="m345.836 363.087h-27.56l-17.95-79.98h27.56z" fill="#dbeaff"/><path d="m327.886 283.107h-143.7l16.88-75.17h109.94z" fill="#edf4ff"/><path d="m327.886 283.107h-27.56l-16.88-75.17h27.56z" fill="#dbeaff"/><path d="m375.001 419.159h-237.929c-5.341 0-9.382-4.833-8.435-10.09l7.01-38.933c.735-4.082 4.288-7.052 8.435-7.052h223.909c4.148 0 7.7 2.97 8.435 7.052l7.01 38.933c.947 5.257-3.093 10.09-8.435 10.09z" fill="#ff8086"/><path d="m383.436 409.069-7.01-38.933c-.735-4.082-4.287-7.052-8.435-7.052h-27.558c4.148 0 7.7 2.97 8.435 7.052l7.01 38.933c.947 5.257-3.094 10.09-8.435 10.09h27.558c5.342 0 9.382-4.833 8.435-10.09z" fill="#e5646e"/><path d="m143.257 497.717 14.695-78.558h98.084l-79.637 79.571c-3.708 3.705-8.736 5.787-13.979 5.787h-13.517c-3.595 0-6.307-3.266-5.646-6.8z" fill="#8bb3ea"/><path d="m228.479 419.159-79.637 79.571c-1.367 1.365-2.914 2.506-4.584 3.408 1.035 1.427 2.709 2.379 4.646 2.379h13.517c5.242 0 10.27-2.081 13.979-5.787l79.637-79.571z" fill="#739ad6"/><path d="m368.815 497.717-14.695-78.558h-98.084l79.637 79.571c3.708 3.705 8.736 5.787 13.979 5.787h13.517c3.596 0 6.308-3.266 5.646-6.8z" fill="#8bb3ea"/><path d="m368.815 497.717-14.695-78.558h-27.558l14.695 78.558c.305 1.63-.114 3.199-1 4.421 2.861 1.545 6.084 2.379 9.395 2.379h13.517c3.596 0 6.308-3.266 5.646-6.8z" fill="#739ad6"/><path d="m217.905 71.51h76.263v-30.153c0-5.003-2.381-9.707-6.412-12.67l-26.458-19.445c-3.13-2.301-7.392-2.301-10.523 0l-26.458 19.445c-4.031 2.963-6.412 7.667-6.412 12.67z" fill="#edf4ff"/><path d="m287.756 28.687-26.458-19.445c-3.13-2.301-7.393-2.301-10.523 0l-8.517 6.26 17.94 13.185c4.031 2.963 6.412 7.667 6.412 12.67v30.153h27.558v-30.153c0-5.003-2.381-9.708-6.412-12.67z" fill="#dbeaff"/><path d="m217.905 71.51h76.263v61.402h-76.263z" fill="#ff8086"/><path d="m266.61 71.51h27.558v61.402h-27.558z" fill="#e5646e"/><path d="m217.905 71.51h-43.304c-4.508 0-6.892 5.334-3.885 8.692l47.189 52.71z" fill="#bd4150"/><path d="m294.168 71.51h43.304c4.508 0 6.892 5.334 3.885 8.692l-47.189 52.71z" fill="#db4655"/></g><path d="m390.818 407.74-7.01-38.935c-1.38-7.661-8.032-13.222-15.816-13.222h-16.152l-33.484-149.158c-.656-3.295-3.77-6.057-7.348-5.99h-88.68l67.161-54.121 6.209 27.659c.907 4.042 4.923 6.584 8.96 5.676 4.042-.907 6.583-4.92 5.675-8.961l-8.002-35.649 44.615-49.835c3.392-3.789 4.21-9.026 2.135-13.669s-6.522-7.526-11.607-7.526h-35.804v-22.652c0-7.359-3.541-14.354-9.471-18.714l-26.459-19.444c-5.804-4.267-13.602-4.265-19.406-.001l-26.458 19.445c-5.93 4.358-9.47 11.354-9.47 18.713v22.654h-35.804c-5.085 0-9.533 2.884-11.607 7.526-2.075 4.643-1.257 9.88 2.135 13.669l44.615 49.835-49.509 220.544h-16.152c-7.784 0-14.436 5.561-15.816 13.223l-7.01 38.934c-1.691 8.153 5.26 19.131 15.816 18.918h11.848l-13.034 69.68c-.727 3.884.304 7.855 2.828 10.896 2.524 3.04 6.238 4.783 10.19 4.783h13.517c7.283 0 14.13-2.835 19.28-7.981l77.441-77.377h88.752l13.16 70.358h-11.402c-3.278 0-6.359-1.275-8.678-3.593l-51.896-51.854c-2.93-2.928-7.679-2.925-10.607.005s-2.926 7.679.004 10.606l51.896 51.853c5.151 5.147 11.998 7.982 19.281 7.982h13.517c3.952 0 7.666-1.743 10.19-4.783s3.555-7.012 2.828-10.896l-13.034-69.68h11.848c8.974.101 17.418-8.392 15.815-18.918zm-117.621-52.156 50.565-56.604 12.703 56.604zm13.471-276.574v46.402h-61.263v-46.402zm-62.759 61.407h48.992l-59.811 48.198zm87.221 150.19-54.721 61.256-55.34-61.256zm-39.977-15 36.173-49.832 11.19 49.832zm-14.757-5.206-40.489-54.965h80.388zm45.272-157.111v-34.28h30.69zm-76.263-71.933c0-2.605 1.254-5.083 3.354-6.626l26.458-19.445c.49-.359 1.149-.36 1.639.001l26.458 19.443c2.1 1.544 3.354 4.021 3.354 6.627v22.653h-61.263zm-15 37.653v34.28l-30.69-34.28zm-5.624 146.615 36.818 49.982h-48.042zm-16.449 73.258 51.224 56.701h-63.95zm-17.234 194.542c-2.318 2.316-5.399 3.592-8.677 3.592h-11.402l13.16-70.358h73.74zm204.725-82.15c-.213.255-.489.384-.821.384h-237.93c-.138-.16-.897.19-1.054-1.26l7.01-38.933c.092-.511.535-.882 1.054-.882h223.909c.519 0 .962.371 1.054.881l7.01 38.934c.059.326-.02.621-.232.876z"/></g></svg>