<svg id="Capa_1" enable-background="new 0 0 511.974 511.974" height="512" viewBox="0 0 511.974 511.974" width="512" xmlns="http://www.w3.org/2000/svg"><g><g><path d="m376.923 293.448-34.89 129.37c-1.43 5.28-5.85 8.51-10.61 8.98-3.49.36-7.16-.77-9.96-3.64l-16.01-16.44-53.33-54.76 48.97-55.7 6.53-.67 25.55-2.63z" fill="#ff8086"/><path d="m376.923 293.448-34.89 129.37c-1.43 5.28-5.85 8.51-10.61 8.98-3.49.36-7.16-.77-9.96-3.64l-16.01-16.44-5.13-86.45s3.5-11.7 7.3-24.68l25.55-2.63z" fill="#e5646e"/><path d="m376.923 293.448-34.89 129.37c-1.43 5.28-5.85 8.51-10.61 8.98l-6.32-106.53s3.99-13.32 8.07-27.31z" fill="#6e61b6"/><path d="m351.435 296.075-23.003 85.294 2.992 50.428c4.76-.47 9.18-3.7 10.61-8.98l34.89-129.37z" fill="#6354b1"/><path d="m497.246 219.578-136.12 83.571-36.026 22.116-22.115 36.026-83.571 136.12c-6.56 10.675-22.502 9.242-27.039-2.436l-184.195-473.58c-1.583-4.08-.369-8.143 2.269-10.781.308-.308.642-.607.994-.871 2.612-2.014 6.19-2.796 9.787-1.398l473.58 184.194c11.678 4.537 13.111 20.479 2.436 27.039z" fill="#c2bce0"/><path d="m494.81 192.539-473.58-184.194c-3.596-1.398-7.175-.616-9.787 1.398-.352.264-.686.563-.994.871-1.317 1.317-2.279 2.99-2.715 4.843l455.296 177.082c11.677 4.537 13.111 20.479 2.436 27.039l-136.12 83.572-36.026 22.115-22.115 36.026-69.463 113.192c-3.339 5.433-9.107 7.723-14.566 7.129l5.197 13.363c4.537 11.678 20.48 13.111 27.039 2.436l83.571-136.12 22.115-36.026 36.026-22.115 136.12-83.572c10.677-6.56 9.244-22.502-2.434-27.039z" fill="#aca6d6"/><path d="m376.923 293.451-51.823 31.814-314.651-314.651c.308-.308.642-.607.994-.871z" fill="#978ecb"/><path d="m11.443 9.743c-.352.264-.686.563-.994.871l102.922 102.922 231.771 179.915-32.131 19.725 12.088 12.089 51.823-31.814z" fill="#8379c1"/></g><path d="m511.879 204.616c-.78-8.626-6.28-15.933-14.35-19.068l-326.506-126.99c-3.861-1.502-8.208.412-9.708 4.271-1.501 3.86.411 8.207 4.271 9.709l326.508 126.992c4.772 1.73 7.117 9.645 1.229 13.657l-115.903 71.156-334.124-259.368 89.512 34.815c3.861 1.498 8.208-.411 9.708-4.271 1.501-3.86-.411-8.207-4.271-9.709l-114.299-44.456c-12.872-5.585-28.394 8.302-22.755 22.76l184.192 473.577c5.682 16.314 30.86 19.919 40.422 3.645l60.494-98.535 29.796 30.595c9.125 10.166 29.377 6.584 33.18-8.624l24.427-90.574c1.079-3.999-1.289-8.116-5.288-9.194-4.001-1.079-8.116 1.289-9.194 5.288l-21.562 79.949-4.802-80.935 168.318-103.336c7.384-4.54 11.486-12.722 10.705-21.354zm-148.118 88.113-37.542 23.048-233.265-233.265zm-150.737 200.756c-2.553 4.379-10.769 5.294-13.66-1.229l-179.569-461.689 295.817 295.817zm81.371-103.872 24.632-40.122 4.133 69.658z"/></g></svg>