<svg id="Capa_1" enable-background="new 0 0 511.961 511.961" height="512" viewBox="0 0 511.961 511.961" width="512" xmlns="http://www.w3.org/2000/svg"><g><g><path d="m7.491 217.506 63.119 55.735h375.405l58.476-55.739z" fill="#e2a975"/><path d="m70.614 217.506v234.994c0 3.541 1.412 6.74 3.702 9.083 2.364 2.407 5.649 3.894 9.275 3.894h349.442c7.168 0 12.987-5.809 12.987-12.977l-.004-234.997z" fill="#978ecb"/><path d="m70.614 217.506v234.994c0 3.541 1.412 6.74 3.702 9.083 2.364 2.407 5.649 3.894 9.275 3.894h349.442c7.168 0 12.987-5.809 12.987-12.977l-.004-234.997z" fill="#978ecb"/><path d="m418.23 217.502v234.995c0 7.168-5.811 12.98-12.98 12.98h-133.546v-247.975z" fill="#8379c1"/><path d="m387.356 90.446h-167.649v127.056h284.784z" fill="#ff8086"/><path d="m387.356 90.446h-27.785l117.135 127.056h27.785z" fill="#e5646e"/><path d="m155.135 217.506h-147.644l168.815-171.03 168.812 171.026-130.299.004" fill="#ffe09f"/><path d="m176.306 46.476-13.892 14.075 154.918 156.951-130.298.004h27.785l130.299-.004z" fill="#f6d190"/><path d="m446.015 217.502v234.995c0 7.168-5.811 12.98-12.98 12.98h-133.546v-247.975z" fill="#c2bce0"/><path d="m446.011 217.506v234.99c0 7.17-5.81 12.98-12.98 12.98h-27.78c7.17 0 12.98-5.81 12.98-12.98v-234.99z" fill="#aca6d6"/><path d="m299.488 465.477h-215.898c-3.627 0-6.911-1.487-9.275-3.894l80.824-84.911h59.684z" fill="#6e61b6"/><path d="m214.823 376.672h-27.785l84.664 88.805h27.786z" fill="#6354b1"/><path d="m155.135 217.506h59.684v159.166h-59.684z" fill="#978ecb"/><path d="m176.306 46.476h163.037c3.425 0 6.705 1.388 9.09 3.846l38.923 40.124h-167.649z" fill="#db4655"/><path d="m348.433 50.322c-2.385-2.459-5.664-3.846-9.09-3.846h-27.785c3.425 0 6.705 1.388 9.09 3.846l38.923 40.124h27.785z" fill="#bd4150"/></g><path d="m511.765 219.282c.467-2.031.185-4.77-1.759-6.865l-56.245-61.009c-2.809-3.045-7.552-3.238-10.599-.431-3.045 2.808-3.238 7.553-.431 10.599l44.645 48.425h-139.123l-110.605-112.055h146.422l34.31 37.217c1.479 1.604 3.495 2.416 5.517 2.416 1.817 0 3.64-.656 5.082-1.985 3.045-2.808 3.238-7.553.431-10.599l-75.593-79.896c-3.775-3.892-9.051-6.123-14.473-6.123h-163.038c-1.345.045-3.616.427-5.338 2.231l-168.815 171.031c-2.518 2.737-3.34 7.6.374 10.891l60.587 53.499v175.872c.061 10.1 8.43 20.551 20.477 20.477h349.442c9.691.33 20.816-8.979 20.483-20.554v-175.97l56.15-53.523c.753-.817 1.683-1.89 2.099-3.648zm-296.945 27.097c-4.142 0-7.5 3.357-7.5 7.5v115.293h-44.685v-144.165l129.354-.003v221.738l-69.669-73.076v-119.787c0-4.143-3.358-7.5-7.5-7.5zm-136.706-21.372h69.521v148.67l-69.521 73.037zm-52.682-15.001 150.874-152.853 150.87 152.849zm313.911-156.03c1.389 0 2.74.571 3.707 1.567l26.581 27.402h-146.789l-28.595-28.97h145.096zm-312.027 171.031h35.798v31.61zm60.786 232.969 70.252-73.805h53.257l70.364 73.805zm218.887 0v-232.972l131.526-.001v227.494c-.926 2.324-.197 4.626-5.483 5.479zm146.526-202.246v-30.728h32.237z"/></g></svg>