<svg id="Capa_1" enable-background="new 0 0 512 512" height="512" viewBox="0 0 512 512" width="512" xmlns="http://www.w3.org/2000/svg"><g><g><path d="m101.558 24.812v272.526c0 10.63 7.584 18.593 17.373 22.736 28.983 12.269 112.601 47.664 112.601 47.664l24.119-122.186z" fill="#ff8086"/><path d="m101.558 24.812v39.351l126.623 181.39-22.001 111.454 25.352 10.732 24.119-122.186z" fill="#e5646e"/><path d="m101.558 24.812h-30.458c-8.469 0-16.613 3.26-22.742 9.105l-38.882 37.076c-4.142 3.95-1.347 10.933 4.377 10.933h87.705z" fill="#ff9a9f"/><path d="m74.088 24.812h27.47v57.114h-27.47z" fill="#ff8086"/><path d="m101.558 208.664 129.974 159.075h75.037l33.498-267.318z" fill="#edf4ff"/><path d="m310.941 113.64-31.842 254.099h27.47l33.498-267.318z" fill="#dbeaff"/><path d="m340.067 100.421 157.612 56.29c8.193 2.926 9.268 14.075 1.784 18.512l-182.314 108.082z" fill="#b8daff"/><path d="m497.679 156.711-157.612-56.29-1.177 9.39 131.318 46.899c8.193 2.926 9.267 14.075 1.784 18.512l-152.639 90.49-2.205 17.592 182.313-108.082c7.485-4.436 6.411-15.585-1.782-18.511z" fill="#a4ccff"/><path d="m311.004 332.343 143.192-36.178c8.911-2.251 10.608-14.176 2.678-18.824l-65.202-38.216-74.523 44.18z" fill="#8bb3ea"/><path d="m456.875 277.341-65.203-38.216-13.657 8.096 51.389 30.12c7.93 4.648 6.233 16.572-2.678 18.824l-114.824 29.011-.898 7.167 143.192-36.178c8.912-2.251 10.608-14.176 2.679-18.824z" fill="#739ad6"/><path d="m231.532 367.739 73.528 81.677c3.864 4.292 8.982 7.258 14.628 8.475l135.43 29.198c5.947 1.282 9.85-6.032 5.474-10.259l-149.588-144.487z" fill="#b3e59f"/><path d="m460.593 476.83-149.589-144.487-18.801 8.374 140.92 136.113c1.771 1.711 2.169 3.923 1.641 5.87l20.355 4.388c5.946 1.282 9.849-6.032 5.474-10.258z" fill="#95d6a4"/></g><path d="m511.915 164.68c-.668-6.931-5.157-12.69-11.714-15.032l-157.611-56.291c-.441-.212-3.644-.901-5.74.292l-135.247 61.377-93.822-134.403c-1.09-1.484-3.098-3.324-6.222-3.311h-30.459c-10.444 0-20.359 3.97-27.918 11.178l-38.881 37.075c-4.119 3.928-5.414 9.879-3.298 15.163 2.115 5.283 7.159 8.697 12.851 8.697h80.205v32.933c0 4.143 3.357 7.5 7.5 7.5s7.5-3.357 7.5-7.5v-73.7l78.653 112.672-78.653 35.694v-38.344c0-4.143-3.357-7.5-7.5-7.5s-7.5 3.357-7.5 7.5v138.658c0 12.743 8.205 23.825 21.948 29.643l111.066 47.014 72.413 80.44c4.951 5.499 11.391 9.229 18.621 10.788l135.43 29.197c4.601 1.039 11.496-.872 14.807-6.865 2.879-5.395 1.857-11.873-2.54-16.119l-124.068-119.836c-2.979-2.878-7.728-2.797-10.605.184-2.878 2.979-2.795 7.728.184 10.605l120.399 116.293-130.445-28.123c-4.129-.89-7.807-3.021-10.634-6.16l-66.623-74.008 69.458-30.935 142.564-36.019c14.433-3.142 18.441-24.608 4.635-32.565l-34.983-20.505c-3.573-2.093-8.168-.896-10.264 2.678-2.095 3.574-.896 8.169 2.678 10.264l34.984 20.505c1.109.921 2.758 2.873-.724 5.081l-132.545 33.487 4.323-34.5 71.359-42.305s.001-.001.001-.001l107.789-63.9c5.99-3.553 9.296-10.065 8.628-16.996zm-495.17-90.254 36.788-35.081c4.756-4.535 10.994-7.033 17.566-7.033h22.959v42.114zm92.314 222.912v-67.64l97.495 119.324-84.699-35.853c-3.848-1.63-12.796-6.433-12.796-15.831zm124.655 61.218-120.181-147.09 217.426-98.67-26.87 214.416zm261.924-189.784-169.14 100.271 19.85-158.415 148.808 53.146c1.443.515 1.765 1.69 1.828 2.345s-.028 1.871-1.346 2.653z"/></g></svg>