<svg id="Capa_1" enable-background="new 0 0 512 512" height="512" viewBox="0 0 512 512" width="512" xmlns="http://www.w3.org/2000/svg"><g><g><g><path d="m449.382 256.122 36.147 87.422c2.122 5.133-.318 11.015-5.451 13.137l-87.422 36.147z" fill="#e2a975"/><path d="m392.828 119.344-36.147-87.422c-2.122-5.133-8.004-7.574-13.137-5.451l-87.422 36.147z" fill="#e2a975"/><path d="m119.34 119.17-42 101.23-14.72 35.48-15.2-36.76-20.95-50.66c-2.12-5.14.32-11.02 5.45-13.14l15.5-6.41 29.92-12.37z" fill="#e2a975"/><path d="m77.34 136.54v83.86l-14.72 35.48-15.2-36.76v-70.21z" fill="#d19a6e"/><g fill="#e2a975"><path d="m119.172 392.656 36.147 87.422c2.122 5.133 8.004 7.574 13.137 5.451l87.422-36.147z"/><path d="m392.656 392.828-36.257 87.376c-2.129 5.131-8.014 7.564-13.144 5.435l-87.376-36.257z"/><path d="m392.828 119.344 87.376 36.257c5.131 2.129 7.564 8.014 5.435 13.144l-36.257 87.376z"/><path d="m119.172 392.656 36.147 87.422c2.122 5.133 8.004 7.574 13.137 5.451l87.422-36.147z"/></g><path d="m485.529 343.543-36.147-87.422-11.67 28.125 24.518 59.297c2.122 5.133-.318 11.015-5.451 13.137l-59.297 24.518-4.825 11.629 87.422-36.147c5.132-2.121 7.572-8.003 5.45-13.137z" fill="#d19a6e"/><path d="m338.501 44.304 26.202 63.37 28.125 11.67-36.147-87.422c-2.122-5.133-8.004-7.574-13.138-5.451l-16.915 6.991c.008.014.028.028.06.041 5.15 2.199 9.674 5.626 11.813 10.801z" fill="#d19a6e"/><path d="m255.88 449.38-63.02 26.06-40.78-40.78h68.32z" fill="#e2a975"/><path d="m255.88 449.38-63.02 26.06-40.78-40.78h68.32z" fill="#d19a6e"/><path d="m364.396 404.513-28.819 67.879c-1.607 3.872-5.353 6.204-9.299 6.202l16.977 7.045c5.13 2.129 11.015-.304 13.144-5.435l36.257-87.376z" fill="#d19a6e"/><path d="m480.204 155.601-87.376-36.257 4.825 11.67 59.252 24.587c5.13 2.129 7.564 8.014 5.435 13.144l-24.587 59.252 11.629 28.125 36.257-87.376c2.129-5.131-.304-11.016-5.435-13.145z" fill="#d19a6e"/><path d="m256.12 62.62-35.6 14.72-101.18 41.83 36.26-87.37c2.13-5.13 8.01-7.57 13.15-5.44l24.25 10.06z" fill="#e2a975"/><path d="m256.12 62.62-35.6 14.72h-68.44l40.92-40.92z" fill="#d19a6e"/><path d="m119.17 392.66-41.83-17.36-29.92-12.42-15.62-6.48c-5.13-2.13-7.57-8.01-5.44-13.15l21.06-50.74 15.2-36.63 14.72 35.6z" fill="#e2a975"/><path d="m77.34 291.48v83.82l-29.92-12.42v-70.37l15.2-36.63z" fill="#d19a6e"/></g><g fill="#ffe09f"><path d="m434.662 181.996 66.892 66.892c3.928 3.928 3.928 10.296 0 14.224l-66.892 66.892z"/><path d="m330.004 77.338-66.892-66.892c-3.928-3.928-10.296-3.928-14.224 0l-66.892 66.892z"/><path d="m77.338 181.996-66.892 66.892c-3.928 3.928-3.928 10.296 0 14.224l66.892 66.892z"/><path d="m181.996 434.662 66.892 66.892c3.928 3.928 10.296 3.928 14.224 0l66.892-66.892z"/><path d="m434.662 330.004v94.6c0 5.555-4.503 10.058-10.058 10.058h-94.6z"/><path d="m330.004 77.338h94.6c5.555 0 10.058 4.503 10.058 10.058v94.6z"/><path d="m181.996 77.338h-94.6c-5.555 0-10.058 4.503-10.058 10.058v94.6z"/><path d="m77.338 330.004v94.6c0 5.555 4.503 10.058 10.058 10.058h94.6z"/></g><g fill="#f6d190"><path d="m501.554 248.888-66.892-66.892v29.919l36.973 36.973c3.928 3.928 3.928 10.296 0 14.224l-36.973 36.973v29.919l66.892-66.892c3.928-3.928 3.928-10.296 0-14.224z"/><path d="m263.112 10.446c-3.928-3.928-10.296-3.928-14.224 0l-12.702 12.702c3.789-1.969 8.568-1.366 11.748 1.814l52.151 52.376h29.919z"/><path d="m47.419 211.915v88.17l29.919 29.919v-148.008z"/><path d="m300.085 434.662-52.582 52.582c-2.718 2.718-6.724 3.696-10.389 2.536l11.774 11.774c3.928 3.928 10.296 3.928 14.224 0l66.892-66.892z"/><path d="m404.743 359.923v64.681c0 5.555-4.503 10.058-10.058 10.058h29.919c5.555 0 10.058-4.503 10.058-10.058v-94.6z"/><path d="m424.604 77.338h-29.919c5.555 0 10.058 4.503 10.058 10.058v64.681l29.919 29.919v-94.6c0-5.555-4.503-10.058-10.058-10.058z"/><path d="m152.077 77.338-74.739 74.739v29.919l104.658-104.658z"/><path d="m77.338 330.004v29.919l74.739 74.739h29.919z"/></g><path d="m434.666 182v148l-104.666 104.666h-148l-104.666-104.666v-148l104.666-104.666h148z" fill="#f6d190"/><path d="m330 77.334h-29.919l104.666 104.666v148l-104.666 104.666h29.919l104.666-104.666v-148z" fill="#ecbd83"/></g><path d="m506.857 243.584-31.206-31.206 16.918-40.757c3.705-8.94-.553-19.234-9.494-22.948l-40.914-16.979v-44.298c0-9.682-7.876-17.558-17.558-17.558h-44.13l-16.863-40.782c-3.695-8.94-13.982-13.214-22.937-9.517l-40.938 16.925-31.321-31.32c-3.314-3.318-7.724-5.144-12.414-5.144s-9.1 1.826-12.415 5.143l-64.696 64.695h-30.955l14.593-35.162c.542-1.306 2.045-1.927 3.348-1.389l13.97 5.8c3.823 1.588 8.214-.227 9.802-4.051 1.588-3.826-.226-8.215-4.051-9.803l-13.975-5.802c-8.943-3.706-19.236.554-22.948 9.493l-16.98 40.913h-44.297c-9.681 0-17.558 7.876-17.558 17.558v44.131l-40.783 16.863c-8.94 3.695-13.21 13.981-9.516 22.937l16.925 40.938-31.322 31.321c-6.844 6.846-6.844 17.984.001 24.831l31.206 31.206-16.918 40.757c-3.705 8.94.553 19.234 9.494 22.948l40.914 16.979v44.298c0 9.682 7.876 17.558 17.558 17.558h44.13l16.863 40.782c2.792 6.757 9.35 10.847 16.252 10.847 2.23 0 4.498-.428 6.684-1.33l40.938-16.925 31.321 31.32c3.315 3.318 7.725 5.144 12.415 5.144s9.1-1.826 12.415-5.143l31.207-31.206 40.757 16.917c2.191.908 4.462 1.338 6.699 1.338 6.892 0 13.447-4.082 16.249-10.831l16.98-40.913h44.297c9.681 0 17.558-7.876 17.558-17.558v-44.131l40.783-16.863c8.94-3.695 13.21-13.981 9.516-22.937l-16.925-40.938 31.322-31.322c6.844-6.844 6.844-17.982-.001-24.829zm-29.534-81.059c1.307.543 1.93 2.048 1.39 3.35l-14.539 35.027-22.013-22.012v-30.956zm-50.161-75.129v76.493l-79.051-79.051h76.493c1.41 0 2.558 1.147 2.558 2.558zm-80.762-53.993c1.311-.541 2.812.081 3.349 1.382l14.493 35.053h-31.131l-21.891-21.891zm-92.208-17.654c.652-.652 1.412-.749 1.808-.749s1.156.097 1.809.75l54.085 54.084h-111.788zm-166.796 69.089h76.493l-79.051 79.051v-76.493c0-1.411 1.148-2.558 2.558-2.558zm-53.993 80.762c-.54-1.308.08-2.811 1.382-3.349l35.053-14.494v31.132l-21.891 21.89zm-17.654 88.591 54.085-54.084v111.786l-54.084-54.083c-.998-.998-.998-2.622-.001-3.619zm18.928 95.284c-1.307-.543-1.93-2.048-1.39-3.35l14.539-35.027 22.013 22.012v30.956zm50.161 75.129v-76.493l79.051 79.051h-76.493c-1.41 0-2.558-1.147-2.558-2.558zm80.762 53.993c-1.308.543-2.811-.08-3.349-1.382l-14.493-35.053h31.131l21.891 21.891zm92.208 17.654c-.652.652-1.412.749-1.808.749s-1.156-.097-1.809-.75l-54.085-54.084h111.787zm91.665-18.927c-.542 1.306-2.047 1.927-3.348 1.389l-35.027-14.538 22.013-22.012h30.955zm75.131-50.162h-76.493l79.051-79.051v76.493c0 1.411-1.148 2.558-2.558 2.558zm53.993-80.762c.54 1.308-.08 2.811-1.382 3.349l-35.053 14.494v-31.132l21.891-21.89zm17.654-88.591-54.085 54.084v-26.45c0-4.143-3.358-7.5-7.5-7.5s-7.5 3.357-7.5 7.5v41.45l-100.269 100.27h-141.794l-100.265-100.266v-141.794l100.265-100.265h141.795l100.269 100.27v64.809c0 4.143 3.358 7.5 7.5 7.5s7.5-3.357 7.5-7.5v-49.809l54.084 54.083c.997.997.997 2.621 0 3.618z"/></g></svg>