<svg id="Capa_1" enable-background="new 0 0 511.972 511.972" height="512" viewBox="0 0 511.972 511.972" width="512" xmlns="http://www.w3.org/2000/svg"><g><g><g><g><path d="m352.966 302.947 26.205 26.205 27.308 78.823-78.827-27.304-26.204-26.204c-3.353-3.353-5.992-7.35-7.759-11.75l-26.415-65.776c-2.061-5.133 3.038-10.232 8.171-8.17l65.774 26.418c4.398 1.766 8.395 4.406 11.747 7.758z" fill="#f6d190"/><path d="m313.013 295.188c4.399 1.767 8.396 4.406 11.748 7.759l26.205 26.205 23.462 67.721 32.051 11.102-27.308-78.823-26.205-26.205c-3.352-3.352-7.349-5.992-11.748-7.759l-65.774-26.418c-5.086-2.043-10.128 2.944-8.216 8.029z" fill="#ecbd83"/><path d="m379.171 329.152 27.308 78.823-78.827-27.305 9.929-41.593z" fill="#ffe09f"/><path d="m374.428 396.873 32.051 11.102-27.308-78.823-26.051 6.216z" fill="#f6d190"/></g><g><path d="m406.479 407.975s-77.614 43.982-79.402 44.624c-1.675.609-3.463.93-5.28.93l-31.202-.004c-4.74.004-9.436-.956-13.796-2.821l-65.188-27.83c-5.09-2.171-5.087-9.385-.004-11.556l65.191-27.826c4.36-1.865 9.053-2.821 13.796-2.821h37.058z" fill="#f6d190"/><path d="m406.479 407.975s-77.614 43.982-79.402 44.624l-21.813-35.504 22.39-36.423z" fill="#e2a975"/></g><g><path d="m406.479 407.975s43.977-77.611 44.619-79.399c.609-1.675.93-3.463.93-5.28l-.004-31.202c.004-4.74-.956-9.436-2.821-13.796l-27.83-65.188c-2.171-5.09-9.385-5.087-11.556-.004l-27.826 65.191c-1.865 4.36-2.821 9.053-2.821 13.797v37.057z" fill="#f6d190"/><path d="m452.025 292.094c.004-4.74-.956-9.436-2.821-13.797l-27.83-65.187c-2.171-5.09-9.385-5.087-11.556-.004l-8.324 19.502 19.506 45.69c1.865 4.36 2.824 9.057 2.821 13.797l.004 31.202c0 1.817-.321 3.605-.931 5.28-.366 1.018-14.781 26.618-27.128 48.477l10.713 30.922s43.977-77.611 44.619-79.399c.609-1.675.931-3.463.931-5.28z" fill="#ecbd83"/><path d="m406.479 407.975s43.977-77.611 44.619-79.399l-35.504-21.813-36.424 22.389z" fill="#e2a975"/><path d="m423.823 311.818.001 11.478c0 1.817-.321 3.605-.931 5.28-.366 1.018-14.781 26.618-27.128 48.477l10.713 30.922s43.977-77.611 44.619-79.399z" fill="#d19a6e"/></g></g><g><g><path d="m232.5 182.481 26.205 26.205 27.308 78.823-78.827-27.304-26.204-26.205c-3.353-3.353-5.992-7.35-7.759-11.75l-26.415-65.776c-2.061-5.133 3.038-10.232 8.171-8.17l65.774 26.418c4.398 1.767 8.395 4.407 11.747 7.759z" fill="#f6d190"/><path d="m192.547 174.722c4.399 1.767 8.396 4.406 11.748 7.759l26.205 26.205 23.462 67.721 32.051 11.102-27.308-78.823-26.205-26.205c-3.352-3.353-7.349-5.992-11.748-7.759l-65.774-26.418c-5.086-2.042-10.128 2.944-8.216 8.029z" fill="#ecbd83"/><path d="m258.705 208.686 27.308 78.823-78.827-27.305 9.929-41.593z" fill="#ffe09f"/><path d="m253.962 276.407 32.051 11.102-27.308-78.823-26.051 6.216z" fill="#f6d190"/></g><g><path d="m286.013 287.509s-77.614 43.982-79.402 44.624c-1.675.609-3.463.931-5.28.931l-31.202-.004c-4.74.004-9.436-.956-13.796-2.821l-65.187-27.83c-5.09-2.171-5.087-9.385-.004-11.556l65.191-27.826c4.36-1.865 9.053-2.821 13.796-2.821h37.058z" fill="#f6d190"/><path d="m286.013 287.509s-77.614 43.982-79.402 44.624l-21.813-35.504 22.39-36.423z" fill="#e2a975"/></g><g><path d="m286.013 287.509s43.977-77.611 44.619-79.399c.609-1.675.93-3.463.93-5.28l-.004-31.202c.004-4.74-.956-9.436-2.821-13.796l-27.83-65.188c-2.171-5.09-9.385-5.087-11.556-.004l-27.826 65.191c-1.865 4.36-2.821 9.053-2.821 13.796v37.057z" fill="#f6d190"/><path d="m331.559 171.628c.004-4.74-.956-9.436-2.821-13.796l-27.83-65.188c-2.171-5.09-9.385-5.087-11.556-.004l-8.324 19.502 19.506 45.689c1.865 4.36 2.824 9.057 2.821 13.796l.004 31.202c0 1.817-.321 3.605-.93 5.28-.366 1.018-14.781 26.618-27.128 48.477l10.713 30.922s43.977-77.611 44.619-79.399c.609-1.675.931-3.463.931-5.28z" fill="#ecbd83"/><path d="m286.013 287.509s43.977-77.611 44.619-79.399l-35.504-21.813-36.424 22.389z" fill="#e2a975"/><path d="m303.357 191.352.001 11.478c0 1.817-.321 3.605-.93 5.28-.366 1.018-14.781 26.618-27.128 48.477l10.713 30.922s43.977-77.611 44.619-79.399z" fill="#d19a6e"/></g></g><g><g><path d="m117.238 79.793 19.809 19.809 20.643 59.584-59.587-20.64-19.808-19.808c-2.535-2.535-4.53-5.556-5.866-8.882l-19.968-49.722c-1.558-3.88 2.296-7.735 6.177-6.176l49.72 19.97c3.324 1.336 6.345 3.331 8.88 5.865z" fill="#ffe09f"/><path d="m53.74 63.32 26.412 10.609c3.326 1.336 6.347 3.331 8.881 5.865l19.809 19.808 16.796 48.482 32.051 11.102-20.643-59.584-19.809-19.808c-2.534-2.534-5.555-4.529-8.881-5.865l-49.72-19.97c-3.88-1.559-7.735 2.296-6.176 6.176z" fill="#f6d190"/><path d="m137.046 99.602 20.643 59.583-59.587-20.639 7.505-31.442z" fill="#e2a975"/><path d="m125.638 148.084 32.051 11.101-20.643-59.583-26.051 6.216z" fill="#d19a6e"/></g><g><path d="m157.689 159.185s-58.67 33.247-60.021 33.732c-1.266.461-2.618.703-3.991.703l-23.586-.003c-3.583.003-7.133-.723-10.429-2.132l-49.276-21.037c-3.848-1.641-3.845-7.094-.003-8.735l49.279-21.035c3.296-1.409 6.843-2.132 10.429-2.132h28.013z" fill="#ffe09f"/><path d="m157.689 159.185s-58.67 33.247-60.021 33.732l-16.49-26.837 16.925-27.533z" fill="#f6d190"/></g><g><path d="m157.689 159.185s33.243-58.667 33.729-60.019c.461-1.266.703-2.618.703-3.991l-.003-23.586c.003-3.583-.723-7.133-2.132-10.429l-21.037-49.276c-1.641-3.848-7.094-3.845-8.735-.003l-21.036 49.279c-1.409 3.296-2.132 6.843-2.132 10.429v28.012z" fill="#ffe09f"/><path d="m192.118 71.589c.003-3.583-.723-7.133-2.132-10.429l-21.037-49.276c-1.641-3.848-7.094-3.845-8.735-.003l-9.734 22.805 11.302 26.474c1.41 3.296 2.135 6.846 2.132 10.429l.003 23.586c0 1.374-.243 2.725-.703 3.991-.235.654-8.142 14.732-16.24 29.087l10.716 30.932s33.243-58.668 33.729-60.019c.461-1.266.703-2.618.703-3.991z" fill="#f6d190"/><path d="m157.689 159.185s33.243-58.667 33.729-60.019l-26.838-16.489-27.533 16.924z" fill="#f6d190"/><path d="m164.579 82.678-.665.409.001 12.089c0 1.374-.243 2.725-.703 3.991-.235.654-8.142 14.732-16.24 29.087l10.716 30.932s33.243-58.668 33.729-60.019z" fill="#ecbd83"/></g></g><path d="m406.479 407.975 94.604 94.604c1.378 1.378 3.713.172 3.387-1.749l-8.822-52.005c-.43-2.537-1.403-4.951-2.851-7.077l-57.603-84.589z" fill="#e2a975"/><path d="m504.469 500.829-8.822-52.005c-.43-2.537-1.403-4.951-2.851-7.078l-57.603-84.589-12.79 22.636 42.261 62.059c1.401 2.057 2.341 4.392 2.757 6.845l5.098 25.317 28.564 28.564c1.377 1.378 3.712.173 3.386-1.749z" fill="#d19a6e"/></g><path d="m511.863 499.574-8.822-52.004c-.615-3.626-1.976-7.005-4.046-10.045l-38.78-56.947c-2.331-3.424-6.998-4.309-10.421-1.978s-4.309 6.997-1.978 10.421l38.78 56.946c.847 1.244 1.404 2.627 1.655 4.111l5.938 35-78.372-78.373c1.068-1.886 42.083-74.887 42.319-75.538.007-.02.014-.039.021-.057.037-.103.064-.208.097-.312.838-2.419 1.275-4.94 1.275-7.505l-.004-31.195c.005-5.789-1.147-11.425-3.423-16.746l-27.829-65.187c-2.169-5.085-7.145-8.372-12.674-8.373-.001 0-.001 0-.002 0-5.529 0-10.504 3.284-12.676 8.368l-27.825 65.187c-2.272 5.313-3.424 10.947-3.424 16.745v18.953l-13.402-13.401c-4.095-4.096-8.892-7.264-14.251-9.412l-40.567-16.301c11.847-20.941 32.975-58.384 33.686-60.105 1.279-2.733 1.553-4.319 1.926-8.998l-.003-31.195c.004-5.791-1.148-11.427-3.423-16.746l-27.829-65.186c-2.169-5.086-7.143-8.373-12.672-8.375-.001 0-.003 0-.004 0-5.529 0-10.504 3.284-12.676 8.369l-27.824 65.187c-2.272 5.314-3.425 10.948-3.425 16.745v18.952l-13.402-13.402c-4.097-4.097-8.893-7.264-14.251-9.412l-50.596-20.323c17.691-31.475 25.915-45.651 25.604-46.014.697-2.017 1.061-4.117 1.061-6.255l-.003-23.579c.004-4.625-.917-9.128-2.734-13.381l-21.04-49.272c-1.928-4.52-6.349-7.441-11.263-7.442-.001 0-.002 0-.003 0-4.914 0-9.335 2.918-11.266 7.438l-21.033 49.275c-1.815 4.245-2.736 8.746-2.736 13.378v9.905l-7.006-7.006c-3.269-3.269-7.101-5.799-11.388-7.521l-49.719-19.97c-4.561-1.834-9.752-.771-13.227 2.704s-4.537 8.666-2.706 13.227l19.968 49.72c1.722 4.29 4.253 8.122 7.522 11.392l7.006 7.006h-9.906c-4.63 0-9.131.92-13.374 2.734l-49.28 21.035c-4.519 1.93-7.438 6.352-7.437 11.267 0 4.915 2.921 9.336 7.44 11.264l49.276 21.037c3.811 1.627 8.216-.143 9.842-3.953 1.626-3.809-.143-8.216-3.953-9.842l-43.351-18.508 43.354-18.506c2.372-1.015 4.889-1.528 7.481-1.528h14.599l-9.9 16.105c-1.48 2.409-1.48 5.445 0 7.854l16.489 26.838c2.336 2.334 3.184 4.519 8.925 3.133.704-.253 1.739-.625 45.743-25.522l20.318 50.604c2.17 5.383 5.342 10.178 9.418 14.243l13.405 13.404h-18.957c-5.797 0-11.431 1.152-16.741 3.423l-65.194 27.827c-5.084 2.172-8.368 7.149-8.366 12.68.002 5.529 3.289 10.503 8.372 12.671l65.184 27.829c5.314 2.271 10.938 3.424 16.708 3.424h.036l31.203.004c2.684 0 5.323-.465 7.813-1.371.707-.254 2.119-.763 61.29-34.242l16.295 40.573c2.171 5.385 5.343 10.18 9.419 14.242l13.406 13.406h-18.958c-5.797 0-11.431 1.152-16.741 3.423l-65.192 27.827c-5.084 2.172-8.369 7.148-8.368 12.679s3.289 10.504 8.372 12.672l65.184 27.829c5.314 2.271 10.938 3.424 16.708 3.424h.036l31.203.004c2.684 0 5.323-.465 7.814-1.371.558-.201 56.162-31.333 75.6-42.345l90.569 90.569c4.939 5.618 17.487 1.76 16.083-8.309zm-182.114-56.953-15.682-25.525 16.822-27.366 57.448 19.898s-52.886 29.824-58.588 32.993zm85.846-127.056 25.525 15.683c-.643 1.157-32.995 58.567-32.995 58.567l-19.896-57.429zm-41.29 22.458 20.025 57.805-57.805-20.025 7.28-30.501zm68.004-56.777c1.474 3.447 2.219 7.095 2.216 10.849l.003 23.642-21.432-13.168v-66.325zm-53.419-.004 19.207-44.997v66.322l-21.425 13.17v-23.644c-.001-3.758.745-7.408 2.218-10.851zm-41.228 27.01 16.719 16.719-24.462 5.838-44.568-44.568c.216-.381.431-.761.645-1.138l42.435 17.051c3.472 1.392 6.577 3.443 9.231 6.098zm-138.379 13.903-15.682-25.525 16.822-27.366 57.448 19.898c-14.678 8.305-53.229 30.016-58.588 32.993zm78.382-52.787-19.902-57.447 27.367-16.821 25.525 15.683c-1.921 3.458-24.139 42.939-32.99 58.585zm-33.825-51.811 20.025 57.805-57.806-20.026 7.281-30.501zm14.584-56.781 19.207-44.998v35.5c0 4.143 3.358 7.5 7.5 7.5s7.5-3.357 7.5-7.5v-35.498l19.212 45.001c1.474 3.445 2.22 7.093 2.217 10.848l.003 23.642-25.007-15.364c-2.409-1.479-5.445-1.479-7.854.001l-24.996 15.365v-23.644c-.001-3.759.745-7.408 2.218-10.853zm-41.227 27.01 16.719 16.718-24.462 5.838-46.893-46.891 45.404 18.237c3.471 1.391 6.577 3.443 9.232 6.098zm-45.791-85.927c-6.602 11.821-13.877 24.695-22.066 39.184l-13.236-38.206 18.476-11.357 16.843 10.349c-.006.01-.011.02-.017.03zm-35.862 45.183-38.57-13.36 4.858-20.353 20.35-4.856zm.532-82.938 18.504-43.351 18.509 43.354c1.016 2.378 1.53 4.894 1.528 7.483l.002 14.597-16.114-9.901c-2.409-1.479-5.446-1.479-7.854.001l-16.106 9.9v-14.598c.001-2.592.516-5.11 1.531-7.485zm-84.254-.785 43.741 17.569c2.398.963 4.542 2.379 6.371 4.208l10.324 10.324-18.392 4.389c-2.75.656-4.897 2.804-5.554 5.554l-4.391 18.395-10.324-10.325c-1.829-1.829-3.245-3.973-4.208-6.373zm39.517 84.286 38.206 13.233c-8.808 4.985-30.06 16.986-39.215 22.086l-10.348-16.843zm78.84 71.854-18.231-45.407 46.898 46.897-5.84 24.464-16.726-16.725c-2.641-2.635-4.696-5.744-6.101-9.229zm-20.898 50.464c3.44-1.471 7.09-2.217 10.848-2.217h23.644l-13.17 21.425h-66.323zm10.842 55.636c-.008 0-.015 0-.023 0-3.739 0-7.378-.746-10.822-2.218l-44.998-19.211h66.325l13.167 21.432zm130.521 14.365-17.04-42.43c.378-.214.759-.43 1.141-.646l44.567 44.568-5.839 24.463-16.726-16.727c-2.643-2.635-4.697-5.742-6.103-9.228zm-20.897 50.465c3.44-1.471 7.09-2.217 10.848-2.217h23.644l-13.17 21.425h-66.321zm10.842 55.636c-.008 0-.015 0-.023 0-3.739 0-7.378-.746-10.822-2.218l-44.998-19.211h66.326l13.168 21.432z"/></g></svg>