<svg id="Capa_1" enable-background="new 0 0 511.785 511.785" height="512" viewBox="0 0 511.785 511.785" width="512" xmlns="http://www.w3.org/2000/svg"><g><g><path d="m410.833 166.498v207.61l-85.76 85.751c-3.205 3.205-7.553 5.006-12.085 5.006h-114.192c-4.533 0-8.88-1.801-12.085-5.006l-85.76-85.751v-207.61l85.76-85.751c3.205-3.205 7.553-5.006 12.085-5.006h114.192c4.533 0 8.88 1.801 12.085 5.006z" fill="#b6c4cf"/><path d="m325.073 80.747c-3.205-3.205-7.553-5.005-12.086-5.005h-32.035c4.533 0 8.88 1.801 12.085 5.005l85.76 85.751v207.61l-85.76 85.751c-3.205 3.205-7.553 5.006-12.085 5.006h32.035c4.533 0 8.88-1.801 12.086-5.006l85.76-85.751v-207.61z" fill="#9facba"/><path d="m410.833 166.498v207.61l-104.607-53.471h-100.669l-104.607 53.471v-207.61l104.607 53.47h100.669z" fill="#8d9ca8"/><g><path d="m378.798 182.872v174.861l32.035 16.375v-207.61z" fill="#7a8c98"/></g><path d="m205.556 219.967h100.672v100.672h-100.672z" fill="#b6c4cf"/><path d="m274.193 219.967h32.035v100.672h-32.035z" fill="#9facba"/><g><path d="m100.95 166.498-46.025-33.392c-3.859-2.8-6.143-7.279-6.143-12.047v-35.079l118.579 14.115z" fill="#b3e59f"/><path d="m48.782 85.98v3.813l86.544 10.301-52.941 52.935 18.565 13.469 66.411-66.404z" fill="#95d6a4"/><path d="m48.782 37.629v48.351l52.168 6.21-43.053-57.591c-2.915-3.899-9.115-1.838-9.115 3.03z" fill="#5aa0a5"/></g><g><path d="m100.95 374.108-40.698 54.603 107.109 11.8z" fill="#b3e59f"/><path d="m131.359 436.545 36.002 3.966-66.411-66.403-13.68 18.353z" fill="#95d6a4"/><path d="m60.252 428.711 35.297 72.936c1.975 4.081 7.908 3.706 9.353-.592l21.861-65.016z" fill="#78c2a4"/><path d="m60.252 428.71 1.804 3.728 32.671 3.6-10.547 28.844c-.758 2.254-2.751 3.418-4.759 3.437l16.128 33.327c1.975 4.082 7.908 3.706 9.353-.592l21.861-65.016z" fill="#5aa0a5"/></g><g><path d="m410.835 166.498 46.025-33.392c3.859-2.8 6.143-7.279 6.143-12.047v-35.079l-118.579 14.115z" fill="#b3e59f"/><path d="m430.968 89.793v31.266c0 4.768-2.284 9.247-6.143 12.047l-27.46 19.923 13.47 13.469 46.025-33.392c3.859-2.8 6.143-7.279 6.143-12.047v-35.079z" fill="#95d6a4"/><path d="m463.003 37.629v48.351l-52.168 6.21 43.053-57.591c2.915-3.899 9.115-1.838 9.115 3.03z" fill="#5aa0a5"/></g><g><path d="m410.834 374.108 40.697 54.603-107.108 11.8z" fill="#b3e59f"/><path d="m410.834 374.108-18.356 18.353 27.019 36.249-71.108 7.835-3.966 3.966 107.108-11.801z" fill="#95d6a4"/><path d="m451.531 428.711-35.297 72.936c-1.975 4.081-7.908 3.706-9.353-.592l-21.861-65.016z" fill="#78c2a4"/><path d="m417.794 432.428-15.14 33.047c-1.365 2.822-4.621 3.51-6.979 2.249l11.207 33.332c1.445 4.298 7.378 4.673 9.353.592l35.297-72.936z" fill="#5aa0a5"/></g><path d="m293.926 75.741h-76.068v-42.795c0-4.156 2.296-7.973 5.968-9.92l26.806-14.215c3.29-1.745 7.231-1.745 10.521 0l26.806 14.215c3.672 1.947 5.968 5.764 5.968 9.92v42.795z" fill="#b3e59f"/><path d="m287.958 23.027-26.806-14.215c-3.29-1.745-7.231-1.745-10.521 0l-10.757 5.704 16.049 8.511c3.672 1.947 5.968 5.763 5.968 9.92v42.795h32.035v-42.796c0-4.156-2.296-7.972-5.968-9.919z" fill="#95d6a4"/></g><path d="m461.904 25.71c-5.142-1.713-10.778.057-14.022 4.398l-41.127 55.013-59.604 7.094-16.775-16.773c-4.646-4.645-10.821-7.202-17.389-7.202h-87.629v-35.294c0-1.384.759-2.646 1.981-3.294l26.806-14.215c1.095-.58 2.4-.579 3.493 0l26.806 14.215c1.222.648 1.981 1.91 1.981 3.294v7.529c0 4.143 3.357 7.5 7.5 7.5s7.5-3.357 7.5-7.5v-7.529c0-6.95-3.814-13.29-9.954-16.546l-26.804-14.214c-5.495-2.914-12.056-2.914-17.549 0l-26.806 14.214c-6.14 3.256-9.954 9.596-9.954 16.546v35.295h-11.562c-6.568 0-12.743 2.558-17.389 7.202l-16.775 16.773-59.602-7.094-41.126-55.015c-3.245-4.339-8.88-6.106-14.023-4.397-5.143 1.71-8.598 6.5-8.598 11.919v83.431c0 7.146 3.453 13.918 9.239 18.117l42.929 31.146v114.55c0 4.143 3.358 7.5 7.5 7.5s7.5-3.357 7.5-7.5v-106.118l89.605 45.802v91.492l-89.605 45.802v-41.212c0-4.143-3.358-7.5-7.5-7.5s-7.5 3.357-7.5 7.5v50.98l-39.211 52.609c-1.41 1.946-2.102 4.956-.738 7.75l35.297 72.936c4.062 9.2 19.48 9.481 23.213-1.469l19.936-59.291 31.975 3.522 17.487 17.485c4.645 4.645 10.82 7.202 17.388 7.202h114.191c6.567 0 12.743-2.558 17.389-7.202l17.487-17.485 31.975-3.522 19.936 59.291c3.012 9.725 17.918 11.864 23.213 1.468l35.296-72.936c1.018-2.204 1.135-5.234-.737-7.749l-39.212-52.611v-205.076c-.015-1.282-.34-3.42-2.195-5.347l-55.485-55.479 94.851-11.29v26.635c0 2.357-1.14 4.592-3.048 5.977l-19.019 13.798c-3.353 2.432-4.099 7.122-1.666 10.475 2.432 3.354 7.124 4.099 10.475 1.666l19.02-13.798c5.784-4.198 9.238-10.971 9.238-18.117v-83.432c-.004-5.42-3.459-10.21-8.603-11.919zm-248.848 287.427v-85.668h85.672v85.668zm100.671-88.58 89.605-45.802v183.096l-89.605-45.802zm-121.714-138.506c1.812-1.812 4.221-2.81 6.783-2.81h114.191c2.562 0 4.971.998 6.783 2.81l78.47 78.462-93.816 47.954h-97.066l-93.816-47.954zm-135.731-41.086 28.191 37.71-28.191-3.355zm0 76.095v-26.635l94.85 11.29-50.959 50.954-40.843-29.632c-1.908-1.386-3.048-3.62-3.048-5.977zm43.415 371.941-26.786-55.35 43.776 4.823zm-25.604-70.311 27.687-37.146 45.179 45.174zm245.677 31.865c-1.813 1.812-4.222 2.81-6.783 2.81h-114.191c-2.562 0-4.971-.998-6.782-2.81l-78.47-78.462 93.815-47.954h97.066l93.816 47.954zm90.234-69.011 27.686 37.146-72.866 8.028zm2.083 107.458-16.989-50.528c1.9-.209 41.934-4.62 43.775-4.823zm43.416-448.037v34.354l-28.191 3.355z"/></g></svg>