<svg id="Capa_1" enable-background="new 0 0 512.011 512.011" height="512" viewBox="0 0 512.011 512.011" width="512" xmlns="http://www.w3.org/2000/svg"><g><g><path d="m244.866 350.269v60.55l-20.29 5.69-72.7 20.4-4.22-7.4-19.73-34.55-87.78-153.76h36.17c6.04 0 11.94 1.83 16.93 5.24l52.48 35.94z" fill="#ff8086"/><path d="m244.866 350.269v60.55l-20.29 5.69-10.3-5.69-66.62 18.69-19.73-34.55 17.8-112.58z" fill="#e5646e"/><path d="m93.243 246.439c-4.986-3.414-10.887-5.241-16.93-5.241h-30.631c6.042 0 11.944 1.827 16.93 5.241l151.623 103.831v60.545l-66.585 18.684 4.229 7.408 92.987-26.092v-60.545z" fill="#e5646e"/><path d="m40.142 241.197-32.019 44.924c-1.742 2.443.468 5.742 3.39 5.061l51.957-9.125z" fill="#8bb3ea"/><path d="m332.496 205.429v95.46h-159.74l-14.96-46.83-5.69-17.81c-2.56-8.01-1.03-16.77 4.09-23.45l104.08-135.67c2.35-3.05 7.08-2.6 8.79.85l31.99 64.29z" fill="#db4655"/><path d="m332.496 205.429v95.46h-159.74l-14.96-46.83 143.26-111.79z" fill="#bd4150"/><path d="m269.071 77.978c-1.715-3.446-6.448-3.904-8.791-.849l-16.258 21.191c2.362-.865 5.213.05 6.462 2.561l51.385 104.545v95.465h30.631v-95.465z" fill="#bd4150"/><path d="m151.879 436.907 26.333-166.551c1.113-6.233 4.49-11.836 9.482-15.731l203.486-158.771c3.429-2.675 8.432-.217 8.409 4.132l-1.002 189.974c-.042 7.892-3.028 15.483-8.375 21.288l-98.138 125.659-47.208-26.092z" fill="#ff9a9f"/><g><path d="m391.18 95.854-28.429 22.182c3.033-.595 6.225 1.664 6.207 5.14l-1.002 166.784c-.042 7.892-3.028 15.483-8.375 21.288l-88.902 113.834 21.395 11.825 98.138-125.659c5.347-5.805 8.333-13.396 8.375-21.288l1.002-189.974c.022-4.348-4.981-6.807-8.409-4.132z" fill="#ff8086"/></g><path d="m292.074 436.907 210.095-93.467c3.893-1.378 2.602-7.181-1.508-6.778l-141.354 14.158z" fill="#ff8086"/><path d="m500.661 336.662-26.884 2.693c.365 1.58-.28 3.392-2.238 4.085l-163.155 72.585-16.309 20.883 210.095-93.467c3.892-1.379 2.601-7.182-1.509-6.779z" fill="#e5646e"/></g><path d="m511.737 337.755c-1.225-5.51-6.197-9.107-11.823-8.557l-103.254 10.342c-4.122.413-7.128 4.089-6.716 8.21.413 4.122 4.086 7.126 8.21 6.716l78.438-7.856-160.111 71.23 79.463-101.748c6.49-7.163 10.09-16.416 10.142-26.092l1.002-189.975c.025-4.91-2.696-9.306-7.104-11.471-4.405-2.167-9.548-1.635-13.419 1.386l-203.483 158.772c-5.937 4.507-11.202 12.921-12.378 21.107l-11.453-35.853c-1.812-5.666-.728-11.874 2.896-16.602l101.842-132.753 23.33 46.878c1.847 3.709 6.352 5.219 10.057 3.373 3.708-1.846 5.218-6.349 3.373-10.057l-24.963-50.157c-1.957-3.947-5.742-6.562-10.127-6.993-4.392-.438-8.626 1.396-11.333 4.909l-104.081 135.673c-6.613 8.627-8.588 19.952-5.283 30.295l13.999 43.82-61.483-42.105c-6.269-4.283-13.586-6.547-21.161-6.547h-36.17c-2.051.058-4.478.865-6.111 3.145l-32.02 44.924c-2.621 3.678-2.69 8.478-.178 12.229 2.122 2.678 6.056 5.65 11.122 4.545l46.613-8.186 85.79 150.272c1.53 2.58 4.895 4.557 8.54 3.502l90.033-25.26 44.51 24.602c1.748.912 4.174 1.402 6.677.288l209.893-93.378c5.102-1.99 7.919-7.24 6.721-12.628zm-326.129-66.148c.802-4.393 3.179-8.321 6.7-11.068l199.756-155.861-.978 185.243c-.032 6.037-2.302 11.807-6.392 16.247-.138.149-.27.305-.395.465l-94.199 120.616-35.343-19.535 44.041-89.272c1.833-3.715.308-8.212-3.407-10.044-3.717-1.833-8.212-.307-10.044 3.407l-45.729 92.694-78.507 22.029zm-109.292-22.907c4.543 0 8.935 1.359 12.693 3.928l76.166 52.16-17.371 109.862-94.74-165.95zm-56.07 33.334 19.197-26.934 12.227 21.415z"/></g></svg>