<svg id="Capa_1" enable-background="new 0 0 511.975 511.975" height="512" viewBox="0 0 511.975 511.975" width="512" xmlns="http://www.w3.org/2000/svg"><g><g><path d="m278.086 169.51 49.445 158.148-158.148-49.445-103.665-202.911c-1.548-3.022-.7-6.165 1.296-8.161 1.968-1.968 5.037-2.817 8.022-1.362z" fill="#e2a975"/><path d="m278.086 169.51 49.445 158.148-260.517-260.517c1.968-1.968 5.037-2.817 8.022-1.362z" fill="#f6d190"/><path d="m246.235 169.51 34.957 111.808 46.34 46.34-49.446-158.148-203.05-103.731c-2.985-1.455-6.054-.606-8.022 1.362l22.105 22.105z" fill="#ecbd83"/><path d="m471.9 174.071-144.37 153.582 69.202-150.169 67.208-6.716c.182-.022.364-.029.538-.044 3.006-.124 5.683 1.215 7.422 3.347z" fill="#ffe09f"/><path d="m471.9 174.071c1.63 1.979 2.437 4.649 1.906 7.451 0 .029 0 .044-.007.065l-13.155 67.478c-2.314 11.904-10.215 21.959-21.224 27.03l-111.89 51.558z" fill="#f6d190"/><path d="m473.804 181.52v.072l-13.161 67.47c-2.315 11.905-10.218 21.959-21.228 27.031l-111.881 51.562 20.569-21.886 64.404-29.676c11-5.073 18.902-15.126 21.217-27.031l8.458-43.382 29.717-31.61c1.628 1.976 2.441 4.651 1.905 7.45z" fill="#ecbd83"/><path d="m348.114 7.516-20.584 320.137-49.44-158.144 62.646-157.569c.007-.022.022-.036.029-.058 1.433-3.136 4.438-4.555 7.349-4.366z" fill="#ffe09f"/><path d="m354.938 13.191 41.793 164.292-69.201 150.17 20.584-320.137c3.019.196 5.922 2.125 6.824 5.675z" fill="#f6d190"/><path d="m396.734 177.486-69.199 150.17 4.414-68.695 37.548-81.475-25.787-101.396 4.404-68.571c3.015.196 5.927 2.12 6.822 5.67z" fill="#ecbd83"/><path d="m327.531 327.658 78.669-36.251 18.132 18.132c4.209 4.209 4.209 11.034 0 15.243l-18.724 18.724z" fill="#e2a975"/><path d="m424.331 324.785-18.717 18.717-22.226-4.507 14.21-14.21c4.209-4.209 4.209-11.041 0-15.25l-9.693-9.693 18.295-8.438 18.131 18.131c4.209 4.209 4.209 11.041 0 15.25z" fill="#d19a6e"/><path d="m173.945 472.027 153.582-144.371-150.169 69.202-6.716 67.208c-.022.182-.029.364-.044.538-.124 3.006 1.215 5.684 3.347 7.423z" fill="#ffe09f"/><path d="m173.945 472.027c1.979 1.63 4.649 2.437 7.451 1.906.029 0 .044 0 .065-.007l67.478-13.155c11.904-2.314 21.959-10.215 27.03-21.224l51.558-111.891z" fill="#f6d190"/><path d="m7.389 348.24 320.137-20.584-158.144-49.44-157.569 62.646c-.022.007-.036.022-.058.029-3.136 1.434-4.555 4.439-4.366 7.349z" fill="#ffe09f"/><path d="m13.065 355.065 164.292 41.793 150.169-69.202-320.137 20.584c.197 3.02 2.125 5.923 5.676 6.825z" fill="#f6d190"/><path d="m327.531 327.658-36.251 78.669 18.132 18.132c4.209 4.209 11.034 4.209 15.243 0l18.724-18.724z" fill="#e2a975"/><path d="m343.381 405.735-18.727 18.728c-4.209 4.209-11.031 4.209-15.239 0l-3.674-3.673 15.044-15.054-8.942-44.03 15.692-34.049z" fill="#d19a6e"/><path d="m405.609 343.507 41.444 65.237-38.439 38.439-65.237-41.444-15.847-78.086z" fill="#f6d190"/><path d="m447.051 408.74-17.524 17.523-11.133-17.523-41.448-65.238-48.177-9.775-1.234-6.071 78.068 15.846z" fill="#ecbd83"/><path d="m447.053 408.744 56.615 89.099c2.471 3.888-2.061 8.42-5.949 5.95l-89.105-56.609z" fill="#e2a975"/><path d="m497.718 503.797-31.734-20.168-36.457-57.366 17.524-17.524 56.615 89.1c2.469 3.89-2.058 8.428-5.948 5.958z" fill="#d19a6e"/></g><path d="m509.998 493.821-94.836-149.261 14.473-14.474c6.304-6.137 7.563-18.414.001-25.85l-10.525-10.526 23.447-10.804c13.169-6.065 22.683-18.182 25.448-32.406l13.155-67.478-.002-.001c2.161-9.471-6.547-20.995-18.01-19.712l-60.741 6.069-40.201-158.034c-1.636-6.437-6.973-10.876-13.597-11.312-.003 0-.005-.001-.008-.001-6.261-.396-11.971 2.973-14.605 8.618-.083.171-.16.346-.23.52l-59.603 149.915-195.716-99.983c-.042-.021-.084-.043-.126-.063-5.645-2.75-12.161-1.649-16.611 2.8-4.476 4.477-5.549 11.262-2.672 16.877l99.918 195.576-149.914 59.602v.001c-12.795 5.142-11.651 24.987 2.174 28.439h-.001l158.037 40.202-6.068 60.729c-.739 9.868 7.451 20.181 19.711 18.021l.001.002 67.473-13.154c14.229-2.766 26.345-12.278 32.411-25.447l10.804-23.448 10.525 10.525c3.563 3.563 8.244 5.344 12.925 5.344s9.361-1.781 12.926-5.344l18.724-18.724c1.778-1.779 2.547-4.331 2.047-6.796l-13.597-66.983 63.856 12.962 36.509 57.469-29.938 29.938-30.697-19.501c-3.495-2.223-8.13-1.188-10.352 2.309-2.222 3.496-1.188 8.131 2.309 10.352l124.876 79.335c8.741 6.449 23.364-5.149 16.3-16.303zm-238.13-319.066 39.406 126.039-216.518-216.518zm28.799 136.645-126.038-39.405-90.49-177.122zm-121.792 145.698 5.519-55.224 104.418-48.119zm274.407-209.465c-1.848 9.504-8.203 17.598-17.001 21.65l-76.898 35.434 104.429-111.091zm-99.654 41.306 48.119-104.419 55.225-5.519zm-14.952-251.519-3.538 55.018c-.266 4.134 2.869 7.7 7.003 7.966 4.149.285 7.701-2.87 7.966-7.003l3.531-54.901 35.17 138.259-51.205 111.115 10.145-157.777c.266-4.134-2.869-7.7-7.003-7.966-4.157-.279-7.7 2.87-7.966 7.003l-10.142 157.733-36.595-117.058zm-168.993 248.748 117.057 36.595-249.444 16.039zm118.065 51.562-111.116 51.205-138.26-35.171zm-18.591 98.678c-4.054 8.798-12.146 15.153-21.654 17.001l-54.003 10.529 111.091-104.428zm50.197-17.252c-1.279 1.279-3.36 1.278-4.638.001l-14.437-14.438 24.465-53.092 10.484 51.653zm85.239-118.75 14.437 14.438c.826 1.237 1.644 2.071-.001 4.636l-15.875 15.876-51.652-10.484zm15.94 145.464 25.207-25.207 43.925 69.127z"/></g></svg>