<svg id="Capa_1" enable-background="new 0 0 511.989 511.989" height="512" viewBox="0 0 511.989 511.989" width="512" xmlns="http://www.w3.org/2000/svg"><g><g><path d="m504.5 332.276-39.507 135.503c-3.216 11.032-12.18 18.463-22.27 18.463h-180.26l-121.171-259.184 168.818-55.478 145.36 38.738c7.817 2.083 14.172 8.623 16.854 17.345z" fill="#b6c4cf"/><path d="m472.323 227.662c-2.682-8.721-9.038-15.261-16.854-17.344l-145.36-38.738-13.47 4.427 128.749 34.311c7.817 2.083 14.172 8.623 16.854 17.344l32.177 104.614-39.507 135.503c-3.216 11.032-12.18 18.463-22.27 18.463h30.08c10.09 0 19.054-7.431 22.27-18.463l39.508-135.503z" fill="#9facba"/><path d="m277.302 227.054h-195.717l-27.867-47.123c-3.068-5.188-3.568-11.847-1.319-17.566l46.783-118.963h160.524l50.404 128.174z" fill="#edf4ff"/><path d="m259.706 43.401h-30.08l50.404 128.174-32.808 55.479h30.08l32.808-55.479z" fill="#dbeaff"/><path d="m277.302 227.054v97.919c0 11.426-8.03 20.689-17.937 20.689h-149.299c-5.119 0-7.159-7.633-2.929-10.957l136.981-107.651z" fill="#8d9ca8"/><path d="m247.222 227.054v97.919c0 11.427-8.031 20.689-17.937 20.689h30.08c9.906 0 17.937-9.263 17.937-20.689v-97.919z" fill="#7a8c98"/><path d="m504.5 332.276-39.507 135.503c-3.216 11.032-12.18 18.463-22.27 18.463h-180.26l98.826-141.269c5.617-8.029 14.081-12.697 23.026-12.697z" fill="#8d9ca8"/><path d="m474.42 332.276-39.507 135.503c-3.216 11.032-12.18 18.463-22.27 18.463h30.08c10.09 0 19.054-7.431 22.27-18.463l39.507-135.503z" fill="#7a8c98"/><path d="m262.463 486.242h-61.908c-4.866 0-7.067-7.018-3.328-10.61l41.597-39.955z" fill="#7a8c98"/><path d="m259.706 43.402 43.23-16.013c4.4-2.585 9.687-2.093 13.67 1.272l27.642 23.35c4.487 3.791 7.139 9.822 7.139 16.238v36.883c0 5.886-2.967 11.235-7.599 13.703l-44.993 23.966z" fill="#b6c4cf"/><path d="m344.248 52.012-27.642-23.35c-3.984-3.365-9.27-3.857-13.67-1.272l-12.455 4.613 23.687 20.01c4.487 3.791 7.139 9.822 7.139 16.238v36.883c0 5.886-2.967 11.236-7.599 13.703l-20.123 10.718 5.21 13.247 44.993-23.966c4.633-2.468 7.599-7.817 7.599-13.703v-36.884c0-6.415-2.652-12.447-7.139-16.237z" fill="#9facba"/><path d="m99.181 43.402-43.23-16.013c-4.4-2.585-9.687-2.093-13.67 1.272l-27.642 23.35c-4.487 3.791-7.139 9.823-7.139 16.238v36.883c0 5.886 2.967 11.235 7.6 13.703l44.993 23.966z" fill="#b6c4cf"/><path d="m55.952 27.389c-4.4-2.585-9.687-2.093-13.67 1.272l-8.038 6.79c3.022-1.407 6.143-.861 11.082.419l23.777 7.531-33.879 86.152 24.87 13.247 39.089-99.4z" fill="#9facba"/><path d="m204.773 227.054h-52.47l7.039-57.559h38.393z" fill="#8bb3ea"/><path d="m197.735 169.495h-26.235l7.038 57.559h26.235z" fill="#739ad6"/></g><path d="m511.989 332.39c-.054-.752.082-.744-.32-2.322l-32.18-104.608c-3.457-11.25-11.712-19.621-22.087-22.394l-141.695-37.754-7.485-19.034 39.093-20.822c7.031-3.745 11.574-11.723 11.574-20.323v-36.884c0-8.571-3.663-16.782-9.799-21.967l-27.642-23.351c-6.219-5.255-14.648-6.154-21.664-2.373l-42.681 15.81c-3.477 1.684-5.942 4.442-4.375 9.778l49.063 124.765-28.766 48.643h-61.612l-6.02-49.228 15.75-44.863c1.372-3.908-.684-8.188-4.592-9.561-3.91-1.374-8.188.685-9.561 4.592l-14.57 41.501h-28.277l-19.559-42.415c-1.734-3.761-6.188-5.403-9.951-3.67-3.762 1.734-5.405 6.189-3.67 9.951l20.677 44.839-5.974 48.853h-59.803l-25.689-43.44c-1.897-3.209-2.202-7.425-.795-11.003l44.913-114.209h120.307c4.142 0 7.5-3.357 7.5-7.5s-3.358-7.5-7.5-7.5h-124.073l-41.42-15.343c-7.019-3.78-15.444-2.88-21.665 2.373l-27.642 23.351c-6.136 5.185-9.799 13.396-9.799 21.967v36.884c0 8.601 4.543 16.577 11.574 20.322l39.093 20.823-5.247 13.342c-3.108 7.902-2.419 16.922 1.843 24.128l27.867 47.123c1.35 2.282 3.804 3.683 6.456 3.683h54.932l23.086 49.381-57.1 44.874c-4.575 3.596-6.323 9.846-4.349 15.552 1.85 5.347 6.526 8.802 11.912 8.802h149.299c14.026 0 25.437-12.646 25.437-28.188v-95.869l28.866-48.812 139.866 37.267c5.345 1.428 9.688 6.029 11.618 12.309l29.196 94.908h-43.232c-4.142 0-7.5 3.357-7.5 7.5s3.358 7.5 7.5 7.5h43.383l-36.711 125.911c-1.516 5.828-7.82 13.261-15.066 13.055h-165.86l90.571-129.471c4.221-6.034 10.374-9.495 16.88-9.495h31.083c4.142 0 7.5-3.357 7.5-7.5s-3.358-7.5-7.5-7.5h-31.083c-11.472 0-22.104 5.794-29.171 15.897l-91.383 130.63-44.528-95.24c-1.755-3.753-6.219-5.376-9.971-3.618-3.752 1.754-5.372 6.218-3.618 9.97l24.11 51.573-37.722 36.234c-4.087 3.925-5.321 9.956-3.145 15.364 2.024 5.029 6.495 8.154 11.668 8.154l242.165.001c13.071.035 25.482-9.89 29.474-23.864l39.507-135.503c.049-.253.241-.758.289-1.986zm-493.364-220.173c-2.168-1.155-3.625-4.002-3.625-7.084v-36.884c0-4.21 1.674-8.139 4.479-10.508l27.642-23.351c1.763-.711 1.771-2.18 6.226.031l36.055 13.355-33.209 84.449zm147.355 64.778h25.116l5.204 42.559h-35.524zm-12.904 57.558h69.362l-50.725 39.864zm116.726 90.42c0 7.272-4.682 13.188-10.437 13.188h-144.489l131.836-103.608h23.089v90.42zm35.739-290.551c1.882-.792 2.569-1.792 6.226-.031l27.642 23.351c2.805 2.369 4.479 6.298 4.479 10.508v36.884c0 3.082-1.457 5.929-3.625 7.084l-37.567 20.01-33.21-84.449zm-69.078 413.922 14.211 30.398h-45.858z"/></g></svg>