<svg id="Capa_1" enable-background="new 0 0 512.012 512.012" height="512" viewBox="0 0 512.012 512.012" width="512" xmlns="http://www.w3.org/2000/svg"><g><g><path d="m211.267 142.823h90.436l88.565 361.687h-267.567z" fill="#db4655"/><path d="m390.265 504.51h-44.75l-30.066-15.785c-4.037-2.119-6.958-5.883-8.009-10.319l-79.515-335.586h73.78z" fill="#bd4150"/><g><path d="m256.485 142.823h-111.139l-120.549 253.028c-2.646 5.553-.183 12.195 5.444 14.681l147.381 65.106z" fill="#ff8086"/><path d="m227.92 142.823-122.352 300.985 72.054 31.83 78.863-332.815z" fill="#e5646e"/><path d="m145.346 7.51-52.094 48.871c-5.094 4.779-2.67 13.316 4.175 14.705l47.918 9.723v-73.299z" fill="#978ecb"/><path d="m116.786 34.303v40.711l28.56 5.795v-73.299z" fill="#8379c1"/><path d="m256.485 142.823h111.139l119.606 253.068c2.619 5.54.165 12.151-5.435 14.64l-146.448 65.107z" fill="#ff8086"/><path d="m487.23 395.891-119.606-253.068h-28.565l119.607 253.068c2.619 5.541.165 12.151-5.435 14.64l-120.605 53.618 2.722 11.489 146.448-65.107c5.599-2.489 8.053-9.099 5.434-14.64z" fill="#e5646e"/><g><path d="m256.485 142.823h-111.139v-135.313l111.139 39.854z" fill="#ff8086"/><path d="m256.485 142.823h111.139v-135.313l-111.139 39.854z" fill="#ff8086"/><path d="m339.059 17.753v125.07h28.565v-135.313z" fill="#e5646e"/><path d="m367.624 7.51 52.093 48.872c5.094 4.779 2.67 13.316-4.175 14.705l-47.918 9.723z" fill="#978ecb"/><path d="m419.717 56.381-52.093-48.871v26.794l23.533 22.078c5.094 4.779 2.67 13.316-4.175 14.705l-19.358 3.928v5.795l47.918-9.723c6.845-1.39 9.269-9.927 4.175-14.706z" fill="#8379c1"/></g></g><path d="m335.348 475.638 54.92 28.872-11.767-48.057z" fill="#978ecb"/><path d="m177.622 475.638-43.18-19.075-11.741 47.947z" fill="#6354b1"/><g fill="#ff9a9f"><path d="m335.348 475.638 43.153-19.185-122.016-313.63z"/><path d="m177.622 475.638-43.18-19.075 122.043-313.74z"/></g></g><path d="m494.011 392.686-119.606-253.068c-1.079-2.034-3.247-4.321-6.781-4.295h-46.473l7.214-36.809c.797-4.064-1.853-8.006-5.917-8.803-4.066-.787-8.005 1.853-8.802 5.918l-7.78 39.693c-1.922-.005-39.799-.004-41.881-.004v-82.676l96.139-34.476v89.599c0 4.143 3.358 7.5 7.5 7.5s7.5-3.357 7.5-7.5v-20.824l41.909-8.504c5.927-1.203 10.636-5.564 12.288-11.382 1.652-5.819-.061-12.005-4.473-16.144l-52.093-48.871c-1.641-1.477-4.64-2.747-7.663-1.59l-108.607 38.947-108.608-38.947c-2.195-.681-5.191-.737-7.663 1.59l-52.093 48.871c-4.412 4.139-6.125 10.324-4.473 16.143s6.361 10.18 12.288 11.383l41.91 8.504v54.187l-78.552 164.877c-1.781 3.739-.194 8.215 3.545 9.996 3.74 1.783 8.215.194 9.997-3.545l77.244-162.133h95.44l-115.224 296.21-97.024-42.861c-1.15-.508-1.636-1.432-1.823-1.938s-.421-1.523.119-2.658l26.386-55.383c1.781-3.739.194-8.215-3.545-9.996s-8.214-.194-9.997 3.545l-26.386 55.383c-2.159 4.531-2.387 9.618-.642 14.323 1.745 4.706 5.234 8.415 9.826 10.444l98.452 43.492-10.245 41.841c-.991 4.192 2.004 9.347 7.288 9.284h267.56c4.244.119 8.693-4.487 7.288-9.284l-10.276-41.966 97.565-43.375c4.569-2.031 8.044-5.731 9.784-10.419s1.522-9.758-.615-14.279zm-79.119-329.73c-.184.646-.661.743-.842.779l-38.926 7.899v-46.804l39.461 37.021c.135.124.491.458.307 1.105zm-254.504 413.269-26.44 13.9 5.652-23.083zm12.015-11.091-28.372-12.534 80.191-206.149zm8.708 17.143c1.495-.846 3.205-2.372 3.808-4.909l71.565-302.017 71.565 302.017c.506 1.684 1.323 3.501 3.642 4.806.057.032.108.072.166.103l28.025 14.732h-206.796zm192.232-15.323 5.675 23.168-26.479-13.92zm-32.782-1.841-51.822-218.697 80.178 206.09zm-241.642-401.378c-.18-.036-.658-.133-.841-.779-.184-.646.172-.979.306-1.105l39.462-37.021v46.805zm53.927-45.568 96.139 34.476v82.677c-2.123-.001-42.103 0-41.881.004l-7.78-39.693c-.796-4.065-4.742-6.704-8.802-5.918-4.065.797-6.714 4.738-5.917 8.803l7.214 36.809h-38.973zm327.717 383.578c-.187.504-.671 1.425-1.815 1.933l-96.109 42.728-115.189-296.083h95.422l117.578 248.774c.534 1.13.3 2.144.113 2.648z"/></g></svg>