<svg id="Capa_1" enable-background="new 0 0 512.006 512.006" height="512" viewBox="0 0 512.006 512.006" width="512" xmlns="http://www.w3.org/2000/svg"><g><g><path d="m387.958 408.346h-263.91c-6.728 0-12.632-4.48-14.444-10.959l-19.634-70.199c-1.682-6.013 2.839-11.971 9.083-11.971h313.902c6.244 0 10.764 5.958 9.083 11.971l-19.634 70.199c-1.814 6.479-7.719 10.959-14.446 10.959z" fill="#f6d190"/><path d="m412.954 315.217h-29.521c6.244 0 10.764 5.958 9.083 11.971l-19.634 70.198c-1.812 6.479-7.717 10.959-14.444 10.959h29.521c6.728 0 12.632-4.48 14.444-10.959l19.635-70.198c1.68-6.013-2.84-11.971-9.084-11.971z" fill="#ecbd83"/><path d="m365.514 108.15-109.511-52.264-109.512 52.264c-8.614 4.111-14.099 12.806-14.099 22.351v103.169c0 4.006 1.063 7.939 3.08 11.4l40.894 70.147h159.274l40.894-70.147c2.017-3.46 3.08-7.394 3.08-11.4v-103.169c-.001-9.545-5.486-18.24-14.1-22.351z" fill="#b3e59f"/><path d="m365.514 108.15-109.511-52.264-14.76 7.044 94.751 45.22c8.614 4.111 14.099 12.806 14.099 22.351v103.169c0 4.005-1.063 7.939-3.08 11.4l-40.894 70.147h29.521l40.894-70.147c2.017-3.46 3.08-7.395 3.08-11.4v-103.169c-.001-9.545-5.486-18.24-14.1-22.351z" fill="#95d6a4"/><path d="m367.735 408.344v85.242c0 2.805-1.06 5.379-2.795 7.306-1.998 2.22-4.894 3.613-8.124 3.613h-201.627c-3.229 0-6.125-1.392-8.124-3.613-1.736-1.927-2.795-4.501-2.795-7.306v-85.242z" fill="#ffe09f"/><path d="m338.214 408.344v85.242c0 2.805-1.06 5.379-2.795 7.306-1.998 2.22-4.894 3.613-8.124 3.613h29.521c3.229 0 6.125-1.393 8.124-3.613 1.736-1.927 2.795-4.501 2.795-7.306v-85.242z" fill="#f6d190"/><path d="m218.675 408.344-71.609 92.548c-1.736-1.927-2.795-4.501-2.795-7.306v-85.242z" fill="#e2a975"/><path d="m367.735 408.344v85.242c0 2.805-1.06 5.379-2.795 7.306l-71.609-92.548z" fill="#e2a975"/><path d="m338.214 408.344v58.008l26.726 34.541c1.736-1.927 2.795-4.501 2.795-7.306v-85.242h-29.521z" fill="#d19a6e"/><path d="m283.694 315.221 17.71-78.855v-70.974l-45.401-109.511-43.696 108.724v70.752l17.771 79.864z" fill="#78c2a4"/><path d="m256.003 55.881-14.531 36.157 30.411 73.354v70.974l-17.71 78.855h29.521l17.71-78.855v-70.974z" fill="#5aa0a5"/><path d="m256.429 21.578-.426 34.303-19.4 9.263-37.006-49.308c-2.968-3.955.741-9.429 5.515-8.138z" fill="#db4655"/><path d="m256.429 21.578-.426 34.307 20.034 9.561 37.227-49.611c2.968-3.955-.742-9.429-5.515-8.138z" fill="#ff8086"/></g><path d="m426.442 314.415c-3.229-4.256-8.146-6.697-13.488-6.697h-77.314-42.575l15.657-69.708c.121-.539.183-1.091.183-1.644v-66.889l63.104-40.76c.316 3.63-.008 101.954.105 104.953 0 2.676-.712 5.312-2.06 7.623l-21.568 36.998c-2.086 3.578-.876 8.171 2.702 10.257 3.578 2.084 8.171.878 10.257-2.702l21.568-36.998c2.683-4.602 4.101-9.851 4.101-15.178v-103.169c.003-11.139-6.732-23.67-18.368-29.119l-81.212-38.759 31.73-42.286c3.303-4.401 3.442-10.188.354-14.744-3.087-4.556-8.516-6.573-13.827-5.135l-49.362 13.351-49.36-13.35c-5.313-1.436-10.74.58-13.827 5.135-3.087 4.556-2.948 10.344.356 14.745l31.508 41.982-81.845 39.061c-10.369 5.081-18.219 15.925-18.369 29.119v103.169c0 5.327 1.418 10.575 4.101 15.178l34.319 58.87h-64.26c-5.343 0-10.259 2.441-13.489 6.697-3.229 4.257-4.256 9.649-2.816 14.795l19.634 70.198c2.708 9.679 11.617 16.438 21.667 16.438h79.34l-51.617 66.711v-38.529c0-4.143-3.358-7.5-7.5-7.5s-7.5 3.357-7.5 7.5v49.56c-.309 8.843 7.938 18.475 18.419 18.419h201.627c5.22 0 10.212-2.223 13.694-6.093 3.047-3.381 4.725-7.758 4.725-12.326v-77.741h12.723c10.05 0 18.959-6.759 21.667-16.438l19.635-70.199c1.438-5.147.411-10.538-2.819-14.795zm-170.331-238.69 34.024 82.068-66.77-.59zm108.014 40.227-59.237 38.262-34.467-83.137c4.48 2.301 88.96 42.148 93.704 44.875zm-90.401-59.919c-1.544-.737-8.142-3.886-10.163-4.851l.297-23.844 39.393-10.654zm-24.867-28.733-.296 23.823-9.647 4.605-29.303-39.044zm-6.99 43.642-33.186 82.573-60.578-37.701c2.899-1.754 92.747-44.387 93.764-44.872zm-99.915 170.351c-1.348-2.312-2.06-4.947-2.06-7.623 0 0 .051-104.54.133-105.215l64.782 40.318v14.133c0 4.143 3.358 7.5 7.5 7.5s7.5-3.357 7.5-7.5v-10.732l74.097.655v62.706l-16.212 72.184h-41.6l-16.285-73.185v-15.944c0-4.143-3.358-7.5-7.5-7.5s-7.5 3.357-7.5 7.5v16.769c0 .548.06 1.094.179 1.629l15.739 70.731h-40.05zm147.7 174.552 62.797 81.16h-192.893l62.798-81.16zm70.583 66.711-51.617-66.711h51.617zm54.579-157.387-19.635 70.198c-.902 3.226-3.872 5.479-7.222 5.479h-263.91c-3.35 0-6.319-2.253-7.222-5.479l-19.634-70.198c-.213-.764.057-1.339.321-1.688s.746-.764 1.539-.764h313.902c.793 0 1.274.415 1.539.764s.535.925.322 1.688z"/></g></svg>