<svg id="Capa_1" enable-background="new 0 0 512 512" height="512" viewBox="0 0 512 512" width="512" xmlns="http://www.w3.org/2000/svg"><g><g><path d="m142.275 19.061 224.338 247.125-99.664 99.664-247.126-224.337c-4.054-3.686-7.132-8.203-9.091-13.168-2.015-5.101-2.839-10.674-2.311-16.271l7.812-82.682c.696-7.38 6.532-13.217 13.912-13.912l82.69-7.82c5.597-.528 11.17.296 16.271 2.311 4.965 1.958 9.483 5.037 13.169 9.09z" fill="#edf4ff"/><path d="m142.275 19.061c-3.686-4.054-8.203-7.132-13.168-9.091-5.101-2.015-10.674-2.839-16.271-2.311l-82.69 7.82c-7.38.696-13.217 6.532-13.912 13.912l-.598 6.332 76.357-7.22c5.597-.528 11.17.296 16.271 2.311 4.965 1.958 9.483 5.037 13.169 9.091l224.336 247.125 20.844-20.844z" fill="#dbeaff"/><path d="m277.302 303.18h140.946v87.666h-140.946z" fill="#b8daff" transform="matrix(.707 -.707 .707 .707 -143.515 347.552)"/><path d="m366.613 266.187-20.844 20.843 61.989 61.989-78.82 78.821 99.664-99.664z" fill="#a4ccff"/><path d="m497.835 442.106-91.582-91.582-56.429 56.429 91.582 91.582c4.473 4.473 10.769 6.615 17.041 5.797l24.905-3.246c8.884-1.158 15.877-8.15 17.034-17.035l3.246-24.905c.817-6.271-1.325-12.567-5.797-17.04z" fill="#8d9ca8"/><path d="m497.835 442.107-91.582-91.582-20.844 20.844 91.582 91.582c4.473 4.473 6.615 10.769 5.797 17.041l-1.757 10.054c-.631 4.838-3.001 9.106-6.455 12.185l8.775-1.144c8.884-1.158 15.877-8.15 17.035-17.034l3.246-24.905c.817-6.273-1.325-12.569-5.797-17.041z" fill="#7a8c98"/><path d="m428.602 328.176-99.664 99.664-12.161-111.817z" fill="#8bb3ea"/><path d="m408.159 348.618 20.443-20.442-111.825-12.153 2.494 22.935z" fill="#739ad6"/><path d="m129.106 9.971-29.328 89.038-89.046 29.336c-2.015-5.101-2.839-10.674-2.311-16.271l7.812-82.682c.696-7.38 6.532-13.217 13.912-13.912l82.69-7.82c5.597-.528 11.17.296 16.271 2.311z" fill="#edf4ff"/><path d="m91.991 28.504c5.597-.528 11.17.296 16.271 2.311 4.256 1.679 8.178 4.186 11.534 7.419l9.309-28.263c-5.101-2.015-10.674-2.839-16.271-2.311l-82.69 7.82c-7.38.696-13.217 6.532-13.912 13.912l-.598 6.332z" fill="#dbeaff"/><g><path d="m449.858 182.942-83.245 83.245 61.989 61.989z" fill="#8bb3ea"/><path d="m429.014 203.785-15.934 108.869 15.522 15.522 21.256-145.234z" fill="#739ad6"/><path d="m449.858 182.942-47.287-47.287c-3.529-3.529-9.573-1.463-10.203 3.489l-4.115 32.353c-.554 4.353.328 8.769 2.512 12.575l21.128 36.836z" fill="#b8daff"/><path d="m402.571 135.655c-3.529-3.529-9.573-1.462-10.203 3.489l-3.258 25.614c1.445.031 2.904.573 4.083 1.752l35.821 37.276 20.844-20.844z" fill="#a4ccff"/></g><g><path d="m183.704 449.096 83.245-83.245 61.989 61.989z" fill="#8bb3ea"/><path d="m328.938 427.84-61.989-61.989-20.844 20.843 46.468 46.468z" fill="#739ad6"/><path d="m183.704 449.096-47.287-47.287c-3.529-3.529-1.463-9.573 3.489-10.203l32.353-4.115c4.353-.554 8.769.328 12.575 2.512l36.836 21.128z" fill="#b8daff"/><path d="m184.834 390.002c-3.807-2.183-8.222-3.065-12.575-2.511l-32.353 4.115c-4.951.63-7.018 6.674-3.489 10.203l7.482 7.482 7.517-.956c4.353-.554 8.768.328 12.575 2.511l36.835 21.128 20.844-20.844z" fill="#a4ccff"/></g></g><path d="m503.138 436.803-66.951-66.951c-2.93-2.928-7.678-2.928-10.607 0-2.929 2.93-2.929 7.678 0 10.607l66.952 66.951c2.807 2.807 4.177 6.832 3.663 10.768l-3.246 24.905c-.717 5.504-5.063 9.85-10.566 10.566l-24.904 3.246c-3.944.513-7.963-.856-10.769-3.663l-86.279-86.278 73.475-73.475c.971-1.065 1.809-2.246 2.117-4.218l21.256-145.234c.131-1.844.065-4.182-2.117-6.39l-47.287-47.286c-3.672-3.671-9.003-4.907-13.919-3.229-4.913 1.681-8.373 5.924-9.028 11.075l-4.114 32.354c-.755 5.935.469 12.062 3.445 17.253l18.273 31.857-35.656 35.656-219.049-241.296c-8.188-9.072-21.895-15.206-35.698-13.827l-82.686 7.819c-10.95 1.031-19.645 9.726-20.676 20.674l-7.812 82.682c-1.498 10.983 3.7 26.939 13.827 35.697l241.297 219.047-35.656 35.656-31.858-18.272c-5.19-2.978-11.323-4.204-17.253-3.446l-32.354 4.115c-5.151.655-9.395 4.115-11.075 9.028s-.442 10.247 3.229 13.919l47.287 47.287c1.406 1.245 3.394 2.549 6.39 2.117l145.233-21.256c.712-.073 2.947-.75 4.218-2.117l15.582-15.582 86.278 86.278c5.235 5.234 12.428 8.16 19.77 8.16 1.18 0 28.45-3.476 28.45-3.476 12.241-1.597 21.905-11.261 23.502-23.502l3.246-24.906c1.112-8.521-1.854-17.237-7.93-23.313zm-168.437-25.333-9.46-86.983 86.989 9.454zm-67.753-35.012 46.125 46.125-108.063 15.814zm172.211-172.211-15.815 108.063-46.125-46.125zm-161.603 161.604 33.457-33.457 8.166 75.08zm130.681-47.432-75.088-8.161 33.464-33.464zm-10.966-138.077c-1.363-2.376-1.923-5.182-1.577-7.898l3.729-29.329 39.828 39.827-25.731 25.731zm-373.571-150.247c.356-3.785 3.363-6.792 7.151-7.148l82.688-7.819c.612.032 1.223-.336 5.941.089l-25.642 77.852-77.857 25.649c-.143-1.895-.355-2.252-.092-5.94zm-1.947 102.514 75.974-25.029 28.021 28.021c1.465 1.464 3.385 2.196 5.304 2.196s3.839-.732 5.304-2.196c2.929-2.93 2.929-7.678 0-10.607l-28.012-28.012 25.029-75.99c1.2.945 2.325 1.984 3.35 3.111l219.534 241.833-39.479 39.479-155.208-155.206c-2.93-2.928-7.678-2.928-10.607 0-2.929 2.93-2.929 7.678 0 10.607l155.206 155.206-39.471 39.471-241.829-219.529c-1.129-1.027-2.169-2.153-3.116-3.355zm151.452 262.322c2.719-.349 5.521.215 7.897 1.577l28.331 16.25-25.73 25.73-39.828-39.828z"/></g></svg>