<svg id="Capa_1" enable-background="new 0 0 512 512" height="512" viewBox="0 0 512 512" width="512" xmlns="http://www.w3.org/2000/svg"><g><g><path d="m275.519 504.5h-40.171c-2.49 0-4.509-2.019-4.509-4.509v-181.231h49.19v181.231c-.001 2.49-2.02 4.509-4.51 4.509z" fill="#f6d190"/><path d="m252.91 318.76v181.231c0 2.49-2.019 4.509-4.509 4.509h27.118c2.49 0 4.509-2.019 4.509-4.509v-181.231z" fill="#ecbd83"/><path d="m444.851 118.143v156.467l-188.876-78.234-.235-71.51 50.962-50.963z" fill="#8bb3ea"/><path d="m306.702 73.903-6.577 6.578 117.607 37.662v145.235l27.119 11.232v-156.467z" fill="#739ad6"/><path d="m444.874 274.61-110.639 110.639-78.236-188.874 50.399-50.733h72.072z" fill="#b3e59f"/><path d="m378.47 145.642h-27.118l66.404 128.968-91.464 91.464 7.942 19.175 110.64-110.639z" fill="#95d6a4"/><path d="m334.231 385.226h-156.467l78.233-188.875 71.511-.236 50.962 50.963z" fill="#e1ffa0"/><path d="m327.508 196.115-27.029.089 50.873 50.874-44.239 138.148h27.118l44.239-138.148z" fill="#ccf49f"/><path d="m177.764 385.249-110.639-110.639 188.874-78.235 50.732 50.398v72.072z" fill="#db4655"/><path d="m255.999 196.375-19.138 7.927 42.752 42.471v72.072l-111.066 57.187 9.217 9.217 128.967-66.404v-72.072z" fill="#bd4150"/><path d="m67.148 274.606v-156.467l188.875 78.234.236 71.51-50.963 50.963z" fill="#ff8086"/><path d="m256.023 196.373-188.875-78.234v11.233l161.757 67.001.236 71.51-44.385 44.385 20.54 6.578 50.963-50.963z" fill="#e5646e"/><path d="m255.999 196.37-50.4 50.74h-72.07l-66.4-128.97 71.54-71.54 39.07-39.08.02-.02.01.02 51.4 124.09z" fill="#ff9a9f"/><path d="m229.409 196.39v.01l-26.74.09-44.77.14-50.96-50.96 31.73-99.07 39.07-39.08h.03l51.4 124.09.22 64.77z" fill="#ff8086"/><path d="m177.764 7.5-19.176 19.175 70.293 169.7-50.399 50.732h27.118l50.399-50.732z" fill="#ff8086"/><path d="m334.239 7.52-7.94 19.16-19.56 47.23-.04-.01-6.58 6.58-44.38 44.39.24 71.51.02.01v.01l-26.74.09-44.77.14-50.96-50.96 44.24-138.15z" fill="#edf4ff"/><path d="m334.239 7.52-7.94 19.16-19.56 47.23-.04-.01-6.58 6.58-44.38 44.39.24 71.51.02.01v.01l-26.74.09-.4-.14-50.71-50.37v-72.08l128.93-66.38.04-.02.02.02z" fill="#dbeaff"/><path d="m444.849 118.15v-.01l-138.15-44.24-50.96 50.97.24 71.48-50.71-50.37v-72.08l128.97-66.4 110.63 110.64z" fill="#b8daff"/><g fill="#a4ccff"><path d="m300.122 80.478-20.541-6.578-50.96 50.97.149 44.454 27.209 27.026-.24-71.48z"/><path d="m444.869 118.14-110.63-110.64-17.902 9.217 88.65 88.658 39.862 12.765v.01z"/></g></g><path d="m451.556 278.011c.728-1.696 1.431-4.081-.058-6.919l-66.361-128.883c-1.286-2.497-3.859-4.066-6.668-4.066h-72.072c-1.998 0-3.913.797-5.32 2.214l-37.661 37.91-.166-50.304 45.521-45.521 128.579 41.175v100.703c0 4.143 3.357 7.5 7.5 7.5s7.5-3.357 7.5-7.5v-105.685c.137-2.082-.582-4.209-2.173-5.8l-110.639-110.639c-1.072-.91-2.639-2.211-5.311-2.196h-156.463c-1.808.109-3.505.446-5.304 2.196l-110.639 110.639c-.91 1.044-2.23 2.718-2.196 5.326v156.445c.171 1.688.007 2.584 2.196 5.309l110.639 110.638c1.161 1.106 3.069 2.254 5.304 2.196h94.766v104.251h-34.19v-76.501c0-4.143-3.357-7.5-7.5-7.5s-7.5 3.357-7.5 7.5v79.491c0 6.622 5.388 12.01 12.01 12.01h40.171c6.622 0 12.01-5.388 12.01-12.01v-107.241h46.705c1.639-.082 3.591-.459 5.304-2.196l110.64-110.64c.237-.32.558-.452 1.376-1.902zm-142.037-124.868h64.377l61.804 120.033-84.9 84.9 34.814-108.712c.856-2.675.146-5.604-1.839-7.591l-50.963-50.962c-1.407-1.406-3.314-2.196-5.304-2.196-.008 0-.017 0-.024 0l-53.379.176zm-100.759 224.583 101.405-52.212c2.497-1.286 4.066-3.859 4.066-6.668v-72.072c0-1.998-.797-3.913-2.214-5.32l-37.912-37.662 50.305-.166 45.521 45.521-41.176 128.579zm54.822-163.246 35.649 35.415v64.377l-120.035 61.804-84.899-84.899 108.711 34.813c1.985.489 4.756.648 7.591-1.839l50.963-50.963c1.412-1.413 2.203-3.331 2.196-5.328zm-14.833 50.306-45.522 45.521-128.579-41.174v-119.998l52.212 101.405c1.286 2.497 3.859 4.066 6.668 4.066h72.072c1.998 0 3.913-.797 5.32-2.214l37.661-37.91zm52.649-196.186-50.963 50.963c-1.412 1.413-2.203 3.331-2.196 5.328l.176 53.378-35.649-35.415v-13.886c0-4.143-3.357-7.5-7.5-7.5s-7.5 3.357-7.5 7.5v17.007c0 1.998.797 3.913 2.214 5.32l37.912 37.662-50.305.166-45.521-45.521 41.176-128.579h119.997l-101.406 52.212c-2.497 1.286-4.066 3.859-4.066 6.668v19.65c0 4.143 3.357 7.5 7.5 7.5s7.5-3.357 7.5-7.5v-15.075l120.035-61.804 84.899 84.899-108.712-34.812c-2.674-.856-5.604-.147-7.591 1.839zm-140.199-33.928-34.814 108.712c-.856 2.675-.146 5.604 1.839 7.591l50.963 50.962c1.407 1.406 3.315 2.196 5.304 2.196h.024l53.379-.176-35.414 35.648h-64.377l-61.805-120.033z"/></g></svg>