<svg id="Capa_1" enable-background="new 0 0 511.912 511.912" height="512" viewBox="0 0 511.912 511.912" width="512" xmlns="http://www.w3.org/2000/svg"><g><g><path d="m380.22 172.426-124.264 83.79v248.284l122.086-287.002c1.437-3.378 2.178-7.012 2.178-10.683z" fill="#e2a975"/><path d="m353.123 190.697v16.118c0 3.671-.741 7.305-2.178 10.683l-94.989 223.303v63.699l122.086-287.002c1.437-3.378 2.178-7.012 2.178-10.683v-34.389z" fill="#d19a6e"/><path d="m131.692 172.426 149.558 100.846c6.624 4.466 10.048 12.374 8.775 20.261l-34.069 210.967-122.086-287.002c-1.437-3.378-2.178-7.012-2.178-10.683z" fill="#f6d190"/><path d="m281.251 273.271-149.559-100.845v18.271l122.462 82.575c6.624 4.466 10.049 12.374 8.775 20.261l-26.613 164.797 19.64 46.171 34.07-210.968c1.273-7.887-2.152-15.795-8.775-20.262z" fill="#ecbd83"/><path d="m131.692 172.426v-61.825c0-7.718 4.398-14.762 11.332-18.151l82.852-40.49h53.863l60.729 147.27-84.511 56.985z" fill="#edf4ff"/><path d="m279.739 51.96h-27.097l60.729 147.27-70.963 47.85 13.548 9.136 84.512-56.986z" fill="#dbeaff"/><path d="m340.468 199.231 39.752-26.805v-59.876c0-7.463-4.941-14.023-12.113-16.084l-79.426-22.821z" fill="#b8daff"/><path d="m368.107 96.466-79.426-22.821 3.642 8.832 48.687 13.989c7.172 2.061 12.113 8.622 12.113 16.084v59.876l-18.551 12.509 5.895 14.296 39.752-26.804v-59.877c.001-7.462-4.94-14.023-12.112-16.084z" fill="#a4ccff"/><path d="m190.74 212.241 35.149-43.896c5.517-6.89 15.709-7.68 22.222-1.723l59.715 54.618-51.869 34.975z" fill="#dbeaff"/><path d="m248.111 166.622c-6.513-5.957-16.705-5.167-22.222 1.723l-6.902 8.62c5.46-2.707 12.28-2.001 17.093 2.402l44.649 41.874-38.321 25.839 13.548 9.136 51.87-34.975z" fill="#b8daff"/><path d="m225.876 51.96h53.863v-33.919c0-5.822-4.719-10.541-10.541-10.541h-32.781c-5.822 0-10.541 4.719-10.541 10.541z" fill="#db4655"/><path d="m269.198 7.5h-27.097c5.822 0 10.541 4.719 10.541 10.541v33.919h27.097v-33.919c0-5.822-4.719-10.541-10.541-10.541z" fill="#bd4150"/></g><path d="m387.656 171.492c-.456-4.691-6.556-8.802-11.629-5.285l-32.13 21.665-42.362-102.729 64.501 18.532c3.936 1.131 6.684 4.781 6.684 8.876v24.397c0 4.143 3.358 7.5 7.5 7.5s7.5-3.357 7.5-7.5v-24.397c0-10.747-7.214-20.325-17.542-23.292l-75.944-21.821-6.995-16.964v-32.433c0-9.948-8.093-18.041-18.041-18.041h-32.781c-9.948 0-18.041 8.093-18.041 18.041v29.237l-78.645 38.434c-9.439 4.612-15.539 14.382-15.539 24.889v96.215c0 4.706.934 9.288 2.776 13.618l64.079 150.639c1.621 3.813 6.024 5.586 9.837 3.966 3.812-1.621 5.587-6.025 3.965-9.837l-64.079-150.639c-1.048-2.464-1.579-5.07-1.579-7.747v-20.287l137.865 92.961c4.185 2.821 6.369 7.864 5.564 12.847l-29.929 185.33-34.136-80.246c-1.621-3.813-6.024-5.587-9.837-3.966-3.812 1.621-5.587 6.025-3.965 9.837l44.301 104.144c1.912 5.254 11.062 6.644 13.803 0l122.086-287.002c1.842-4.33 2.776-8.912 2.776-13.618v-34.376c.002-.316-.024-.632-.063-.948zm-131.7 75.678-54.273-36.596 30.06-37.541c1.357-1.696 3.297-2.722 5.463-2.89 2.173-.173 4.24.548 5.843 2.013l52.687 48.19zm-22.58-229.129c0-1.677 1.364-3.041 3.041-3.041h32.781c1.677 0 3.041 1.364 3.041 3.041v26.419h-38.863zm-87.058 81.147 81.293-39.729h47.108l56.482 136.973c-1.542 1.04-20.839 14.051-22.671 15.287l-55.357-50.632c-4.629-4.234-10.874-6.381-17.126-5.899-6.255.484-12.091 3.571-16.013 8.469l-30.83 38.503-50.012-33.723v-57.836c.001-4.818 2.797-9.297 7.126-11.413zm224.823 115.375-97.95 230.264 24.24-150.098c1.733-10.733-2.971-21.597-11.986-27.676l-16.072-10.837 103.348-69.687v20.287c-.001 2.676-.532 5.283-1.58 7.747z"/></g></svg>