<svg id="Capa_1" enable-background="new 0 0 511.831 511.831" height="512" viewBox="0 0 511.831 511.831" width="512" xmlns="http://www.w3.org/2000/svg"><g><g><g><path d="m404.425 159.817-148.579 259.915-148.579-259.915c-2.512-4.399-3.394-9.362-2.738-14.099.082-.626.195-1.251.338-1.856.964-4.317 3.209-8.367 6.645-11.525l129.21-119.089c4.276-3.938 9.7-5.917 15.124-5.917s10.849 1.979 15.124 5.917l129.21 119.088c3.435 3.158 5.681 7.209 6.645 11.525.144.605.256 1.23.338 1.856.656 4.738-.226 9.701-2.738 14.1z" fill="#b8daff"/><path d="m404.426 159.821-148.58 259.91-30.56-53.46-118.02-206.45c-2.51-4.4-3.39-9.37-2.74-14.1.09-.63.2-1.25.34-1.86.97-4.32 3.21-8.37 6.65-11.52l113.77-104.86 15.44-14.23c4.27-3.94 9.7-5.92 15.12-5.92s10.85 1.98 15.12 5.92l129.21 119.09c3.44 3.15 5.68 7.2 6.65 11.52.14.61.25 1.23.34 1.86.65 4.73-.23 9.7-2.74 14.1z" fill="#b8daff"/><path d="m404.426 159.821-148.58 259.91-30.56-53.46v-338.79l15.44-14.23c4.27-3.94 9.7-5.92 15.12-5.92s10.85 1.98 15.12 5.92l129.21 119.09c3.44 3.15 5.68 7.2 6.65 11.52.14.61.25 1.23.34 1.86.65 4.73-.23 9.7-2.74 14.1z" fill="#a4ccff"/><path d="m255.846 419.729-22.823 41.733c-3.688 6.745-2.974 15.043 1.813 21.058l15.083 18.952c3.033 3.811 8.822 3.811 11.854 0l15.083-18.952c4.787-6.015 5.501-14.314 1.813-21.058z" fill="#8bb3ea"/><path d="m278.669 461.463-22.823-41.734-14.28 26.113 8.543 15.621c3.688 6.745 2.974 15.043-1.813 21.058l-6.73 8.456 8.353 10.496c3.033 3.811 8.822 3.811 11.854 0l15.083-18.952c4.787-6.015 5.501-14.314 1.813-21.058z" fill="#739ad6"/></g><path d="m404.425 159.817-148.579 259.915v-412.401c5.424 0 10.849 1.979 15.124 5.917l129.21 119.088c3.435 3.158 5.681 7.209 6.645 11.525.144.605.256 1.23.338 1.856.656 4.738-.226 9.701-2.738 14.1z" fill="#edf4ff"/><path d="m407.163 145.717c-.082-.625-.195-1.251-.338-1.856-.964-4.317-3.209-8.367-6.644-11.525l-129.21-119.088c-4.276-3.938-9.7-5.917-15.124-5.917v20.143l113.773 104.862c7.629 7.011 9.418 18.464 4.245 27.48l-118.019 206.456v53.46l148.579-259.916c2.512-4.398 3.394-9.361 2.738-14.099z" fill="#dbeaff"/><path d="m407.166 145.721-30.66 6.71-120.66 26.42-30.56-6.69-120.76-26.44c.09-.63.2-1.25.34-1.86l120.42-9.85 30.56-2.5 119.68 9.79 31.3 2.56c.14.61.25 1.23.34 1.86z" fill="#8bb3ea"/><g fill="#739ad6"><path d="m376.506 152.431c.62-3.74.27-7.58-.98-11.13l31.3 2.56c.14.61.25 1.23.34 1.86z"/><path d="m255.846 131.511v47.34l-30.56-6.69v-38.15z"/></g></g><path d="m414.599 144.743c-.805-5.452-3.669-12.906-9.349-17.934l-85.331-78.646c-3.046-2.809-7.791-2.615-10.598.432-2.807 3.046-2.614 7.791.432 10.598l82.399 75.945-128.806-10.533v-107.714c.758.505.883.443 2.55 1.88l18.257 16.826c3.045 2.808 7.79 2.612 10.598-.432 2.807-3.046 2.613-7.791-.433-10.598l-18.266-16.836c-10.207-9.716-28.923-10.885-40.413.002l-129.203 119.081c-9.643 8.489-12.623 24.327-5.68 36.724l146.497 256.274-20.81 38.052c-5.15 9.417-4.159 20.928 2.524 29.326l15.082 18.952c2.877 3.615 7.176 5.688 11.796 5.688s8.919-2.073 11.796-5.688l15.083-18.952c6.684-8.398 7.675-19.909 2.524-29.326l-20.81-38.052 146.499-256.276c3.252-5.693 4.55-12.387 3.662-18.793zm-51.91 3.034-99.343 21.751v-29.874zm-116.886-129.012c.785-.723 1.642-1.342 2.543-1.874v107.714l-128.807 10.533zm-132.418 136.569 105.159 23.024c4.044.888 8.045-1.677 8.931-5.722.886-4.047-1.676-8.045-5.723-8.931l-72.75-15.929 99.344-8.123v251.847s-134.834-235.91-134.961-236.166zm157.602 322.517-15.102 18.975-.098-.022-15.083-18.952c-2.915-3.663-3.347-8.683-1.102-12.789l16.243-29.701 16.243 29.701c2.246 4.105 1.814 9.124-1.101 12.788zm-7.641-86.351v-206.617l134.961-29.549c-.126.256-134.961 236.166-134.961 236.166z"/></g></svg>