<svg id="Capa_1" enable-background="new 0 0 511.835 511.835" height="512" viewBox="0 0 511.835 511.835" width="512" xmlns="http://www.w3.org/2000/svg"><g><g><path d="m8.957 74.097h493.923v155.529h-493.923z" fill="#edf4ff"/><path d="m471.436 74.097h31.444v155.529h-31.444z" fill="#dbeaff"/><path d="m502.88 74.097h-493.923l35.436-57.586c3.446-5.6 9.55-9.011 16.126-9.011h390.8c6.575 0 12.68 3.411 16.126 9.011z" fill="#b8daff"/><path d="m467.444 16.511c-3.446-5.6-9.55-9.011-16.126-9.011h-31.444c6.575 0 12.68 3.411 16.126 9.011l35.435 57.586h31.444z" fill="#a4ccff"/><path d="m8.957 74.097 124.589 155.529h-124.589z" fill="#b8daff"/><path d="m8.957 74.097v43.198l89.984 112.331h34.605z" fill="#a4ccff"/><path d="m255.918 74.097 118.981 155.529h-241.353z" fill="#8bb3ea"/><path d="m255.918 74.097-15.942 20.262 103.479 135.267h31.443z" fill="#739ad6"/><path d="m502.88 74.097v155.529h-127.981z" fill="#b8daff"/><path d="m471.436 112.308v117.318h31.444v-155.529z" fill="#a4ccff"/><path d="m502.877 229.63-228.857 267.089c-3.194 3.737-7.321 6.123-11.713 7.167-3.45.829-7.075.819-10.525-.031-4.311-1.044-8.375-3.389-11.539-7.054l-231.284-267.171z" fill="#8bb3ea"/><path d="m471.434 229.63-228.857 267.089c-.386.452-.788.882-1.2 1.295 2.975 2.972 6.592 4.918 10.405 5.842 3.45.85 7.075.86 10.525.031 4.392-1.044 8.519-3.43 11.713-7.167l228.857-267.09z" fill="#739ad6"/><path d="m374.903 229.63-112.596 274.256c-3.45.829-7.075.819-10.525-.031l-118.237-274.225z" fill="#b8daff"/><path d="m343.459 229.63-102.386 249.388 10.709 24.837c3.45.85 7.075.86 10.525.031l112.596-274.256z" fill="#a4ccff"/><path d="m320.126 7.5-64.208 66.597-66.361-66.597z" fill="#edf4ff"/><path d="m288.682 7.5-48.745 50.559 15.981 16.038 64.208-66.597z" fill="#dbeaff"/></g><path d="m509.278 233.523c.433-.857 1.07-1.837 1.101-3.897v-155.529c-.035-1.052-.216-2.477-1.112-3.931l-35.436-57.584c-4.773-7.761-13.4-12.582-22.512-12.582h-390.8c-9.112 0-17.739 4.821-22.514 12.581l-14.061 22.85c-2.17 3.527-1.071 8.147 2.457 10.318 3.528 2.17 8.147 1.071 10.318-2.457l14.061-22.851c2.066-3.356 5.797-5.441 9.738-5.441h125.924l51.414 51.597h-228.899c-3.012-.057-7.587 2.608-7.5 7.5v155.529c.083 1.236.253 3.111 1.832 4.913l231.276 267.163c10.539 13.065 33.157 13.985 45.151-.104l228.857-267.088c.198-.267.065-.034.705-.987zm-492.821-11.397v-126.671l101.471 126.671zm374.327 0 104.595-127.111v127.111zm-15.671-4.563-104.014-135.966h215.896zm-170.105-78.762c3.254 2.56 7.971 1.999 10.532-1.257l40.295-51.213 103.883 135.795h-210.728l43.665-55.496c2.562-3.255 1.999-7.971-1.256-10.532-3.255-2.56-7.971-1.999-10.532 1.257l-47.373 60.209-108.919-135.967h215.899l-36.722 46.672c-2.562 3.254-1.999 7.97 1.256 10.532zm256.048-118.359 28.401 46.154h-215.89l49.745-51.596h128.007c3.941 0 7.672 2.085 9.737 5.442zm-158.579-5.442-46.647 48.383-48.211-48.383zm-173.866 222.13 102.446 237.6-205.685-237.6zm153.222 238.944 85.045-207.15c1.572-3.832-.258-8.214-4.09-9.787-3.833-1.571-8.214.258-9.787 4.09l-95.974 233.77c-.012 0-.024-.002-.036-.002l-112.045-259.865h341.628z"/></g></svg>