<svg id="Capa_1" enable-background="new 0 0 512.011 512.011" height="512" viewBox="0 0 512.011 512.011" width="512" xmlns="http://www.w3.org/2000/svg"><g><g><path d="m504.508 52.194v407.62c0 6.44-2.67 12.26-6.98 16.41-4.01 3.87-9.43 6.28-15.42 6.37-.13.01-.26.01-.39.01h-451.42c-.13 0-.26 0-.39-.01-5.99-.09-11.41-2.5-15.42-6.37-4.31-4.15-6.98-9.97-6.98-16.41v-407.62c0-6.44 2.69-12.28 7-16.42 4.09-3.95 9.66-6.37 15.79-6.37h451.42c6.13 0 11.7 2.42 15.79 6.37 4.31 4.14 7 9.98 7 16.42z" fill="#6e61b6"/><path d="m256.008 29.404v453.19h-226.1c-5.99-.09-11.41-2.5-15.42-6.37-4.31-4.15-6.98-9.97-6.98-16.41v-8.56l214.14-195.26-214.14-195.26v-8.54c0-6.44 2.69-12.28 7-16.42 4.09-3.95 9.66-6.37 15.79-6.37z" fill="#6354b1"/><path d="m497.512 35.776c-4.096-3.949-9.659-6.375-15.798-6.375h-34.365c6.138 0 11.702 2.426 15.798 6.375 4.311 4.141 6.996 9.975 6.996 16.418v407.618c0 6.443-2.674 12.266-6.985 16.407-4.006 3.871-9.422 6.285-15.414 6.376-.135.011-.26.011-.395.011h34.365c.135 0 .26 0 .395-.011 5.992-.09 11.408-2.505 15.414-6.376 4.311-4.141 6.985-9.964 6.985-16.407v-407.617c0-6.444-2.685-12.277-6.996-16.419z" fill="#6354b1"/><path d="m497.512 35.776-91.424 83.379-81.697 74.498-68.382 62.345-241.505-220.222c4.096-3.949 9.659-6.375 15.798-6.375h451.412c6.139 0 11.702 2.426 15.798 6.375z" fill="#978ecb"/><path d="m481.714 29.401h-34.365c6.138 0 11.702 2.426 15.798 6.375l-91.424 83.378-81.697 74.498-51.198 46.678 17.181 15.667 68.382-62.345 81.697-74.498 91.424-83.378c-4.096-3.949-9.659-6.375-15.798-6.375z" fill="#8379c1"/><path d="m406.088 119.155-81.698 74.498-164.252-164.252h156.195z" fill="#edf4ff"/><path d="m316.333 29.401h-34.364l89.754 89.754-63.723 58.108 16.39 16.39 81.698-74.498z" fill="#dbeaff"/><path d="m497.523 476.22c-4.006 3.871-9.422 6.285-15.414 6.376h-452.202c-5.992-.09-11.408-2.505-15.414-6.376l91.436-83.379 81.697-74.498 68.382-62.345z" fill="#978ecb"/><path d="m256.008 255.998-17.183 15.667 224.334 204.555c-4.006 3.871-9.422 6.285-15.414 6.376h34.365c5.992-.09 11.408-2.505 15.414-6.376z" fill="#8379c1"/><path d="m105.929 392.841 81.697-74.498 164.252 164.252h-156.195z" fill="#edf4ff"/><path d="m187.626 318.343-17.974 16.39 147.862 147.862h34.365z" fill="#dbeaff"/><path d="m412.417 398.621-81.698-74.497 173.789-173.789v156.195z" fill="#b8daff"/><path d="m470.143 184.699v156.196l34.365-34.365v-156.195z" fill="#a4ccff"/><path d="m179.288 186.044-16.39 16.38-155.39 155.39v-156.2l90.08-90.08z" fill="#b8daff"/><path d="m179.288 186.044-16.39 16.38-81.7-74.5 16.39-16.39z" fill="#a4ccff"/></g><path d="m502.717 30.377c-5.67-5.466-13.129-8.477-21.003-8.477h-451.412c-15.067-.541-30.711 13.715-30.294 30.294v407.618c-.095 15.651 13.256 30.566 30.294 30.295h451.412c15.309.587 30.517-13.57 30.294-30.295v-114.979c0-4.143-3.357-7.5-7.5-7.5s-7.5 3.357-7.5 7.5v114.979c0 1.738-.301 3.421-.852 5.01l-72.879-66.454 86.535-86.535c1.159-1.302 2.173-2.786 2.196-5.304v-254.335c0-8.192-3.39-16.147-9.291-21.817zm-17.895 444.41c-.412.048-.493.179-2.811.308h-127.025l-156.498-156.498 57.521-52.449zm-456.248.219c-.465-.052-.925-.125-1.38-.219l78.497-71.576 71.884 71.885h-147.57c-.258.002-.271-.022-1.431-.09zm-13.566-422.812c0-1.743.304-3.431.858-5.025l70.862 64.617-71.72 71.721zm153.424 134.097-153.424 153.414v-134.983l82.815-82.815zm-153.424 273.522v-98.896l164.52-164.509 65.349 59.59-229.018 208.825c-.55-1.589-.851-3.272-.851-5.01zm172.383-131.098 146.381 146.381h-134.983l-82.002-82.002zm79.749-72.717 229.01-208.829c.554 1.594.858 3.282.858 5.025v95.033l-166.527 166.528zm216.097-219.02c.443.066.293.027 1.563.242l-78.474 71.567-71.885-71.887h147.274c.511 0 1.019.028 1.522.078zm-326.206-.078 56.585 56.586c2.929 2.927 7.677 2.929 10.607 0 2.929-2.93 2.929-7.678 0-10.607l-45.979-45.979h134.982l82.003 82.004-70.604 64.377-75.712-75.712c-2.93-2.928-7.678-2.928-10.607 0-2.929 2.93-2.929 7.678 0 10.607l75.222 75.222-57.521 52.448-228.789-208.627c.915-.118.764-.246 3.084-.318h126.729zm184.546 286.973 155.431-155.431v134.982l-84.828 84.827z"/></g></svg>